<svg width="143" height="85" viewBox="0 0 143 85" fill="none" xmlns="http://www.w3.org/2000/svg">
<g clip-path="url(#clip0_45_2139)">
<path d="M53.2375 26.2261C56.0841 26.04 57.4801 23.7185 57.4801 19.2617C57.4801 14.4801 56.1059 12.0272 53.3902 11.8922C52.3291 11.8386 51.2689 12.0154 50.2819 12.4105C49.4639 12.7025 48.675 12.9945 48.675 13.2902V24.704C49.9819 25.7126 51.5894 26.2489 53.2375 26.2261Z" fill="#D6003A"/>
<path d="M64.3476 63.2638C64.229 62.9508 64.0399 62.6697 63.795 62.4425C63.525 62.2087 63.1808 62.0793 62.8243 62.0775C62.5651 62.0626 62.305 62.0797 62.05 62.1286C61.8266 62.1719 61.6066 62.2317 61.392 62.3074C61.2296 62.3651 61.0727 62.4372 60.923 62.5228C60.7994 62.5921 60.6758 62.6542 60.6758 62.7016V67.7826C60.6758 67.8556 60.9012 67.9322 61.0575 68.0162C61.2197 68.1035 61.3873 68.1803 61.5592 68.2461C61.7455 68.3196 61.9376 68.377 62.1336 68.4177C62.3321 68.4575 62.5349 68.4723 62.7371 68.4615C63.1052 68.4552 63.4627 68.3368 63.7623 68.122C64.0155 67.9218 64.2143 67.6607 64.3403 67.3628C64.4726 67.0508 64.5595 66.7214 64.5984 66.3846C64.6383 66.0441 64.6589 65.7017 64.6602 65.3589C64.6581 65.0101 64.6375 64.6616 64.5984 64.315C64.5616 63.955 64.4772 63.6015 64.3476 63.2638Z" fill="#D6003A"/>
<path d="M79.9398 63.8771C79.964 63.6248 79.9329 63.3702 79.8488 63.1313C79.7646 62.8923 79.6294 62.6747 79.4526 62.4937C79.0737 62.1659 78.581 62.0019 78.0821 62.0375C77.7408 62.0479 77.4039 62.117 77.0859 62.2419C76.7733 62.366 76.6679 62.501 76.3043 62.6434V69.2574H75.2137V62.4974C75.2137 62.2601 75.7845 62.0484 76.0971 61.8623C76.4268 61.6683 76.7816 61.5209 77.1514 61.4243C77.5084 61.3208 77.8731 61.2463 78.242 61.2016C78.682 61.1493 79.1277 61.1765 79.558 61.2819C80.0333 61.3831 80.4734 61.6085 80.8341 61.9353C81.0148 62.0981 81.1583 62.2981 81.255 62.5218C81.3516 62.7454 81.399 62.9873 81.3939 63.2311V64.5743C85.1909 58.0286 87.1975 50.5917 87.2106 43.0168C87.2105 33.7631 84.1406 24.7731 78.4856 17.466V26.281C78.4856 29.5369 78.2275 31.7927 77.5767 33.0483C76.926 34.304 75.7118 35.3041 73.8759 36.0487C72.3419 36.6422 70.7169 36.9633 69.0734 36.9977L68.6008 35.1727C69.8585 35.0331 71.1025 34.7889 72.3199 34.4427C73.7341 33.9645 74.7447 33.2272 75.2791 32.2526C75.7045 31.4496 75.9553 29.9165 75.9553 27.6462V26.8687C73.9682 27.7519 71.821 28.2142 69.6478 28.2265C68.2451 28.2514 66.8801 27.7695 65.8015 26.8687C65.2184 26.4323 64.7458 25.8643 64.4218 25.2105C64.0978 24.5568 63.9316 23.8356 63.9366 23.1054V10.9506L66.8449 9.94682V22.182C66.8142 22.7506 66.9132 23.3187 67.1344 23.8431C67.3555 24.3675 67.6929 24.8343 68.121 25.2079C69.0278 25.9414 70.1765 26.305 71.3383 26.2263C72.6762 26.1971 74.1158 25.6788 75.57 24.6677V14.0532C71.6799 9.93514 66.9948 6.65617 61.8007 4.41639C56.6066 2.17661 51.0124 1.023 45.3595 1.02596C38.9404 1.00298 32.6054 2.49063 26.8624 5.36959V5.23454C26.8624 2.84737 24.8847 1.05517 22.4998 0.657304C20.9931 0.407185 19.4681 0.285083 17.941 0.292294C16.5432 0.29493 15.1483 0.417041 13.7711 0.657304C10.0666 1.31432 9.40861 2.69041 9.40861 5.23454V8.68024H18.1337V9.77527H6.09673C3.55192 9.77527 1.31612 11.2755 0.618119 14.2028C-0.188948 17.5536 -0.221667 19.678 0.618119 23.1712C1.23978 25.7773 2.73031 27.6608 5.27875 27.6608H6.54389C4.60994 32.5584 3.6229 37.7811 3.63553 43.0496C3.63076 48.5585 4.70762 54.0142 6.80453 59.1049C8.90145 64.1956 11.9773 68.8213 15.8561 72.7175C19.735 76.6137 24.3408 79.7039 29.4101 81.8115C34.4794 83.9191 39.9127 85.0027 45.3995 85.0003C59.7813 85.0003 72.6653 77.7001 79.9361 66.6183L79.9398 63.8771ZM13.2149 6.35147C12.8828 6.35654 12.5567 6.26221 12.2782 6.0805C11.9998 5.89879 11.7815 5.63793 11.6512 5.33118C11.5209 5.02442 11.4846 4.68567 11.5468 4.3581C11.609 4.03053 11.767 3.72897 12.0005 3.49188C12.2341 3.25479 12.5327 3.0929 12.8582 3.02684C13.1838 2.96078 13.5215 2.99355 13.8285 3.12097C14.1354 3.24839 14.3976 3.46469 14.5816 3.7423C14.7656 4.01991 14.8632 4.34625 14.8618 4.67972C14.8632 4.89813 14.8217 5.11467 14.7397 5.31696C14.6577 5.51924 14.5367 5.7033 14.3837 5.85858C14.2308 6.01387 14.0488 6.13733 13.8482 6.22191C13.6477 6.30649 13.4324 6.35051 13.2149 6.35147ZM45.7666 13.0129C46.2301 12.3721 46.838 11.8505 47.5407 11.4908C49.2748 10.4761 51.3507 9.95412 53.83 9.92857L53.8555 9.97237C54.8982 9.9225 55.935 10.1567 56.8559 10.6502C57.7769 11.1437 58.5478 11.8781 59.0869 12.7757C60.2308 14.5131 60.8016 16.7421 60.7992 19.4626C60.7992 21.896 60.2296 23.9121 59.0905 25.5109C58.5227 26.3793 57.7469 27.0907 56.8342 27.5798C55.9214 28.0689 54.901 28.3202 53.8664 28.3105C52.165 28.3653 50.4927 27.8323 48.675 26.7118V37.0817L45.7666 36.0378V13.0129ZM45.603 46.0573C45.7902 45.4056 46.0825 44.789 46.4683 44.2323C46.8411 43.6894 47.3275 43.2347 47.8934 42.9C48.4996 42.5515 49.1911 42.3807 49.8892 42.4072C50.4907 42.4127 51.0891 42.4937 51.6706 42.6481C52.2032 42.7902 52.7049 43.0303 53.1502 43.3562L52.6849 44.141C52.298 43.8803 51.8704 43.6866 51.4198 43.5679C50.9832 43.4603 50.5351 43.4063 50.0855 43.4073C49.5514 43.3884 49.0268 43.5532 48.5986 43.8745C48.1976 44.1869 47.8689 44.5829 47.6353 45.0353C47.3879 45.5137 47.2138 46.0268 47.119 46.5574C47.0222 47.0705 46.9651 47.5904 46.9482 48.1123C46.9503 48.4443 46.9722 48.7758 47.0136 49.1051C47.0543 49.4753 47.1248 49.8415 47.2244 50.2002C47.3271 50.5486 47.4609 50.887 47.6243 51.2113C47.7797 51.5304 47.9765 51.8274 48.2097 52.0946C48.4306 52.3478 48.697 52.557 48.9949 52.7115C49.3088 52.8716 49.6571 52.9518 50.0092 52.9451C50.2992 52.9471 50.5888 52.9227 50.8744 52.8721C51.1242 52.8249 51.368 52.7502 51.6015 52.6494C51.8415 52.5472 52.0887 52.4267 52.3504 52.2844L53.2593 51.7807L53.7573 52.5691C53.173 53.0342 52.5141 53.3958 51.8087 53.6386C51.1382 53.8539 50.4368 53.9563 49.7329 53.9415H49.7147C49.0348 53.9626 48.3645 53.7769 47.7916 53.4086C47.2296 53.0342 46.7496 52.5485 46.381 51.9814C46.0011 51.3938 45.713 50.7512 45.5267 50.0761C45.3423 49.4261 45.2589 48.7514 45.2795 48.0758C45.299 47.3917 45.4078 46.7131 45.603 46.0573ZM49.7656 65.5197C49.7764 66.1076 49.6967 66.6936 49.5293 67.2571C49.3939 67.7034 49.1589 68.1129 48.8422 68.4544C48.5387 68.7675 48.1646 69.0029 47.7516 69.1406C47.2964 69.2962 46.8182 69.3727 46.3374 69.3669C46.0927 69.3701 45.8485 69.3431 45.6103 69.2866C45.3778 69.2202 45.1515 69.1335 44.9341 69.0274L45.2177 68.2025C45.3264 68.2325 45.4333 68.269 45.5376 68.312C45.6401 68.3549 45.7476 68.3843 45.8575 68.3996C46.3212 68.5049 46.8055 68.4706 47.2499 68.301C47.5733 68.1564 47.8457 67.9173 48.0315 67.6148C48.1888 67.2995 48.2815 66.9557 48.3042 66.6038C48.332 66.2393 48.332 65.8732 48.3042 65.5087V58.1684L49.7584 57.723L49.7656 65.5197ZM57.4 68.0236C57.4 68.2134 57.0074 68.3886 56.7638 68.5602C56.52 68.7293 56.2593 68.8724 55.9859 68.9873C55.6783 69.1129 55.3593 69.2083 55.0334 69.272C54.6747 69.3453 54.3086 69.3759 53.9427 69.3632C53.6002 69.3653 53.2609 69.2957 52.9466 69.1588C52.3399 68.8934 51.86 68.4011 51.6088 67.7864C51.4776 67.4669 51.4108 67.1245 51.4125 66.779C51.4198 66.4255 51.4964 66.077 51.6379 65.7533C51.7668 65.458 51.9607 65.1959 52.205 64.9867C52.4588 64.8023 52.7468 64.6707 53.0521 64.5998C53.3959 64.5178 53.7507 64.4919 54.1027 64.5232H56.3385V63.5778C56.3214 63.3581 56.2529 63.1455 56.1385 62.9573C56.0368 62.7727 55.8996 62.6102 55.735 62.4791C55.5697 62.3438 55.3812 62.2399 55.1788 62.1725C54.973 62.1013 54.7566 62.0655 54.539 62.0667C54.1789 62.0621 53.8201 62.1101 53.4738 62.209C53.133 62.3164 52.8022 62.4532 52.4849 62.6178L52.165 61.8696C52.574 61.6396 53.01 61.4618 53.4629 61.3403C53.9238 61.2316 54.3963 61.1801 54.8698 61.187C55.1942 61.1875 55.5162 61.2431 55.8223 61.3512C56.1237 61.4502 56.4046 61.6036 56.6511 61.8039C56.8869 62.0067 57.0797 62.2549 57.2183 62.5339C57.3663 62.8341 57.4387 63.1663 57.4291 63.5012L57.4 68.0236ZM56.8184 53.697C56.3918 53.462 56.02 53.1385 55.7277 52.7479C55.4251 52.3438 55.2018 51.8854 55.0697 51.3974C54.927 50.8878 54.8549 50.3609 54.8552 49.8315C54.8536 49.3181 54.9346 48.8078 55.0952 48.3204C55.2465 47.8552 55.486 47.4239 55.8005 47.0501C56.111 46.6881 56.492 46.3937 56.9202 46.1851C57.388 45.9627 57.9005 45.8516 58.418 45.8602C58.9174 45.8517 59.4126 45.9539 59.8682 46.1596C60.3238 46.3653 60.7286 46.6693 61.0537 47.0501C61.3682 47.4239 61.6077 47.8552 61.7589 48.3204C61.9195 48.8078 62.0005 49.3181 61.9989 49.8315C61.9992 50.3609 61.9271 50.8878 61.7844 51.3974C61.6516 51.8872 61.4244 52.3461 61.1155 52.7479C60.8112 53.1425 60.4255 53.4663 59.9848 53.697C59.4941 53.9469 58.9499 54.0722 58.3998 54.062C57.8505 54.0756 57.3066 53.95 56.8184 53.697ZM65.9651 66.9067C65.8511 67.3563 65.6551 67.7808 65.3871 68.1587C65.1274 68.5219 64.7926 68.8245 64.4055 69.0457C63.9803 69.2819 63.5028 69.4074 63.0168 69.4107C62.6008 69.4242 62.1858 69.3624 61.7917 69.2282C61.3995 69.0875 61.024 68.9039 60.6719 68.6807V73.3272L59.3886 72.86V62.5777C59.633 62.3167 59.9119 62.0908 60.2175 61.9061C60.5715 61.7056 60.9472 61.5464 61.3372 61.4316C61.885 61.2767 62.4514 61.1981 63.0204 61.1979L63.0386 61.2162C63.5203 61.193 63.9988 61.3055 64.4201 61.5411C64.8079 61.7703 65.1367 62.0879 65.3798 62.4682C65.6473 62.8853 65.8404 63.346 65.9506 63.8297C66.078 64.3628 66.1414 64.9093 66.1396 65.4576C66.1436 65.9462 66.085 66.4332 65.9651 66.9067ZM65.4671 46.926C65.1508 47.0501 65.0345 47.1852 64.6709 47.3275V53.9415H63.5803V47.1669C63.5803 46.9297 64.1511 46.718 64.4673 46.5318C64.7954 46.3372 65.1491 46.1898 65.518 46.0938C65.8751 45.9907 66.2398 45.9162 66.6086 45.8712C67.0498 45.819 67.4966 45.8462 67.9283 45.9515C68.4021 46.0536 68.8409 46.2789 69.2007 46.6048C69.3814 46.7676 69.5249 46.9677 69.6216 47.1913C69.7182 47.415 69.7656 47.6569 69.7605 47.9006V53.9415H68.3064V48.5467C68.3316 48.2943 68.301 48.0394 68.2168 47.8003C68.1326 47.5612 67.9968 47.3437 67.8192 47.1633C67.4377 46.835 66.9426 46.6711 66.4414 46.707C66.1063 46.7218 65.7764 46.7959 65.4671 46.926ZM73.396 68.0236C73.1376 68.1795 72.8942 68.3592 72.6689 68.5602C72.4054 68.7318 72.1253 68.8761 71.8327 68.9909C71.5189 69.1165 71.1939 69.2119 70.8621 69.2756C70.4961 69.3494 70.1227 69.3801 69.7496 69.3669C69.4047 69.3689 69.0631 69.2993 68.7463 69.1625C68.1395 68.8971 67.6596 68.4048 67.4084 67.79C67.2738 67.4674 67.2067 67.1205 67.211 66.7708C67.2154 66.4211 67.2913 66.076 67.4339 65.7569C67.564 65.4614 67.7591 65.1993 68.0046 64.9904C68.2567 64.8053 68.5437 64.6737 68.848 64.6035C69.1919 64.5215 69.5466 64.4956 69.8987 64.5268H71.9309V63.5815C71.9479 63.3697 71.9143 63.157 71.8327 62.9609C71.7459 62.778 71.6221 62.6151 71.4692 62.4828C71.3132 62.3477 71.1331 62.2437 70.9384 62.1762C70.7364 62.105 70.5236 62.0692 70.3095 62.0703C69.953 62.0656 69.5978 62.1136 69.2552 62.2127C68.9143 62.3194 68.5834 62.4562 68.2664 62.6215L67.9464 61.8732C68.3567 61.6432 68.7939 61.4654 69.2479 61.3439C69.7089 61.2353 70.1814 61.1838 70.6549 61.1906C70.9793 61.1912 71.3013 61.2467 71.6073 61.3549C71.9088 61.4538 72.1897 61.6072 72.4362 61.8075C72.6962 62.0073 72.9158 62.2551 73.0833 62.5375C73.2573 62.8314 73.3571 63.1634 73.3742 63.5048L73.396 68.0236Z" fill="#D6003A"/>
<path d="M60.4796 50.9921C60.5328 50.6051 60.5595 50.2148 60.5596 49.8241C60.559 49.4674 60.5237 49.1117 60.4542 48.7619C60.3832 48.4238 60.2606 48.0987 60.0906 47.7983C59.9241 47.5084 59.6956 47.259 59.4217 47.0683C59.109 46.8689 58.7486 46.7579 58.3783 46.7471C57.9922 46.7509 57.6147 46.8621 57.2877 47.0683C57.0187 47.2592 56.7962 47.5087 56.637 47.7983C56.4748 48.1163 56.3667 48.4593 56.317 48.813C56.2646 49.1818 56.2379 49.5538 56.2371 49.9263H56.2552C56.2568 50.3007 56.2897 50.6743 56.3534 51.0432C56.4179 51.4167 56.5406 51.7776 56.7169 52.1127C56.8714 52.4321 57.0995 52.7099 57.3822 52.923C57.6859 53.1406 58.0528 53.251 58.4256 53.237C58.8161 53.2534 59.2006 53.1362 59.5162 52.9048C59.7947 52.6865 60.0177 52.4051 60.167 52.0835C60.3268 51.7381 60.4322 51.37 60.4796 50.9921Z" fill="#D6003A"/>
<path d="M70.277 65.1804C69.8251 65.1753 69.3842 65.3203 69.0228 65.5928C68.8544 65.7293 68.7211 65.9042 68.6338 66.1029C68.5465 66.3017 68.5079 66.5185 68.5211 66.7353C68.5207 66.96 68.5648 67.1826 68.651 67.39C68.7371 67.5975 68.8635 67.7856 69.0228 67.9435C69.1892 68.1185 69.3896 68.2573 69.6116 68.3515C69.8335 68.4457 70.0724 68.4931 70.3134 68.491C70.6632 68.4958 71.0093 68.4183 71.324 68.2647C71.6367 68.1187 71.942 67.9763 71.942 67.8449V65.1621H71.2149L70.277 65.1804Z" fill="#D6003A"/>
<path d="M54.4406 65.1804C53.9887 65.1753 53.5477 65.3203 53.1864 65.5928C53.018 65.7293 52.8846 65.9042 52.7974 66.1029C52.7101 66.3017 52.6714 66.5185 52.6847 66.7353C52.6843 66.96 52.7284 67.1826 52.8146 67.39C52.9007 67.5974 53.0271 67.7856 53.1864 67.9435C53.3528 68.1184 53.5532 68.2573 53.7752 68.3515C53.9971 68.4456 54.236 68.4931 54.4769 68.491C54.8595 68.4954 55.2387 68.4183 55.5894 68.2647C55.902 68.1187 55.9529 67.9763 56.3165 67.8449V65.1621C55.9529 65.1621 55.7821 65.1621 55.473 65.1621L54.4406 65.1804Z" fill="#D6003A"/>
<path d="M89.988 28.1457C89.6438 28.1749 89.3239 28.1895 89.0282 28.1895C87.3826 28.1895 86.0993 27.794 85.1783 27.0032C84.7174 26.5951 84.3543 26.0876 84.1164 25.5187C83.8784 24.9498 83.7717 24.3342 83.8041 23.7181V12.2093H81.7974V10.3842H83.7896V5.47485L86.6979 4.43457V10.3696H89.9698V12.1947H86.6979V23.6524C86.6979 24.7474 86.9912 25.5237 87.5777 25.9811C88.0794 26.3461 88.8792 26.5688 89.9698 26.6236L89.988 28.1457Z" fill="#231815"/>
<path d="M107.627 27.9087H104.719V16.6189C104.747 15.5737 104.469 14.5433 103.919 13.655C103.653 13.2148 103.275 12.8533 102.824 12.6071C102.373 12.361 101.865 12.2389 101.353 12.2534C100.015 12.2534 98.3448 12.9603 96.3429 14.3741V27.9087H93.4346V0.919827L96.3393 0V12.2899C98.099 10.9645 100.24 10.2484 102.44 10.2495C103.14 10.2233 103.838 10.3493 104.485 10.619C105.133 10.8886 105.715 11.2955 106.191 11.8117C107.155 12.8696 107.67 14.2626 107.627 15.6955V27.9087Z" fill="#231815"/>
<path d="M123.11 18.7975C123.11 16.9603 122.764 15.443 122.071 14.2458C121.7 13.5494 121.148 12.9666 120.474 12.5592C119.8 12.1519 119.029 11.935 118.243 11.9316C115.051 12.119 113.455 14.4149 113.455 18.8194C113.455 20.8379 113.785 22.5242 114.458 23.8784C115.312 25.6013 116.592 26.4554 118.301 26.4335C121.507 26.4019 123.11 23.8565 123.11 18.7975ZM126.299 18.8194C126.299 21.4328 125.635 23.6083 124.306 25.3458C122.852 27.2925 120.831 28.2658 118.243 28.2658C115.654 28.2658 113.659 27.2925 112.259 25.3458C110.952 23.6083 110.3 21.4328 110.303 18.8194C110.303 16.3616 111.008 14.2932 112.419 12.6142C113.125 11.7446 114.021 11.0502 115.038 10.5849C116.055 10.1196 117.165 9.89598 118.283 9.93137C119.405 9.89968 120.52 10.1248 121.542 10.5896C122.565 11.0544 123.469 11.7467 124.186 12.6142C125.597 14.2957 126.301 16.3641 126.299 18.8194Z" fill="#231815"/>
<path d="M143 27.9083H140.092V15.9761C140.092 14.6693 139.7 13.6473 138.918 12.91C138.491 12.534 137.994 12.2468 137.457 12.0651C136.919 11.8834 136.35 11.8108 135.784 11.8514C134.361 11.8912 132.983 12.3662 131.836 13.2129V27.9083H128.927V12.8516C130.312 11.7749 131.88 10.9609 133.555 10.4498C134.696 10.1301 135.872 9.95478 137.056 9.92783C137.714 9.92475 138.37 9.99328 139.012 10.1322C140.062 10.3421 141.031 10.8487 141.804 11.5923C142.189 11.9652 142.494 12.4136 142.7 12.9096C142.906 13.4055 143.008 13.9386 143 14.4759V27.9083Z" fill="#231815"/>
<path d="M71.9602 53.8935V46.9875H71.124V46.075H71.9602V45.1807C71.9602 43.8338 72.2692 42.8556 72.8872 42.2388C73.2196 41.9245 73.6119 41.6809 74.0405 41.5229C74.4691 41.3648 74.9251 41.2954 75.3811 41.3189C75.5494 41.3168 75.7174 41.3315 75.8828 41.3627C76.034 41.3958 76.1823 41.441 76.3263 41.4978L76.0428 42.2826L75.8828 42.2314C75.4106 42.1131 74.9138 42.1411 74.4577 42.3118C74.1327 42.4551 73.8588 42.6945 73.6725 42.998C73.4895 43.311 73.3743 43.6593 73.3344 44.02C73.2881 44.3759 73.2638 44.7343 73.2617 45.0931V46.075H75.0576V46.9875H73.2617V53.8935H71.9602Z" fill="#231815"/>
<path d="M82.3791 53.1779C82.1791 53.3093 81.9719 53.4297 81.7574 53.5429C81.5242 53.6629 81.2809 53.7618 81.0303 53.8385C80.7389 53.9229 80.441 53.9827 80.1396 54.0174C79.8289 54.0466 79.5161 54.0466 79.2053 54.0174C78.8955 53.9937 78.59 53.9299 78.2965 53.8276C78.0086 53.7309 77.7437 53.5756 77.5185 53.3713C77.0782 52.9817 76.7346 52.4942 76.5151 51.9478C76.2697 51.3545 76.146 50.7176 76.1515 50.0753C76.1521 49.5619 76.2094 49.0502 76.3224 48.5495C76.4255 48.0741 76.6087 47.6198 76.8641 47.2063C77.1103 46.816 77.4424 46.4876 77.8348 46.2463C78.2763 45.9913 78.7798 45.8649 79.2889 45.8813C79.7625 45.8674 80.2332 45.9597 80.6668 46.1514C81.0372 46.328 81.3563 46.5969 81.5938 46.9325C81.8504 47.3067 82.0296 47.7287 82.1209 48.1736C82.2319 48.7142 82.2915 49.2642 82.2991 49.8161H77.533C77.497 50.2832 77.5301 50.7531 77.6312 51.2105C77.7179 51.5933 77.8785 51.9554 78.1038 52.2763C78.3072 52.5587 78.572 52.7908 78.8781 52.9552C79.188 53.1182 79.5357 53.1951 79.8851 53.1779C80.2881 53.1636 80.6871 53.0923 81.0703 52.9662C81.4144 52.8435 81.7508 52.6996 82.0773 52.5354L82.3791 53.1779ZM81.0085 49.0788C81.0084 48.7937 80.9754 48.5095 80.9103 48.232C80.8498 47.9646 80.7506 47.7076 80.6159 47.4691C80.4901 47.2486 80.3129 47.062 80.0996 46.9252C79.8747 46.7863 79.6147 46.7153 79.3507 46.7208C79.0728 46.7136 78.7983 46.7844 78.5582 46.9252C78.3404 47.0623 78.1574 47.2486 78.0238 47.4691C77.886 47.7043 77.7808 47.9572 77.7111 48.221C77.6416 48.4978 77.5941 48.7798 77.5694 49.0642H80.9903L81.0085 49.0788Z" fill="#231815"/>
<path d="M84.1604 53.8937V47.3819C84.66 46.8187 85.3 46.3991 86.0145 46.1664C86.4014 46.0248 86.8006 45.9197 87.2069 45.8525C87.6811 45.7885 88.1626 45.8033 88.632 45.8963L88.3666 46.4255C88.2721 46.6129 88.1885 46.7881 88.1158 46.9512L87.7231 46.8818C87.6118 46.8589 87.4986 46.8467 87.385 46.8453H87.3669C86.9931 46.8364 86.6216 46.906 86.2762 47.0497C85.9841 47.1822 85.7113 47.3541 85.4655 47.5607V53.8937H84.1604Z" fill="#231815"/>
<path d="M95.7392 53.1779C95.5392 53.3093 95.3284 53.4297 95.1175 53.5429C94.8844 53.6629 94.641 53.7618 94.3904 53.8385C94.099 53.9229 93.8011 53.9827 93.4997 54.0174C93.1878 54.0466 92.8738 54.0466 92.5618 54.0174C92.2532 53.9933 91.949 53.9295 91.6566 53.8276C91.3684 53.7315 91.1035 53.5761 90.8786 53.3713C90.4383 52.9817 90.0947 52.4942 89.8752 51.9478C89.6298 51.3545 89.5061 50.7176 89.5117 50.0753C89.5122 49.5619 89.5695 49.0502 89.6825 48.5495C89.7856 48.0741 89.9688 47.6198 90.2242 47.2063C90.4704 46.816 90.8025 46.4876 91.1949 46.2463C91.6364 45.9913 92.1399 45.8649 92.649 45.8813C93.1226 45.8674 93.5933 45.9597 94.0269 46.1514C94.3973 46.328 94.7164 46.5969 94.9539 46.9325C95.2105 47.3067 95.3897 47.7287 95.481 48.1736C95.592 48.7142 95.6516 49.2642 95.6592 49.8161H90.8858C90.8498 50.2832 90.8829 50.7531 90.984 51.2104C91.0692 51.5938 91.2299 51.9562 91.4566 52.2763C91.6601 52.5587 91.9249 52.7908 92.231 52.9552C92.5409 53.1182 92.8885 53.1951 93.238 53.1779C93.641 53.1636 94.04 53.0923 94.4231 52.9661C94.7673 52.8435 95.1036 52.6996 95.4301 52.5354L95.7392 53.1779ZM94.3686 49.0788C94.3685 48.7937 94.3355 48.5095 94.2704 48.232C94.2099 47.9646 94.1107 47.7076 93.976 47.4691C93.8502 47.2486 93.673 47.062 93.4597 46.9252C93.2328 46.7849 92.97 46.7139 92.7036 46.7208C92.4256 46.7136 92.1511 46.7844 91.911 46.9252C91.6932 47.0623 91.5103 47.2486 91.3766 47.4691C91.2388 47.7043 91.1336 47.9572 91.064 48.221C90.9944 48.4978 90.947 48.7798 90.9222 49.0642H94.3432L94.3686 49.0788Z" fill="#231815"/>
<path d="M102.331 53.8935V48.5461C102.348 48.2902 102.31 48.0336 102.217 47.7945C102.125 47.5554 101.981 47.3397 101.796 47.1627C101.411 46.8341 100.912 46.6704 100.407 46.7064C100.069 46.7169 99.734 46.7861 99.4186 46.9108C99.1454 47.013 98.8854 47.1478 98.6443 47.3124V53.8825H97.3428V47.1664C97.6772 46.923 98.0008 46.7113 98.3134 46.5312C98.656 46.3373 99.0228 46.19 99.4041 46.0932C99.7685 45.9899 100.14 45.9155 100.517 45.8706C100.96 45.8183 101.409 45.8455 101.843 45.9509C102.31 46.0526 102.741 46.2783 103.09 46.6042C103.267 46.7686 103.407 46.9696 103.499 47.1933C103.591 47.417 103.634 47.6581 103.625 47.9V53.8935H102.331Z" fill="#231815"/>
<path d="M111.078 53.2299C110.678 53.4908 110.244 53.6924 109.787 53.8285C109.275 53.9833 108.743 54.0596 108.209 54.0548C107.739 54.0591 107.278 53.9328 106.875 53.6898C106.484 53.4585 106.146 53.1477 105.882 52.7772C105.606 52.39 105.398 51.9578 105.268 51.4997C105.127 51.026 105.056 50.5341 105.057 50.0397C105.053 49.3165 105.199 48.6004 105.486 47.9372C105.746 47.3096 106.177 46.7682 106.73 46.375C107.006 46.1821 107.313 46.0388 107.638 45.9515C107.973 45.8633 108.318 45.824 108.664 45.8347C109.019 45.8491 109.372 45.9067 109.714 46.0063C110.062 46.1067 110.395 46.254 110.703 46.4443L110.34 47.1415C110.048 47.0029 109.743 46.8929 109.431 46.813C109.119 46.7236 108.794 46.6903 108.471 46.7144C108.133 46.73 107.809 46.8512 107.544 47.0612C107.275 47.2765 107.054 47.5448 106.893 47.8496C106.716 48.182 106.584 48.5368 106.5 48.9045C106.415 49.2768 106.371 49.6576 106.37 50.0397C106.369 50.4093 106.417 50.7774 106.511 51.1347C106.599 51.4853 106.74 51.8202 106.929 52.1275C107.108 52.4162 107.345 52.6648 107.624 52.8575C107.908 53.0562 108.248 53.1596 108.594 53.1532C108.977 53.17 109.359 53.1091 109.718 52.9744C110.049 52.843 110.394 52.6933 110.75 52.5254L111.078 53.2299Z" fill="#231815"/>
<path d="M118.381 53.178C118.177 53.3094 117.97 53.4299 117.756 53.543C117.523 53.6637 117.279 53.7627 117.029 53.8387C116.737 53.9235 116.439 53.9833 116.138 54.0176C115.827 54.0468 115.514 54.0468 115.204 54.0176C114.894 53.9935 114.588 53.9298 114.295 53.8277C114.008 53.7312 113.744 53.5758 113.52 53.3715C113.079 52.9821 112.734 52.4946 112.513 51.948C112.268 51.3547 112.144 50.7178 112.15 50.0754C112.149 49.5622 112.205 49.0505 112.317 48.5497C112.42 48.0736 112.604 47.619 112.862 47.2065C113.108 46.8154 113.44 46.4868 113.833 46.2465C114.274 45.9904 114.778 45.864 115.287 45.8815C115.762 45.8677 116.234 45.9599 116.669 46.1516C117.039 46.3282 117.358 46.5971 117.596 46.9327C117.853 47.3063 118.031 47.7286 118.119 48.1737C118.234 48.7138 118.293 49.2641 118.297 49.8163H113.535C113.495 50.2834 113.528 50.7538 113.633 51.2106C113.718 51.594 113.879 51.9564 114.106 52.2765C114.309 52.5588 114.574 52.791 114.88 52.9554C115.19 53.1187 115.538 53.1956 115.887 53.178C116.29 53.1637 116.689 53.0925 117.072 52.9663C117.416 52.852 117.752 52.7167 118.079 52.5612L118.381 53.178ZM117.01 49.079C117.01 48.7938 116.977 48.5097 116.912 48.2321C116.852 47.9648 116.752 47.7078 116.618 47.4693C116.492 47.2488 116.315 47.0622 116.102 46.9254C115.876 46.787 115.617 46.7161 115.353 46.721C115.075 46.7132 114.8 46.784 114.56 46.9254C114.341 47.0606 114.157 47.2472 114.026 47.4693C113.886 47.7037 113.781 47.9569 113.713 48.2212C113.643 48.498 113.596 48.78 113.571 49.0644H116.992L117.01 49.079Z" fill="#231815"/>
<path d="M26.8657 9.70605V13.6153C26.8492 15.0762 26.2691 16.4737 25.2473 17.5139C24.2255 18.5541 22.8417 19.1559 21.3871 19.1927H13.72C12.5555 19.2212 11.4481 19.7048 10.6334 20.5405C9.81866 21.3763 9.36086 22.4982 9.35742 23.6677V32.0629C9.35742 34.4465 11.4224 35.8481 13.7381 36.5343C16.5897 37.4269 19.6443 37.4269 22.4959 36.5343C24.7026 35.8919 26.8802 34.5998 26.8802 32.0629V28.6976H18.1043V27.577H31.2646C33.8094 27.577 34.7619 25.7921 35.6271 23.1129C36.5432 20.3571 36.5033 17.7071 35.6271 14.1701C34.9982 11.6151 33.8094 9.70605 31.2646 9.70605H26.8657ZM23.0776 30.9314C23.4103 30.9227 23.7382 31.0139 24.019 31.1933C24.2998 31.3728 24.521 31.6323 24.654 31.9387C24.7871 32.245 24.8261 32.5843 24.766 32.9131C24.7059 33.2418 24.5494 33.545 24.3167 33.784C24.0839 34.0229 23.7854 34.1867 23.4594 34.2543C23.1333 34.3218 22.7947 34.2902 22.4867 34.1634C22.1787 34.0366 21.9154 33.8203 21.7305 33.5424C21.5456 33.2644 21.4476 32.9374 21.4489 32.6032C21.446 32.1652 21.6155 31.7438 21.9205 31.4307C22.2255 31.1176 22.6414 30.9381 23.0776 30.9314Z" fill="white"/>
</g>
<defs>
<clipPath id="clip0_45_2139">
<rect width="143" height="85" fill="white"/>
</clipPath>
</defs>
</svg>
