<svg width="14" height="17" viewBox="0 0 14 17" fill="none" xmlns="http://www.w3.org/2000/svg">
<path fill-rule="evenodd" clip-rule="evenodd" d="M2.05002 2.05011C3.36284 0.737292 5.14341 -0.000244141 7.00002 -0.000244141C8.85663 -0.000244141 10.6372 0.737292 11.95 2.05011C13.2628 3.36293 14.0004 5.1435 14.0004 7.00011C14.0004 8.85672 13.2628 10.6373 11.95 11.9501L7.00002 16.9001L2.05002 11.9501C1.39993 11.3001 0.884251 10.5284 0.532423 9.67906C0.180596 8.82974 -0.000488281 7.91943 -0.000488281 7.00011C-0.000488281 6.0808 0.180596 5.17049 0.532423 4.32116C0.884251 3.47184 1.39993 2.70013 2.05002 2.05011ZM7.00002 9.00011C7.53045 9.00011 8.03916 8.7894 8.41423 8.41433C8.7893 8.03925 9.00002 7.53055 9.00002 7.00011C9.00002 6.46968 8.7893 5.96097 8.41423 5.5859C8.03916 5.21083 7.53045 5.00011 7.00002 5.00011C6.46958 5.00011 5.96088 5.21083 5.5858 5.5859C5.21073 5.96097 5.00002 6.46968 5.00002 7.00011C5.00002 7.53055 5.21073 8.03925 5.5858 8.41433C5.96088 8.7894 6.46958 9.00011 7.00002 9.00011Z" fill="black"/>
</svg>
