<svg width="232" height="76" viewBox="0 0 232 76" fill="none" xmlns="http://www.w3.org/2000/svg">
<g clip-path="url(#clip0_1767_5711)">
<path d="M36.064 22.3647C36.064 19.7238 33.9199 17.5754 31.2705 17.5754C28.6211 17.5754 26.4812 19.7196 26.4812 22.3647C26.4812 25.0099 28.6296 27.1583 31.2705 27.1583C33.9114 27.1583 36.064 25.0099 36.064 22.3647ZM27.2412 29.0774C27.2412 27.9565 26.3326 27.0436 25.2074 27.0436C24.0823 27.0436 23.1737 27.9523 23.1737 29.0774C23.1737 30.2025 24.0865 31.1112 25.2074 31.1112C26.3283 31.1112 27.2412 30.1983 27.2412 29.0774ZM29.5934 39.6071C29.5934 35.6627 26.392 32.4571 22.4349 32.4571C18.4778 32.4571 15.2849 35.6584 15.2849 39.6071C15.2849 43.5557 18.4905 46.7655 22.4349 46.7655C26.3793 46.7655 29.5934 43.5599 29.5934 39.6071ZM14.907 44.7955C14.907 42.8127 13.2979 41.2035 11.3108 41.2035C9.32375 41.2035 7.71883 42.8127 7.71883 44.7955C7.71883 46.7783 9.328 48.3917 11.3108 48.3917C13.2936 48.3917 14.907 46.7825 14.907 44.7955ZM5.1968 48.1539C5.1968 46.7231 4.03345 45.5597 2.59835 45.5597C1.16326 45.5597 0.00415039 46.7231 0.00415039 48.1539C0.00415039 49.5848 1.16751 50.7524 2.59835 50.7524C4.0292 50.7524 5.1968 49.589 5.1968 48.1539ZM4.8444 55.7752C4.8444 54.7859 4.04194 53.9792 3.04841 53.9792C2.05489 53.9792 1.25243 54.7817 1.25243 55.7752C1.25243 56.7687 2.05913 57.5712 3.04841 57.5712C4.03769 57.5712 4.8444 56.7645 4.8444 55.7752Z" fill="url(#paint0_linear_1767_5711)"/>
</g>
<path d="M230.104 46.1395C230.44 45.5609 230.617 44.9035 230.617 44.2263V42.2605C230.617 40.9982 230.012 39.8871 229.072 39.1836C228.375 38.2434 227.257 37.6386 225.995 37.6386H217.968C216.686 37.6386 215.561 38.2697 214.864 39.2296C213.418 38.0593 211.472 37.415 209.289 37.415C208.395 37.415 207.534 37.5202 206.725 37.724C207.83 37.2244 208.921 36.705 209.979 36.1659C215.923 33.1481 220.946 29.4861 224.917 25.2783C226.357 23.753 226.304 21.3467 224.785 19.8872C223.273 18.4276 220.867 18.4605 219.394 19.9661C216.015 23.4112 211.643 26.4486 206.409 29.0061C201.801 31.2612 196.758 33.0824 190.999 34.5748C185.759 35.9292 180.256 36.9351 174.654 37.5662C171.853 37.8752 169.605 38.0856 167.56 38.2171C165.41 36.7444 162.886 36.2513 160.341 36.8365C159.257 37.0863 158.251 37.4939 157.337 38.0462C156.081 37.941 154.806 37.8095 153.543 37.678C154.076 37.3624 154.582 37.014 155.055 36.6261C155.608 36.1724 156.074 35.6991 156.489 35.2849L156.699 35.0745C159.309 32.4841 159.04 29.2099 158.954 28.1317C158.842 26.7773 158.224 25.561 157.218 24.7064C156.377 23.9963 155.325 23.5887 154.207 23.5361C153.806 21.6623 152.406 20.1239 150.368 19.565C149.644 19.3678 148.928 19.2757 148.231 19.2692C147.363 19.2692 146.548 19.3546 145.792 19.519C144.95 18.6446 143.872 18.0726 142.643 17.8754C141.88 17.7504 141.13 17.7241 140.427 17.7899C137.574 18.0726 135.345 19.4598 133.912 20.4855C133.905 20.4855 133.898 20.4986 133.892 20.4986C133.451 20.2554 132.971 20.0581 132.465 19.9201C131.735 19.7162 130.999 19.5979 130.263 19.565C130.493 19.0391 130.71 18.4934 130.9 17.928C131.262 16.8826 131.459 15.9227 131.518 15.0023C131.742 11.5112 129.382 8.61177 125.904 8.11867C125.003 7.99375 124.056 7.96746 123.083 8.03978L122.84 8.0595C121.992 8.12525 120.822 8.21072 119.638 8.69723C117.534 9.56508 115.641 10.3935 113.8 11.7478C111.985 13.0825 110.467 14.4303 109.165 15.857C108.159 16.9615 107.337 18.1318 106.653 19.2626C105.753 19.1705 104.668 19.3481 103.425 20.0581C103.287 20.137 103.156 20.2225 103.031 20.308C101.867 18.9273 100.046 18.0923 97.9288 18.0923C97.6987 18.0792 97.4752 18.0989 97.2516 18.1186C96.9032 16.7511 96.2063 15.2784 94.8782 13.924C93.892 12.9115 92.301 11.5112 89.9012 11.0312L89.5265 10.9523C88.9348 10.8274 88.2576 10.6893 87.5278 10.6104C85.345 10.3738 83.0637 10.4198 80.1314 10.7617C77.5673 11.0575 75.0624 11.6426 72.689 12.5039C72.4194 12.6025 72.1433 12.7012 71.8737 12.8064C71.0651 13.1088 70.2958 13.3915 69.5989 13.5624C66.0092 14.4434 62.9652 16.1068 60.1512 17.7439C59.6779 18.02 59.2242 18.3553 58.7246 18.8024C58.5339 18.9733 58.3367 19.1443 58.146 19.3152C57.4228 19.9529 56.6799 20.6104 55.9435 21.3599C55.1414 22.1817 54.4313 23.0561 53.8528 23.97C52.2683 26.4355 51.2755 29.0127 50.5129 31.202C49.862 33.0692 49.6516 34.9693 49.8949 36.843C50.1842 39.0784 51.2492 40.9522 52.9455 42.2408C50.2894 42.5103 47.8239 44.4301 46.8837 47.0797C45.9173 49.8015 45.8055 52.5826 46.5484 55.3505C46.9758 56.9415 48.0277 58.2433 49.5136 59.0191C50.9139 59.7489 52.3867 60.0842 53.9054 60.0316C54.2473 60.1302 54.6023 60.1828 54.9639 60.1828C55.411 60.1828 55.8646 60.1039 56.3051 59.9396L57.2847 59.5714C57.2847 59.5714 57.3307 59.5517 57.3505 59.5451C60.1447 59.0388 62.5181 58.0855 64.6022 56.6391L64.7732 56.5208C66.4234 55.3768 68.2906 54.0816 69.875 52.2933C70.5588 51.5241 71.0716 50.7023 71.4464 50.104C71.7159 49.6766 71.9066 49.2756 72.0644 48.9534C72.1301 48.8154 72.1959 48.6839 72.2682 48.5524C73.3004 46.7444 74.0696 44.7457 74.5562 42.6024C75.5621 42.6484 76.6534 42.6681 77.7909 42.5301C80.7034 42.1685 83.0768 40.8535 84.99 39.795C85.4634 39.532 85.9236 39.2559 86.3773 38.9535C85.0032 40.5182 84.1748 42.4512 83.9118 44.7128C83.6159 47.2375 84.9571 49.4465 87.3306 50.3407C87.8894 50.551 88.6455 50.7943 89.5528 50.814C87.9223 51.6556 87.1005 53.5556 87.6462 55.3439C88.1458 56.981 89.658 58.0527 91.3082 58.0527C91.5778 58.0527 91.8473 58.0264 92.1234 57.9672C93.4515 57.6779 94.8519 57.3229 96.5744 56.8429C96.8308 56.7706 97.0807 56.6983 97.3371 56.626C98.5402 56.2841 99.7894 55.9356 101.065 55.3899C101.952 55.0546 102.833 54.7062 103.714 54.3577C103.78 54.4629 103.859 54.5681 103.938 54.6667C104.175 54.9626 104.444 55.2322 104.733 55.4688C105.233 56.1 105.877 56.5865 106.594 56.8955C105.398 57.5464 104.582 58.8087 104.582 60.2683V64.0815C104.582 66.1986 106.298 67.9145 108.415 67.9145H109.494C109.914 67.9145 110.315 67.8422 110.697 67.7173C111.078 67.8422 111.479 67.9145 111.9 67.9145H112.958C113.248 67.9145 113.53 67.8817 113.8 67.8225C114.076 67.8817 114.352 67.9145 114.641 67.9145H115.529C116.64 67.9145 117.639 67.4346 118.343 66.6785C119.323 67.5201 120.605 67.9934 121.985 67.9934C122.676 67.9934 123.326 67.8751 123.918 67.6647C124.345 67.8291 124.812 67.9211 125.286 67.9211H126.384C126.765 67.9211 127.14 67.8619 127.488 67.7567C127.843 67.8619 128.211 67.9211 128.593 67.9211H129.717C130.052 67.9211 130.374 67.8751 130.69 67.7962C130.999 67.8751 131.321 67.9211 131.656 67.9211H132.735C133.445 67.9211 134.102 67.7239 134.668 67.3886C135.246 67.7304 135.91 67.9211 136.601 67.9211H137.698C138.08 67.9211 138.455 67.8619 138.803 67.7567C139.158 67.8619 139.526 67.9211 139.908 67.9211H141.032C141.367 67.9211 141.689 67.8751 142.005 67.7962C142.314 67.8751 142.636 67.9211 142.971 67.9211H144.03C144.319 67.9211 144.602 67.8882 144.871 67.8291C145.147 67.8882 145.424 67.9211 145.713 67.9211H146.6C147.948 67.9211 149.132 67.2242 149.815 66.1657C150.499 67.2176 151.683 67.9211 153.03 67.9211H154.109C154.904 67.9211 155.641 67.6778 156.252 67.2636C157.113 67.7304 158.106 68 159.184 68C160.092 68 160.933 67.8093 161.696 67.4675C162.235 67.7567 162.853 67.9211 163.504 67.9211H164.575C164.832 67.9211 165.082 67.8948 165.325 67.8488C165.568 67.8948 165.818 67.9211 166.068 67.9211H167.324C167.771 67.9211 168.205 67.8356 168.612 67.691C169.02 67.8422 169.46 67.9211 169.921 67.9211H170.999C171.807 67.9211 172.55 67.6713 173.168 67.2439C174.036 67.7239 175.042 67.9934 176.127 67.9934C179.467 67.9934 182.077 65.4359 182.077 62.1749C182.077 60.0448 180.959 58.2236 179.256 57.2111C179.316 57.2111 179.381 57.2243 179.441 57.2243H188.093C189.5 57.2243 190.722 56.4682 191.393 55.3373C192.918 56.7049 194.891 57.4478 197.08 57.4478C199.269 57.4478 201.196 56.718 202.669 55.4425C202.761 55.528 202.853 55.6069 202.951 55.6792C203.648 56.6194 204.766 57.2243 206.028 57.2243H214.68C215.627 57.2243 216.488 56.8824 217.159 56.3104C218.717 57.0336 220.591 57.4478 222.484 57.4478C225.62 57.4478 227.586 56.317 228.678 55.3636C230.275 53.9698 231.156 52.0369 231.156 49.9133C231.156 48.5392 230.781 47.2572 230.085 46.1658L230.104 46.1395ZM149.243 57.4609C149.191 57.4083 149.138 57.3557 149.079 57.3097C149.191 57.3097 149.296 57.3097 149.408 57.3097C149.349 57.3557 149.296 57.4083 149.243 57.4609ZM118.297 57.599C118.198 57.4938 118.086 57.3886 117.975 57.2966C118.192 57.2966 118.402 57.2966 118.619 57.2966C118.507 57.3886 118.395 57.4938 118.297 57.599ZM60.4865 44.2197C60.4339 44.3249 60.3748 44.4301 60.3222 44.5353C60.1118 44.246 59.8685 43.9896 59.599 43.7661C60.0263 43.6872 60.4537 43.5886 60.881 43.4636C60.7495 43.7135 60.618 43.9633 60.4865 44.2197ZM112.787 56.409H112.748C112.807 56.363 112.866 56.317 112.919 56.2709C112.971 56.3235 113.031 56.3761 113.09 56.4287C112.991 56.4222 112.886 56.409 112.781 56.409H112.787ZM89.8289 36.1198C90.013 35.9357 90.1971 35.7517 90.3746 35.561C90.4009 35.6136 90.4272 35.6596 90.4535 35.7122C90.2431 35.8503 90.0327 35.9818 89.8289 36.1264V36.1198ZM132.071 36.659C132.176 36.5603 132.288 36.4551 132.393 36.3499C132.439 36.442 132.491 36.5275 132.544 36.6195C132.386 36.6327 132.228 36.6458 132.071 36.6655V36.659ZM144.714 56.501C144.608 56.4748 144.503 56.4616 144.398 56.4485C144.536 56.363 144.674 56.2775 144.799 56.1789C144.904 56.2709 145.009 56.3564 145.121 56.4353C144.983 56.4485 144.845 56.4748 144.714 56.501ZM196.916 46.4814C197.008 46.5077 197.1 46.534 197.185 46.5734L196.469 48.3486C196.383 48.3223 196.291 48.296 196.206 48.2631L196.916 46.4814Z" fill="white"/>
<path d="M91.3217 54.1999C92.6563 53.6477 93.991 53.1283 95.3125 52.5629C96.6405 52.0237 97.9226 51.3729 99.2835 50.9192C101.959 49.9002 104.615 48.8153 107.285 47.7503C112.61 45.607 118.008 43.5294 123.603 42.0764C126.404 41.3598 129.257 40.8272 132.137 40.5117C135.023 40.2092 137.929 40.1961 140.815 40.3341C146.588 40.6168 152.281 41.5044 157.981 41.9383C160.828 42.1553 163.688 42.2539 166.528 42.1093C169.382 41.9581 172.235 41.6885 175.075 41.3663C180.762 40.7286 186.41 39.7095 191.952 38.2763C197.495 36.8365 202.932 34.9561 208.08 32.4446C213.221 29.9397 218.086 26.751 222.116 22.6485C218.172 26.8299 213.359 30.1501 208.231 32.7536C203.103 35.3703 197.659 37.3624 192.117 38.9009C186.568 40.4393 180.9 41.5636 175.181 42.3065C172.321 42.6681 169.454 42.9377 166.568 43.0757C163.668 43.2204 160.776 43.1218 157.903 42.9048C152.15 42.4643 146.469 41.5833 140.763 41.3072C137.909 41.1691 135.056 41.1823 132.229 41.4781C129.402 41.7871 126.594 42.3065 123.833 43.0166C118.31 44.4564 112.952 46.5142 107.627 48.651C104.964 49.7161 102.301 50.8009 99.6122 51.8265C98.2842 52.3919 96.8838 52.7601 95.4965 53.148C94.1093 53.5491 92.7089 53.8909 91.3085 54.2131L91.3217 54.1999Z" fill="url(#paint1_linear_1767_5711)"/>
<path d="M134.497 42.4314C134.241 41.9975 133.859 41.6819 133.36 41.4584C132.558 41.0968 131.736 40.8601 130.861 40.8601C130.099 40.8601 129.343 40.8601 128.58 40.8601C128.58 40.8206 128.58 40.7812 128.58 40.7352C127.423 40.7943 126.272 40.8469 125.115 40.9258C125.023 40.9258 124.885 41.1099 124.872 41.2217C124.826 41.649 124.819 42.0764 124.806 42.5037C124.675 45.6004 124.537 48.6904 124.418 51.787C124.385 52.7009 124.412 52.7404 125.201 52.7732C125.181 53.5293 125.266 53.5359 126.075 53.5622C126.949 53.5951 127.817 53.5819 128.692 53.6345C129.237 53.6674 129.303 53.6477 129.29 53.0559C129.27 52.1355 129.231 51.2085 129.218 50.288C129.205 49.6437 129.218 49.6174 129.816 49.624C131.361 49.624 132.827 49.315 134.221 48.5786C134.931 48.2039 135.339 47.6319 135.556 46.8495C135.799 45.9751 135.707 45.1007 135.602 44.2197C135.503 43.3847 135.108 42.8193 134.49 42.438L134.497 42.4314ZM131.42 45.3308C131.368 45.6201 131.157 45.9685 130.927 46.1132C130.427 46.4222 129.862 46.4748 129.297 46.4879C129.297 46.2973 129.297 46.1132 129.297 45.9225C129.316 45.9225 129.336 45.9225 129.349 45.9225C129.349 45.7056 129.349 45.4952 129.349 45.2782C129.369 44.647 129.369 44.6273 129.941 44.5747C130.348 44.5353 130.763 44.5221 131.164 44.5813C131.236 44.5944 131.308 44.6142 131.374 44.6339C131.44 44.8443 131.46 45.0744 131.414 45.3242L131.42 45.3308Z" fill="white" stroke="white" stroke-width="5.25" stroke-linecap="round" stroke-linejoin="round"/>
<path d="M226.041 47.3427C225.758 46.9219 225.357 46.5734 224.845 46.3105L226.784 44.2263V42.2605H225.995V41.4716H217.968V43.8976H218.757V44.6865H221.616L220.361 46.0409V48.0264H221.15V48.8154H222.465C222.826 48.8154 223.115 48.8548 223.359 48.9271C223.365 48.9863 223.378 49.0455 223.378 49.1047C223.378 49.8476 222.682 50.2618 221.616 50.2618C220.551 50.2618 219.427 49.9462 218.54 49.3413L217.396 51.7082C217.678 51.8857 218 52.0435 218.336 52.1816L218.185 52.4971C219.329 53.2138 220.959 53.5951 222.504 53.5951C225.85 53.5951 227.343 51.7871 227.343 49.9002C227.343 48.8351 226.896 47.9475 226.041 47.3492V47.3427Z" fill="white" stroke="white" stroke-width="5.25" stroke-linecap="round" stroke-linejoin="round"/>
<path d="M199.979 42.9771C199.105 41.8594 197.816 41.248 196.304 41.248C193.464 41.248 191.4 43.3584 191.4 47.027C191.4 49.2558 192.162 50.9061 193.398 51.8594C194.279 52.9836 195.568 53.5951 197.087 53.5951C199.914 53.5951 201.972 51.4846 201.972 47.816C201.972 45.5872 201.202 43.9304 199.966 42.9771H199.979ZM196.304 50.2289C196.107 50.2289 195.923 50.196 195.752 50.1237C195.496 49.6109 195.344 48.8614 195.344 47.8094C195.344 45.4754 196.074 44.601 197.087 44.601C197.277 44.601 197.455 44.6339 197.626 44.6996C197.882 45.2125 198.033 45.962 198.033 47.0205C198.033 49.3544 197.304 50.2289 196.304 50.2289Z" fill="white" stroke="white" stroke-width="5.25" stroke-linecap="round" stroke-linejoin="round"/>
<path d="M117.837 48.1513C116.943 46.6326 116.101 45.081 115.253 43.5359C114.911 42.9179 114.609 42.2736 114.234 41.5373C114.142 41.6688 114.063 41.7608 114.004 41.8594C113.826 41.511 113.649 41.1428 113.452 40.7549C113.314 40.9455 113.215 41.0705 113.13 41.2085C112.249 42.7075 111.414 44.2328 110.487 45.699C109.849 46.7115 109.257 47.7437 108.83 48.8876C108.435 49.9527 107.85 50.906 107.173 51.7936C107.061 51.9383 106.91 52.2341 106.956 52.2933C107.088 52.4576 107.304 52.6154 107.508 52.6417C107.64 52.6615 107.765 52.668 107.896 52.6746C107.798 52.8258 107.706 53.0296 107.745 53.0822C107.876 53.2466 108.093 53.4044 108.297 53.4307C108.889 53.5096 109.487 53.5359 110.086 53.5556C110.191 53.5556 110.388 53.4636 110.401 53.3847C110.46 53.0559 110.46 52.7141 110.487 52.3787C110.493 52.2604 110.5 52.1421 110.539 52.0369C110.677 51.6753 110.842 51.3268 110.973 50.9652C111.072 50.6891 111.23 50.5773 111.506 50.5839C112.281 50.6102 113.051 50.5839 113.826 50.6299C113.932 50.6299 114.017 50.6365 114.096 50.6431C114.109 50.6825 114.116 50.722 114.129 50.768C114.274 51.2545 114.359 51.7607 114.537 52.2275C114.74 52.7667 114.885 52.9573 115.273 52.8521C115.293 52.9047 115.306 52.9639 115.325 53.0165C115.569 53.6608 115.72 53.8054 116.299 53.5556C116.41 53.5096 116.542 53.4899 116.667 53.4899C117.837 53.4899 119.007 53.4964 120.184 53.4899C120.381 53.4899 120.671 53.4504 120.743 53.3189C120.815 53.1809 120.723 52.8784 120.618 52.7075C119.698 51.1953 118.738 49.7095 117.837 48.1842V48.1513ZM112.702 47.5859C112.702 47.5859 112.683 47.5859 112.669 47.5859C112.821 47.3097 112.965 47.0402 113.103 46.7772C113.268 47.0862 113.419 47.3755 113.491 47.553C113.511 47.6056 112.761 47.5727 112.702 47.5859Z" fill="white" stroke="white" stroke-width="5.25" stroke-linecap="round" stroke-linejoin="round"/>
<path d="M166.909 42.7404C166.607 42.3985 166.278 42.0764 165.93 41.774C164.529 40.584 162.912 40.1698 161.209 40.5642C158.902 41.0968 157.33 42.655 156.482 45.0415C155.7 47.244 156.383 49.6635 158.113 51.031C158.435 51.4255 158.809 51.7805 159.25 52.0698C160.604 52.9639 162.077 53.457 163.662 53.5819C163.99 53.6082 164.365 53.7068 164.648 53.5819C165.542 53.1874 166.443 52.7667 167.271 52.2407C167.935 51.8199 168.31 51.1033 168.441 50.242C168.29 50.1631 168.139 50.0316 167.981 50.0185C167.83 50.0053 167.679 50.0053 167.527 49.9988C167.58 49.8278 167.626 49.6437 167.652 49.4531C167.501 49.3742 167.35 49.2427 167.192 49.2295C166.482 49.1835 165.772 49.1572 165.062 49.1572C164.976 49.1572 164.819 49.315 164.812 49.4071C164.792 49.8673 164.556 50.1631 164.181 50.2486C163.458 50.413 162.721 50.5247 161.985 50.6497C162.07 48.5787 162.163 46.5142 162.248 44.4432C162.248 44.338 162.222 44.2131 162.261 44.1277C162.314 44.0027 162.406 43.8187 162.504 43.7924C163.057 43.6477 163.609 43.6411 164.128 43.9699C164.24 44.0422 164.345 44.1277 164.444 44.2066C164.628 44.4432 164.805 44.6996 164.95 44.9824C164.996 45.0744 165.147 45.1533 165.246 45.1533C165.279 45.1533 165.318 45.1533 165.351 45.1533C165.489 45.3505 165.621 45.5478 165.733 45.7713C165.779 45.8634 165.93 45.9422 166.028 45.9422C166.765 45.9422 167.495 45.9225 168.231 45.8897C168.389 45.8831 168.638 45.8436 168.691 45.7319C168.796 45.5149 168.842 45.2651 168.691 44.9824C168.231 44.0882 167.606 43.3716 166.89 42.7338L166.909 42.7404Z" fill="white" stroke="white" stroke-width="5.25" stroke-linecap="round" stroke-linejoin="round"/>
<path d="M152.32 51.7608C151.492 50.2158 150.657 48.6773 149.829 47.1389C149.066 45.7253 148.297 44.3118 147.547 42.8917C147.258 42.3328 147.035 41.7411 146.739 41.1823C146.647 41.0048 146.456 40.8207 146.278 40.7681C146.246 40.7615 146.2 40.7681 146.147 40.7944C146.081 40.6563 146.022 40.5248 145.95 40.3933C145.858 40.2158 145.667 40.0317 145.489 39.9791C145.371 39.9463 145.141 40.1238 145.062 40.2684C144.622 41.0639 144.168 41.8529 143.8 42.6879C143.346 43.7135 143.004 44.8049 142.551 45.8305C141.834 47.4347 141.058 49.0126 140.309 50.6037C140.105 51.031 139.908 51.4584 139.717 51.8857C139.671 51.9843 139.599 52.1553 139.632 52.2013C139.697 52.2868 139.835 52.3262 139.947 52.3394C140.177 52.3657 140.407 52.3788 140.631 52.3985C140.591 52.4906 140.545 52.5826 140.499 52.6747C140.453 52.7733 140.381 52.9442 140.414 52.9902C140.48 53.0757 140.618 53.1152 140.729 53.1283C141.111 53.1743 141.499 53.1809 141.88 53.2335C142.399 53.3058 142.616 53.1809 142.741 52.6155C142.879 52.0041 142.998 51.3926 143.109 50.7746C143.149 50.5511 143.241 50.459 143.465 50.4788C144.05 50.5182 144.635 50.5116 145.22 50.5774C145.384 50.5971 145.562 50.5971 145.733 50.6234C145.91 51.031 146.088 51.4386 146.219 51.8594C146.41 52.4708 146.515 52.6484 147.021 52.6878C147.225 53.3321 147.337 53.4768 148.001 53.4833C149.434 53.5031 150.867 53.4833 152.301 53.4833C152.524 53.4833 152.814 53.457 152.899 53.2795C152.971 53.1283 152.846 52.8456 152.768 52.6418C152.643 52.3394 152.478 52.0567 152.32 51.7674V51.7608ZM144.549 47.106C144.595 47.0337 144.641 46.9613 144.687 46.889C144.701 46.9285 144.714 46.9679 144.727 47.0074C144.668 47.0468 144.608 47.0797 144.549 47.106Z" fill="white" stroke="white" stroke-width="5.25" stroke-linecap="round" stroke-linejoin="round"/>
<path d="M187.323 50.0843H184.68L185.923 48.9337C187.507 47.4742 187.81 46.488 187.81 45.4097C187.81 44.3315 187.323 43.4505 186.488 42.8654C185.785 41.8463 184.424 41.2415 182.701 41.2415C180.512 41.2415 178.941 42.1619 178.099 43.5557L179.066 44.0948C179.007 44.1803 178.941 44.2592 178.888 44.3447L181.222 45.6464C181.669 44.9298 182.399 44.5682 183.208 44.5682C183.438 44.5682 183.642 44.5945 183.819 44.6405C183.839 44.726 183.852 44.818 183.852 44.9166C183.852 45.3769 183.727 45.8831 182.84 46.7115L178.684 50.5971V52.5629H179.473V53.3518H188.125V50.8601H187.337V50.0711L187.323 50.0843Z" fill="white" stroke="white" stroke-width="5.25" stroke-linecap="round" stroke-linejoin="round"/>
<path d="M213.904 50.0843H211.261L212.504 48.9337C214.089 47.4742 214.391 46.488 214.391 45.4097C214.391 44.3315 213.904 43.4505 213.069 42.8654C212.366 41.8463 211.005 41.2415 209.283 41.2415C207.093 41.2415 205.522 42.1619 204.68 43.5557L205.647 44.0948C205.588 44.1803 205.522 44.2592 205.469 44.3447L207.803 45.6464C208.25 44.9298 208.98 44.5682 209.789 44.5682C210.019 44.5682 210.223 44.5945 210.4 44.6405C210.42 44.726 210.433 44.818 210.433 44.9166C210.433 45.3769 210.308 45.8831 209.421 46.7115L205.265 50.5971V52.5629H206.054V53.3518H214.707V50.8601H213.918V50.0711L213.904 50.0843Z" fill="white" stroke="white" stroke-width="5.25" stroke-linecap="round" stroke-linejoin="round"/>
<g filter="url(#filter0_d_1767_5711)">
<path d="M187.323 50.0842V52.576H178.671V50.6102L182.826 46.7246C183.714 45.8962 183.839 45.39 183.839 44.9298C183.839 44.2131 183.365 43.7858 182.412 43.7858C181.603 43.7858 180.874 44.154 180.427 44.864L178.093 43.5622C178.934 42.1684 180.505 41.248 182.695 41.248C185.252 41.248 187.014 42.5629 187.014 44.6273C187.014 45.7056 186.712 46.6917 185.127 48.1513L183.03 50.0842H187.317H187.323ZM191.4 47.0205C191.4 43.3519 193.464 41.2414 196.304 41.2414C199.144 41.2414 201.189 43.3519 201.189 47.0205C201.189 50.6891 199.125 52.7995 196.304 52.7995C193.484 52.7995 191.4 50.6891 191.4 47.0205ZM198.033 47.0205C198.033 44.6865 197.303 43.8121 196.304 43.8121C195.305 43.8121 194.562 44.6865 194.562 47.0205C194.562 49.3544 195.292 50.2289 196.304 50.2289C197.317 50.2289 198.033 49.3544 198.033 47.0205ZM213.904 50.0842V52.576H205.252V50.6102L209.407 46.7246C210.295 45.8962 210.42 45.39 210.42 44.9298C210.42 44.2131 209.946 43.7858 208.993 43.7858C208.184 43.7858 207.455 44.154 207.008 44.864L204.674 43.5622C205.515 42.1684 207.086 41.248 209.276 41.248C211.833 41.248 213.595 42.5629 213.595 44.6273C213.595 45.7056 213.293 46.6917 211.708 48.1513L209.611 50.0842H213.898H213.904ZM226.554 49.098C226.554 50.9849 225.061 52.793 221.715 52.793C220.176 52.793 218.539 52.4116 217.395 51.695L218.539 49.3281C219.427 49.933 220.571 50.2486 221.616 50.2486C222.662 50.2486 223.378 49.8344 223.378 49.0915C223.378 48.4274 222.885 48.0132 221.682 48.0132H220.367V46.0277L222.353 43.8844H217.974V41.4584H226.002V43.4242L223.7 45.9028C225.574 46.2973 226.554 47.507 226.554 49.0915V49.098ZM128.579 40.8535C129.342 40.8535 130.098 40.8535 130.861 40.8535C131.735 40.8535 132.564 41.0902 133.359 41.4518C134.174 41.82 134.694 42.438 134.819 43.4176C134.924 44.2986 135.016 45.1796 134.773 46.0474C134.556 46.8298 134.148 47.4018 133.438 47.7765C132.038 48.5129 130.571 48.8285 129.033 48.8219C128.435 48.8219 128.422 48.8416 128.435 49.4859C128.448 50.4064 128.487 51.3334 128.507 52.2538C128.52 52.8521 128.454 52.8653 127.909 52.8324C127.041 52.7798 126.166 52.7864 125.292 52.7601C124.418 52.7272 124.391 52.7206 124.424 51.7739C124.543 48.6773 124.681 45.5872 124.812 42.4906C124.832 42.0632 124.832 41.6293 124.878 41.2085C124.891 41.0968 125.029 40.9193 125.121 40.9127C126.272 40.8338 127.429 40.7812 128.586 40.722C128.586 40.7615 128.586 40.8009 128.586 40.8469L128.579 40.8535ZM128.56 45.1336H128.507C128.507 45.4426 128.507 45.7516 128.507 46.0606C128.507 46.3236 128.632 46.4945 128.855 46.4945C129.566 46.4945 130.295 46.5011 130.926 46.1132C131.157 45.9685 131.367 45.6201 131.42 45.3308C131.558 44.5484 131.117 43.9173 130.381 43.7989C129.98 43.7332 129.559 43.7529 129.158 43.7924C128.586 43.8449 128.586 43.8647 128.566 44.4958C128.56 44.7128 128.566 44.9232 128.566 45.1401L128.56 45.1336ZM167.192 49.2295C166.482 49.1835 165.772 49.1572 165.062 49.1572C164.976 49.1572 164.818 49.315 164.812 49.407C164.792 49.8673 164.555 50.1631 164.181 50.2486C163.333 50.4393 162.465 50.5642 161.61 50.7088C161.314 50.7614 161.209 50.551 161.183 50.288C161.17 50.1565 161.196 50.0185 161.196 49.887C161.281 47.8094 161.373 45.7319 161.459 43.6543C161.459 43.5491 161.433 43.4242 161.472 43.3387C161.525 43.2138 161.617 43.0297 161.715 43.0034C162.268 42.8588 162.82 42.8522 163.339 43.1809C164.036 43.6214 164.562 44.2263 164.95 44.9823C164.996 45.0744 165.147 45.1533 165.246 45.1533C165.982 45.1533 166.712 45.1336 167.448 45.1007C167.606 45.0941 167.856 45.0547 167.909 44.9429C168.014 44.7259 168.06 44.4761 167.909 44.1934C167.409 43.2204 166.712 42.4446 165.916 41.7674C164.516 40.5774 162.899 40.1632 161.196 40.5577C158.888 41.0902 157.317 42.6484 156.469 45.0349C155.634 47.3755 156.462 49.9659 158.448 51.2808C159.802 52.1749 161.275 52.668 162.859 52.793C163.188 52.8193 163.563 52.9179 163.845 52.793C164.74 52.3985 165.64 51.9777 166.469 51.4517C167.133 51.031 167.507 50.3143 167.639 49.4531C167.488 49.3742 167.337 49.2427 167.179 49.2295H167.192ZM151.518 52.6812C150.085 52.6812 148.652 52.6943 147.218 52.6812C146.535 52.6746 146.436 52.5234 146.226 51.8396C146.061 51.3071 145.824 50.8009 145.601 50.2946C145.364 49.7489 144.865 49.8147 144.437 49.7686C143.852 49.7095 143.267 49.7161 142.682 49.67C142.458 49.6569 142.373 49.7423 142.327 49.9659C142.215 50.5839 142.09 51.1953 141.959 51.8068C141.834 52.3722 141.617 52.4971 141.097 52.4248C140.716 52.3722 140.328 52.3656 139.947 52.3196C139.835 52.3064 139.697 52.267 139.631 52.1815C139.592 52.1355 139.671 51.9711 139.717 51.8659C139.907 51.4386 140.111 51.0112 140.308 50.5839C141.058 48.9928 141.834 47.4149 142.55 45.8107C143.011 44.7851 143.346 43.6937 143.8 42.6681C144.168 41.8331 144.621 41.0442 145.062 40.2486C145.141 40.104 145.371 39.9331 145.489 39.9594C145.667 40.0054 145.857 40.1895 145.949 40.3736C146.239 40.9324 146.462 41.5307 146.758 42.083C147.508 43.5096 148.277 44.9166 149.039 46.3301C149.868 47.8752 150.703 49.4136 151.531 50.9521C151.689 51.2414 151.853 51.5241 151.978 51.8265C152.064 52.0303 152.182 52.313 152.11 52.4642C152.024 52.6417 151.735 52.668 151.512 52.668M144.253 45.5083C143.964 45.9685 143.714 46.3301 143.504 46.718C143.458 46.8035 143.537 47.0796 143.576 47.0796C143.944 47.1191 144.332 47.2637 144.713 46.981C144.569 46.5077 144.424 46.0474 144.253 45.5017V45.5083ZM113.438 40.722C113.813 41.4584 114.115 42.1027 114.457 42.7207C115.305 44.2657 116.147 45.8239 117.041 47.3361C117.942 48.8614 118.902 50.3472 119.822 51.8594C119.927 52.0303 120.019 52.3327 119.947 52.4708C119.875 52.6023 119.585 52.6417 119.388 52.6483C118.218 52.6615 117.048 52.6483 115.871 52.6483C115.746 52.6483 115.614 52.668 115.503 52.7141C114.917 52.9705 114.773 52.8193 114.529 52.1749C114.352 51.7082 114.266 51.1953 114.122 50.7154C113.833 49.7358 114.082 49.8475 113.03 49.7884C112.261 49.7489 111.485 49.7687 110.71 49.7424C110.433 49.7358 110.276 49.841 110.177 50.1237C110.046 50.4853 109.881 50.8337 109.743 51.1953C109.704 51.3005 109.697 51.4254 109.691 51.5372C109.664 51.8725 109.658 52.2144 109.605 52.5431C109.592 52.622 109.395 52.7206 109.29 52.7141C108.691 52.6943 108.093 52.668 107.501 52.5891C107.304 52.5628 107.087 52.4116 106.949 52.2407C106.903 52.1815 107.054 51.8857 107.166 51.741C107.85 50.86 108.435 49.9067 108.823 48.8351C109.243 47.6911 109.835 46.6654 110.48 45.6464C111.4 44.1803 112.242 42.6549 113.123 41.1559C113.201 41.0179 113.307 40.893 113.445 40.7023L113.438 40.722ZM111.439 47.6122C111.939 47.5596 112.314 47.6319 112.695 47.5662C112.754 47.553 113.51 47.5859 113.484 47.5333C113.32 47.1257 112.728 46.1263 112.491 45.6069C112.209 46.2184 111.722 47.0073 111.439 47.6122Z" fill="url(#paint2_linear_1767_5711)"/>
</g>
<path d="M108.422 60.242H109.5V64.0553H108.422V60.242Z" fill="black"/>
<path d="M115.529 60.242V64.0553H114.642L112.959 62.0237V64.0553H111.9V60.242H112.788L114.471 62.2736V60.242H115.529Z" fill="black"/>
<path d="M120.664 63.5753L121.256 62.8784C121.46 63.1414 121.67 63.2728 121.913 63.2728C122.222 63.2728 122.393 63.0822 122.393 62.7206V61.0835H121.078V60.2485H123.465V62.6548C123.465 63.6476 122.952 64.1341 121.992 64.1341C121.44 64.1341 120.96 63.9369 120.671 63.5753H120.664Z" fill="black"/>
<path d="M128.297 63.3189H126.686L126.384 64.0618H125.286L126.969 60.2485H128.034L129.724 64.0618H128.599L128.297 63.3189ZM127.981 62.5233L127.488 61.3005L126.995 62.5233H127.975H127.981Z" fill="black"/>
<path d="M135.102 61.6555C135.102 62.5233 134.444 63.0625 133.406 63.0625H132.742V64.0618H131.663V60.2485H133.406C134.444 60.2485 135.102 60.7877 135.102 61.6621V61.6555ZM134.01 61.6555C134.01 61.3005 133.787 61.0967 133.34 61.0967H132.742V62.2143H133.34C133.787 62.2143 134.01 62.0105 134.01 61.6555Z" fill="black"/>
<path d="M139.625 63.3189H138.014L137.712 64.0618H136.614L138.297 60.2485H139.362L141.051 64.0618H139.927L139.625 63.3189ZM139.309 62.5233L138.816 61.3005L138.323 62.5233H139.303H139.309Z" fill="black"/>
<path d="M146.614 60.242V64.0553H145.726L144.043 62.0237V64.0553H142.984V60.242H143.872L145.555 62.2736V60.242H146.614Z" fill="black"/>
<path d="M153.05 61.1032H151.88V60.2485H155.299V61.1032H154.135V64.0618H153.057V61.1032H153.05Z" fill="black"/>
<path d="M157.087 62.1486C157.087 61.0046 157.988 60.1631 159.204 60.1631C160.42 60.1631 161.321 61.0046 161.321 62.1486C161.321 63.2926 160.42 64.1341 159.204 64.1341C157.988 64.1341 157.087 63.2926 157.087 62.1486ZM160.236 62.1486C160.236 61.4912 159.783 61.0572 159.204 61.0572C158.626 61.0572 158.172 61.4846 158.172 62.1486C158.172 62.8126 158.626 63.24 159.204 63.24C159.783 63.24 160.236 62.8126 160.236 62.1486Z" fill="black"/>
<path d="M164.996 62.6746L164.595 63.102V64.0553H163.53V60.242H164.595V61.8265L166.074 60.242H167.264L165.706 61.9317L167.343 64.0553H166.087L164.996 62.6746Z" fill="black"/>
<path d="M171.012 62.6878V64.0553H169.934V62.6746L168.481 60.242H169.618L170.525 61.7542L171.433 60.242H172.478L171.018 62.6878H171.012Z" fill="black"/>
<path d="M174.023 62.1486C174.023 61.0046 174.923 60.1631 176.14 60.1631C177.356 60.1631 178.257 61.0046 178.257 62.1486C178.257 63.2926 177.356 64.1341 176.14 64.1341C174.923 64.1341 174.023 63.2926 174.023 62.1486ZM177.172 62.1486C177.172 61.4912 176.718 61.0572 176.14 61.0572C175.561 61.0572 175.108 61.4846 175.108 62.1486C175.108 62.8126 175.561 63.24 176.14 63.24C176.718 63.24 177.172 62.8126 177.172 62.1486Z" fill="black"/>
<path d="M216.903 23.0298C216.535 23.3125 216.337 23.5492 216.101 23.615C215.963 23.6544 215.752 23.4112 215.568 23.2928C215.772 23.1087 215.95 22.8721 216.186 22.7603C216.305 22.7077 216.528 22.8786 216.903 23.0233V23.0298Z" fill="#111C3B"/>
<mask id="mask0_1767_5711" style="mask-type:luminance" maskUnits="userSpaceOnUse" x="49" y="11" width="107" height="47">
<path d="M54.9708 56.3301C54.6815 55.9817 54.3199 56.146 53.9912 56.1723C53.0313 56.2512 52.1371 56.0474 51.289 55.6069C50.763 55.3374 50.408 54.9297 50.2502 54.3446C49.7045 52.3196 49.7966 50.3144 50.4935 48.3486C50.98 46.9811 52.3738 45.9817 53.669 46.0343C54.0438 46.0475 54.458 46.1658 54.7801 46.363C55.3061 46.6852 55.8386 46.5669 56.3777 46.5208C57.0352 46.4682 57.3639 46.7707 57.456 47.415C57.5677 48.1776 57.1404 48.6313 56.5881 48.9732C55.8978 49.4005 55.1746 49.7687 54.333 49.8739C53.2417 50.0119 52.6302 50.7286 52.5579 51.8331C52.5382 52.0895 52.5316 52.3393 52.5382 52.5958C52.5579 53.365 52.9984 53.8055 53.7676 53.7003C54.5697 53.5951 55.385 53.457 56.1542 53.2072C57.1996 52.8653 58.1594 52.313 58.9813 51.557C59.3494 51.2217 59.7505 50.9192 60.1252 50.5971C60.4145 50.3472 60.7104 50.104 60.9734 49.8213C61.5388 49.2296 62.091 48.6247 62.6302 48.0133C62.8734 47.7371 63.1233 47.4478 63.2876 47.1191C64.0568 45.607 64.9115 44.1211 65.5098 42.5432C65.9766 41.3203 66.1936 39.9791 66.3645 38.6642C66.6933 36.0738 66.8642 33.4703 67.1929 30.8799C67.3441 29.7096 67.6663 28.5525 67.995 27.4151C68.3238 26.2908 68.738 25.1863 69.139 24.0818C69.5598 22.9312 69.8754 21.7149 71.0456 21.018C71.0325 20.9851 71.0128 20.9588 70.9996 20.926C70.8747 20.926 70.7432 20.9128 70.6249 20.9457C69.9148 21.1561 69.2047 21.3599 68.5013 21.5966C66.0818 22.4118 63.9254 23.7399 61.7557 25.0482C61.4599 25.2257 61.2035 25.4624 60.9536 25.6991C60.0989 26.5078 59.2574 27.3362 58.4093 28.1449C57.5546 28.9601 57.1535 30.0252 56.7393 31.0837C56.1739 32.5367 55.9767 34.0751 55.7466 35.6004C55.6874 35.9883 55.786 36.4157 55.8846 36.8102C56.0227 37.3493 56.3777 37.7438 56.9431 37.8687C57.3968 37.9673 57.8767 38.0791 58.3304 38.0528C59.1522 38.0002 59.928 37.1783 59.9938 36.3631C60.1187 34.8772 60.7761 33.7464 62.1699 33.1481C62.6696 32.9312 62.9063 32.5827 63.1035 32.1093C63.2219 31.8201 63.4454 31.5242 63.6952 31.3467C64.2212 30.9719 64.8129 31.11 65.1351 31.6754C65.2797 31.9187 65.3981 32.2343 65.3718 32.5038C65.3126 33.2073 65.168 33.9108 65.0562 34.6077C65.0299 34.7852 64.9904 34.9561 64.9576 35.1337C64.6683 36.6918 63.8202 37.8555 62.4461 38.6182C61.2692 39.2756 60.0463 39.8082 58.6986 40.012C57.7321 40.1632 56.7591 40.012 55.9372 39.5912C54.6552 38.9272 53.8794 37.8227 53.6821 36.3171C53.5112 34.9759 53.6821 33.6872 54.1161 32.4315C54.8919 30.1961 55.7794 28.0068 57.0615 26.0081C57.5217 25.2915 58.0674 24.6209 58.6657 24.016C59.4875 23.1745 60.3882 22.4118 61.2626 21.6294C61.5125 21.4059 61.7755 21.1955 62.0582 21.0312C64.734 19.4796 67.4493 18.0069 70.4934 17.2573C71.6768 16.9681 72.8208 16.4947 73.9779 16.0805C76.1146 15.3113 78.304 14.805 80.5591 14.542C82.7352 14.2922 84.9114 14.1607 87.1008 14.3974C87.7845 14.4697 88.4617 14.6275 89.1323 14.7656C90.3486 15.0088 91.2625 15.6992 92.1172 16.5802C93.7214 18.2238 93.8857 20.183 93.557 22.2803C93.4715 22.8129 93.3006 23.3323 93.1625 23.9174C93.5307 23.6478 93.8529 23.398 94.1882 23.1745C95.3124 22.425 96.5287 21.9056 97.9094 21.9056C99.2966 21.9056 100.362 22.5696 100.513 23.7728C100.566 24.1804 100.513 24.6669 100.329 25.0351C99.7831 26.1725 99.1717 27.2836 98.5471 28.3815C98.1987 28.993 97.9225 29.6044 97.8502 30.3079C97.7713 31.0508 98.1724 31.3993 98.8627 31.1166C99.8357 30.7155 100.664 30.0975 101.335 29.2823C102.249 28.1646 103.156 27.0403 104.043 25.8964C104.182 25.7188 104.208 25.4493 104.267 25.2192C104.451 24.5157 104.583 23.7793 105.299 23.3717C105.694 23.1482 106.108 22.8983 106.555 23.1679C107.022 23.4572 107.055 23.9569 106.982 24.4368C106.805 25.6334 106.351 26.7511 105.851 27.8424C105.247 29.1508 104.668 30.4788 104.024 31.7609C103.695 32.4183 103.235 33.0101 102.827 33.6346C103.294 33.536 103.754 33.4045 104.228 33.3388C104.537 33.2993 104.852 33.3519 105.168 33.3585C105.332 33.3585 105.496 33.3454 105.667 33.3388C105.858 32.2803 106.029 31.2481 106.233 30.2224C106.338 29.7096 106.47 29.2034 106.647 28.7103C107.199 27.1981 107.699 25.6597 108.37 24.2067C109.329 22.1291 110.434 20.1239 111.992 18.4145C113.215 17.0667 114.589 15.8964 116.062 14.8116C117.607 13.6742 119.343 12.9378 121.091 12.2146C121.788 11.9254 122.604 11.8991 123.373 11.8333C124.03 11.7807 124.701 11.7939 125.358 11.8859C126.838 12.0963 127.778 13.2337 127.686 14.7261C127.646 15.377 127.475 16.0345 127.265 16.6591C126.627 18.5131 125.7 20.2028 124.306 21.6163C123.616 22.3132 122.774 22.6748 121.821 22.7537C121.026 22.8194 120.644 22.2475 120.907 21.4651C121.085 20.9391 121.44 20.5446 121.913 20.3014C122.36 20.0713 122.84 19.8806 123.333 19.7557C123.774 19.6439 124.149 19.473 124.464 19.1574C125.299 18.3224 125.72 17.2705 125.937 16.1397C126.042 15.5808 125.786 15.1798 125.201 14.9497C124.07 14.496 122.906 14.4303 121.755 14.8445C119.513 15.6532 117.495 16.8563 115.792 18.5197C114.326 19.9529 113.228 21.6557 112.525 23.6018H112.538C112.176 24.4434 111.729 25.2652 111.466 26.1396C111.137 27.2376 110.92 28.3684 110.71 29.4992C110.506 30.5906 110.598 31.6886 110.835 32.7734C110.973 33.4045 111.736 34.0751 112.406 34.1212C114.517 34.279 116.496 33.8648 118.291 32.6945C118.619 32.4775 118.968 32.2869 119.31 32.083C119.901 31.728 120.375 31.2678 120.651 30.6169C120.894 30.0383 121.177 29.4861 121.44 28.9141C122.13 27.4019 123.235 26.2185 124.576 25.3112C125.904 24.4105 127.331 23.6413 128.974 23.4112C129.816 23.2928 130.644 23.3586 131.446 23.5821C132.498 23.8714 133.11 24.6669 133.438 25.6662C134.346 24.9628 135.22 24.233 136.141 23.5755C137.548 22.5696 139.047 21.7544 140.802 21.5769C141.203 21.5374 141.624 21.5637 142.025 21.6294C142.899 21.7741 143.366 22.4184 143.622 23.1679C143.734 23.4835 143.57 23.9043 143.478 24.2724C143.425 24.4828 143.281 24.6735 143.208 24.8115C143.885 24.4368 144.576 24.0029 145.312 23.661C146.239 23.2271 147.245 23.0824 148.258 23.0759C148.626 23.0759 149.001 23.135 149.356 23.2336C150.25 23.4769 150.67 24.2264 150.427 25.1337C150.335 25.4624 150.217 25.7977 150.033 26.087C149.54 26.8628 149.033 27.632 148.481 28.3684C147.745 29.348 146.956 30.2882 146.187 31.2481C145.647 31.9253 145.417 32.7076 145.391 33.5623C145.378 33.9042 145.569 34.108 145.851 34.2527C146.423 34.5354 147.028 34.5682 147.646 34.463C148.77 34.2724 149.816 33.8713 150.762 33.2402C151.032 33.0561 151.295 32.7734 151.427 32.4775C151.709 31.8266 151.926 31.1429 152.11 30.4525C152.189 30.1567 152.137 29.8214 152.11 29.5058C152.031 28.467 152.833 27.4348 153.807 27.3493C154.523 27.2836 155.075 27.7044 155.135 28.421C155.253 29.8608 155.095 31.2415 153.997 32.3329C153.544 32.7799 153.103 33.2402 152.617 33.6478C150.841 35.1139 148.731 35.6267 146.496 35.7714C146.206 35.7911 145.91 35.7319 145.615 35.6991C144.911 35.6333 144.431 35.2454 144.109 34.6406C144.017 34.4696 143.925 34.3053 143.839 34.1343C143.669 33.8056 143.57 33.4834 143.675 33.0824C143.813 32.5498 143.767 31.9647 143.938 31.4453C144.392 30.0844 145.279 28.9601 146.062 27.7767C146.311 27.4019 146.548 27.014 146.791 26.6327L146.693 26.4881C146.272 26.5933 145.825 26.6524 145.424 26.8168C144.293 27.3033 143.346 28.0725 142.498 28.9535C141.604 29.8806 140.756 30.8602 139.914 31.8332C139.559 32.2474 139.283 32.7339 138.928 33.1481C138.455 33.7135 137.949 34.2527 137.429 34.772C137.153 35.0482 136.785 35.1271 136.397 35.035C136.003 34.943 135.74 34.6471 135.74 34.2527C135.74 33.3717 136.114 32.6353 136.64 31.9515C136.765 31.7938 136.877 31.6097 136.936 31.4256C137.561 29.4006 138.79 27.6781 139.743 25.824C139.842 25.6334 139.947 25.4427 140.02 25.2389C140.223 24.6538 139.947 24.279 139.329 24.3842C138.849 24.4631 138.33 24.5814 137.922 24.8313C135.996 26.0278 134.155 27.3559 132.643 29.0587C132.183 29.5781 131.821 30.2422 131.571 30.893C131.072 32.1948 130.177 33.181 129.178 34.0817C128.771 34.4499 128.245 34.6997 127.738 34.9364C126.64 35.4558 125.496 35.87 124.267 35.9686C123.307 36.0475 122.36 35.916 121.532 35.4098C121.137 35.1665 120.861 34.7392 120.493 34.3644C120.362 34.4762 120.145 34.6406 119.941 34.8246C118.961 35.6859 117.936 36.488 116.739 37.0469C114.721 37.9804 112.643 38.25 110.467 37.7569C109.06 37.4413 107.811 36.8562 106.785 35.8371C106.542 35.6004 106.351 35.3046 106.174 35.0087C106.068 34.8312 105.97 34.7523 105.779 34.8246C104.918 35.1402 104.03 35.3966 103.209 35.7977C101.992 36.3828 100.875 37.1455 100.007 38.1974C99.6385 38.6445 99.3361 39.1573 99.0665 39.6767C98.5471 40.6695 97.8765 41.5439 97.0876 42.3394C95.845 43.5951 94.6155 44.8575 93.1165 45.8239C92.0514 46.5077 90.9206 46.9679 89.6386 46.9416C89.3164 46.935 88.9811 46.8298 88.6787 46.7115C87.9489 46.4354 87.6267 45.8962 87.7188 45.1204C87.9292 43.3124 88.6327 41.8134 90.1185 40.63C92.1632 39.0127 94.3657 37.7109 96.7391 36.6524C97.607 36.2645 98.4288 35.7517 99.2638 35.2914C99.3624 35.2388 99.4676 35.1534 99.5136 35.0613C99.7963 34.4828 100.066 33.8976 100.335 33.3191C100.296 33.2928 100.257 33.273 100.217 33.2467C99.8555 33.5032 99.4939 33.7464 99.1388 34.016C98.4354 34.5551 97.6333 34.8772 96.7851 35.0811C94.9706 35.515 93.3992 34.2264 93.465 32.3592C93.5307 30.5249 94.2473 28.9141 95.2467 27.4151C95.6872 26.7576 96.2066 26.1528 96.6405 25.4887C96.9101 25.0811 97.0876 24.6209 97.3045 24.1804C97.2717 24.1475 97.2322 24.1146 97.1993 24.0752C97.0744 24.1146 96.9495 24.1475 96.8312 24.1935C95.8252 24.5617 94.918 25.0943 94.083 25.7714C93.1428 26.5341 92.1829 27.277 91.2691 28.0725C90.9798 28.3224 90.8023 28.7103 90.5853 29.039C88.6261 32.0239 86.2921 34.6471 83.1297 36.4025C81.2954 37.415 79.4282 38.4209 77.3112 38.6839C76.1344 38.8286 74.9181 38.7431 73.7215 38.6839C73.0049 38.6445 72.2948 38.4407 71.5585 38.3092C71.3678 39.1639 71.1377 40.0909 70.9602 41.0245C70.5854 42.9969 69.9411 44.8706 68.9418 46.6195C68.6788 47.0863 68.4815 47.5925 68.1988 48.0461C67.8372 48.6247 67.4625 49.2164 67.0088 49.7227C65.6808 51.2151 64.0437 52.3328 62.4132 53.4636C60.5657 54.7456 58.5145 55.4425 56.3186 55.8041C56.1871 55.8239 56.0556 55.8633 55.9372 55.9488M87.3243 22.0305C87.3769 20.5709 87.3046 19.3941 86.3907 18.4276C86.2264 18.2567 86.0686 18.1844 85.8582 18.2304C84.7997 18.4539 83.728 18.6249 82.6958 18.9404C81.9989 19.1508 81.2823 19.473 80.7168 19.9201C79.7438 20.6959 78.8562 21.59 77.9752 22.4776C76.851 23.6018 75.9963 24.9365 75.0759 26.2317C74.2672 27.3691 73.6163 28.5525 73.1692 29.874C72.6564 31.4059 72.2159 32.9509 72.0647 34.5617C71.9989 35.2783 72.0121 35.2783 72.7024 35.298C72.7419 35.298 72.7813 35.3112 72.8142 35.3112C73.4454 35.3046 74.0897 35.3572 74.7143 35.2783C76.2001 35.0811 77.6728 34.7523 78.9943 34.0291C81.1376 32.8523 82.9851 31.3335 84.4381 29.302C86.062 27.0272 86.8049 24.4697 87.3243 22.0305ZM130.007 29.3875C128.422 29.2691 127.127 27.9148 127.883 25.9884C127.37 26.2908 126.87 26.5998 126.404 26.9614C125.51 27.6583 124.997 28.6708 124.346 29.565C123.886 30.1961 123.675 30.9391 123.603 31.7083C123.524 32.5038 123.78 32.9772 124.543 33.2073C124.997 33.3454 125.509 33.4111 125.97 33.3454C127.824 33.089 129.855 31.4519 130.013 29.3809L130.007 29.3875ZM97.4886 38.7234C97.4886 38.7234 97.4492 38.6708 97.4294 38.6445C97.3045 38.6905 97.1796 38.7299 97.0678 38.7891C96.2526 39.2165 95.4308 39.6241 94.6287 40.0843C93.7674 40.5774 92.9061 41.0902 92.0909 41.6556C91.795 41.8595 91.5715 42.2145 91.4071 42.5498C91.2428 42.8851 91.4071 43.1021 91.7687 43.0495C92.1895 42.9903 92.63 42.8917 93.0047 42.701C94.3328 42.0304 95.4373 41.0574 96.4696 39.9988C96.8443 39.6109 97.1533 39.1573 97.4886 38.7299V38.7234ZM131.683 26.1265C131.683 26.1265 131.722 26.1002 131.749 26.0936C131.65 25.9029 131.598 25.6136 131.446 25.5413C131.289 25.4624 131.006 25.5413 130.828 25.6465C130.638 25.7517 130.44 25.9358 130.368 26.133C130.296 26.3434 130.27 26.6919 130.394 26.8299C130.552 27.0075 130.881 27.1192 131.124 27.0995C131.289 27.0864 131.46 26.8102 131.578 26.6196C131.657 26.4881 131.657 26.304 131.69 26.1396L131.683 26.1265ZM94.8259 57.2111C94.8259 57.1256 94.701 56.9942 94.6221 56.9876C94.5498 56.9876 94.4117 57.1059 94.3986 57.1914C94.3854 57.2769 94.4906 57.3821 94.5958 57.5596C94.7141 57.3886 94.8325 57.2966 94.8259 57.2111Z" fill="white"/>
</mask>
<g mask="url(#mask0_1767_5711)">
<path d="M169.761 -3.57855L46.5249 -12.369L41.3246 60.5354L164.561 69.3259L169.761 -3.57855Z" fill="#111C3B"/>
<g style="mix-blend-mode:hard-light" opacity="0.62">
<mask id="mask1_1767_5711" style="mask-type:luminance" maskUnits="userSpaceOnUse" x="60" y="19" width="93" height="23">
<path d="M152.083 19.0259L152.346 27.0469L147.199 20.3605L152.083 19.0259ZM148.5 34.8049L149.381 27.5663L146.804 31.6688L148.5 34.8049ZM144.562 22.78L143.451 25.0876L144.891 27.9476L144.562 22.78ZM140.118 33.3716L144.726 32.7207L140.091 28.9206L140.118 33.3716ZM133.116 31.7871L136.62 27.4348L133.076 24.016L133.116 31.7806V31.7871ZM138.421 30.4591L135.055 33.7398L137.948 33.5294L138.421 30.4591ZM126.528 26.5078L122.307 23.7464L116.16 31.8134L115.095 24.016L113.701 38.1513L116.101 36.5209L121.268 31.8003L123.55 37.0863L126.535 26.5012L126.528 26.5078ZM126.798 30.9062L124.22 35.0087L126.837 35.9357L126.798 30.9127V30.9062ZM94.3783 26.9548L92.0903 33.7398L97.751 38.6642L94.2008 26.2711L94.3783 26.9548ZM92.1692 40.0711L91.2225 35.9489C91.2225 35.9489 89.947 38.0988 89.4999 38.651L92.1692 40.0711ZM88.0798 26.4289L90.7754 29.9594L92.3599 25.9686L88.0864 26.4289H88.0798ZM86.9884 28.4604C86.3704 29.1573 84.786 32.3197 84.786 32.3197L88.0535 36.4946L86.9884 28.4604ZM67.8104 29.7227L70.0589 34.7128L71.6368 31.6228L73.6355 34.3249L75.5092 28.3881L67.8038 29.7227H67.8104ZM67.0609 39.5649L72.3271 37.0863L73.6289 35.1336L60.3548 40.7878L67.0609 39.5583V39.5649ZM107.738 31.8003L105.378 35.653C105.378 35.653 107.6 36.8036 107.633 37.106C107.666 37.4084 111.886 33.628 111.886 33.628L113.464 30.538L111.808 23.5755L106.37 36.1461L107.738 31.8069V31.8003ZM139.145 20.9522C138.921 20.9785 139.013 25.6794 139.013 25.6794L142.373 21.5045C142.373 21.5045 139.368 20.9259 139.145 20.9457V20.9522ZM75.8905 37.507C76.3442 37.0534 78.8951 34.5682 78.8951 34.5682L78.5795 36.3105L77.1792 41.9975L75.8905 37.507ZM102.163 35.5807L104.483 32.3657L102.879 38.4867L102.163 35.5807Z" fill="white"/>
</mask>
<g mask="url(#mask1_1767_5711)">
<path d="M102.695 32.1422L103.385 38.5458L101.84 38.3552L102.603 32.129L102.695 32.1422Z" fill="#7BAC83"/>
<path d="M103.385 38.5458L102.695 32.1422L104.503 32.3591L103.74 38.5852L103.385 38.5458Z" fill="#7BAC83"/>
<path d="M76.2914 34.3775L76.8831 34.3118L78.9081 34.5616L77.9876 42.0895L75.3841 41.7673L76.2914 34.3775Z" fill="#5C5D93"/>
<path d="M138.842 21.7806L139.263 25.7056L138.375 25.6004L138.842 21.7806Z" fill="#40A2B2"/>
<path d="M142.11 21.2612L142.255 22.6156L141.86 25.8437L141.058 25.9291L139.263 25.7056L138.842 21.7806L138.954 20.8733L142.11 21.2612Z" fill="#279CAE"/>
<path d="M142.255 22.6156L142.11 21.2612L142.419 21.2941L142.255 22.6156Z" fill="#279CAE"/>
<path d="M105.66 33.4965L106.061 37.198L105.22 37.0928L105.66 33.4965Z" fill="#7BAC83"/>
<path d="M106.87 23.6346L107.415 23.5754L108.921 37.5464L106.061 37.198L105.66 33.4965L106.87 23.6346Z" fill="#B87797"/>
<path d="M107.416 23.5754L109.802 23.319L111.005 23.4702L112.498 37.3426L109.717 37.6451L108.921 37.5464L107.416 23.5754Z" fill="#B87797"/>
<path d="M112.656 37.3295L112.498 37.3427L111.006 23.4703L114.3 23.8713L112.656 37.3295Z" fill="#7E4084"/>
<path d="M60.9466 36.0343L70.1247 35.0416L70.6704 40.1434L62.393 41.0376L60.9466 36.0343Z" fill="#8A6298"/>
<path d="M70.1249 35.0415L71.6107 34.8837L73.6423 35.1336L73.0571 39.887L70.6706 40.1434L70.1249 35.0415Z" fill="#5C5D93"/>
<path d="M67.9488 28.7365L69.428 28.5787L70.0855 34.7128L67.2584 34.3644L67.9488 28.7365Z" fill="#8A6298"/>
<path d="M69.4276 28.5787L73.4973 28.1382L75.5288 28.3881L74.7596 34.6734L72.1035 34.9561L70.0851 34.7128L69.4276 28.5787Z" fill="#5C5D93"/>
<path d="M86.5018 28.3946L87.363 36.4091L84.3519 36.0343L85.3052 28.25L86.5018 28.3946Z" fill="#5B8199"/>
<path d="M87.3635 36.4091L86.5023 28.3947L89.0269 28.7037L88.0736 36.4945L87.3635 36.4091Z" fill="#5B8199"/>
<path d="M88.1522 25.9555L90.3415 25.7188L90.5913 25.7517L91.045 29.9923L87.7051 29.5847L88.1522 25.9555Z" fill="#5B8199"/>
<path d="M91.0445 29.9923L90.5908 25.7516L92.3725 25.9686L91.8663 30.0909L91.0445 29.9923Z" fill="#807CAC"/>
<path d="M91.696 36.008L92.1299 40.0711L89.3817 39.7292L89.8617 35.7845L91.696 36.008Z" fill="#5B8199"/>
<path d="M92.1301 40.0711L91.6962 36.008L92.6626 36.1263L92.1827 40.0711H92.1301Z" fill="#807CAC"/>
<path d="M91.7551 36.5734L91.9063 37.9475L91.5907 37.9146L91.7551 36.5734Z" fill="#5B8199"/>
<path d="M95.0293 26.3762L96.3377 38.4932L91.9064 37.9475L91.7552 36.5734L93.0372 26.1264L95.0293 26.3762Z" fill="#807CAC"/>
<path d="M98.5989 26.8101L98.8882 29.4926L97.764 38.6641L96.3373 38.4932L95.0289 26.3762L98.5989 26.8101Z" fill="#807CAC"/>
<path d="M98.8882 29.4926L98.5989 26.8102L99.2038 26.8825L98.8882 29.4926Z" fill="#7BAC83"/>
<path d="M124.759 30.6628H124.779L125.141 30.7023L125.693 35.791L124.155 35.6069L124.759 30.6628Z" fill="#A15089"/>
<path d="M127.159 30.9522L127.297 32.2342L126.843 35.9357L125.693 35.7911L125.141 30.7023L127.159 30.9522Z" fill="#DE8D38"/>
<path d="M127.297 32.2342L127.159 30.9521L127.448 30.985L127.297 32.2342Z" fill="#DE8D38"/>
<path d="M114.871 25.8963L116.212 38.3551L115.732 38.4012L113.372 38.1185L114.871 25.8963Z" fill="#7E4084"/>
<path d="M115.154 23.5492L115.278 23.536L116.87 38.2828L116.212 38.3551L114.871 25.8963L115.154 23.5492Z" fill="#7E4084"/>
<path d="M115.942 23.4685L115.282 23.5396L116.871 38.2865L117.531 38.2154L115.942 23.4685Z" fill="#48A689"/>
<path d="M116.581 23.3933L115.934 23.463L117.523 38.2099L118.17 38.1402L116.581 23.3933Z" fill="#48A689"/>
<path d="M117.228 23.3312L116.581 23.4009L118.17 38.1478L118.817 38.0781L117.228 23.3312Z" fill="#5296A3"/>
<path d="M117.231 23.3256L118.099 23.2336L119.809 23.4374L121.354 37.7963L118.822 38.0724L117.231 23.3256Z" fill="#5296A3"/>
<path d="M122.399 23.7595L123.885 37.5267L121.354 37.7963L119.809 23.4374L122.399 23.7595Z" fill="#A15089"/>
<path d="M124.418 24.0028L125.555 34.5222L125.2 37.3821L123.885 37.5268L122.399 23.7596L124.418 24.0028Z" fill="#A15089"/>
<path d="M126.436 24.2526L126.614 25.87L125.555 34.5221L124.418 24.0028L126.436 24.2526Z" fill="#DE8D38"/>
<path d="M126.613 25.87L126.436 24.2526L126.804 24.2986L126.613 25.87Z" fill="#DE8D38"/>
<path d="M135.476 30.3144L136.396 30.2092L136.423 30.2158L136.824 33.9567L135.062 33.7398L135.476 30.3144Z" fill="#40A2B2"/>
<path d="M137.994 33.9896L137.527 34.0422L136.824 33.9568L136.422 30.2158L138.428 30.4591L137.994 33.9896Z" fill="#40A2B2"/>
<path d="M135.791 24.3513L136.357 29.6175L136.074 31.9383L135.147 32.0369L132.143 31.6688L133.083 24.0225L135.791 24.3513Z" fill="#40A2B2"/>
<path d="M136.357 29.6175L135.791 24.3513L136.988 24.4959L136.357 29.6175Z" fill="#40A2B2"/>
<path d="M139.842 31.0442L140.091 33.365L139.559 33.2993L139.842 31.0442Z" fill="#40A2B2"/>
<path d="M142.978 29.2756L143.431 33.4834L142.156 33.6214L140.091 33.365L139.841 31.0442L140.098 28.9206L142.978 29.2756Z" fill="#279CAE"/>
<path d="M144.654 33.3519L143.431 33.4834L142.978 29.2756L145.121 29.5386L144.654 33.3519Z" fill="#279CAE"/>
<path d="M143.756 22.6831L143.138 27.7341L144.9 27.9498L145.518 22.8988L143.756 22.6831Z" fill="#279CAE"/>
<path d="M147.336 27.323H147.356L147.875 27.3822L148.599 34.0488L148.507 34.8049L146.455 34.555L147.336 27.323Z" fill="#279CAE"/>
<path d="M148.599 34.0488L147.876 27.3821L149.388 27.5728L148.599 34.0488Z" fill="#015371"/>
<path d="M147.159 20.6958L147.784 26.488L146.469 26.3302L147.159 20.6958Z" fill="#279CAE"/>
<path d="M147.356 19.0719L150.058 18.7826L152.083 19.0259L152.668 24.4236L152.346 27.0468L147.784 26.488L147.159 20.6958L147.356 19.0719Z" fill="#015371"/>
<path d="M152.668 24.4236L152.083 19.0259L153.306 19.1771L152.668 24.4236Z" fill="#015371"/>
</g>
<path d="M53.3988 49.1703L51.1569 49.6043L50.4139 51.7542L51.9064 53.4767L54.1483 53.0428L54.8912 50.8929L53.3988 49.1703Z" fill="#A686B2"/>
<path d="M61.5386 53.1414L59.7569 51.0901L60.2828 49.5648L57.5741 51.9119L58.2513 55.4293L61.6372 56.5996L64.3459 54.2525L64.0369 52.6614L61.5386 53.1414Z" fill="#407BB0"/>
</g>
</g>
<path d="M63.0504 34.3381C62.9781 34.634 62.9781 34.8312 62.886 34.9627C62.8334 35.035 62.6231 35.0022 62.485 35.0153C62.5113 34.8378 62.5047 34.6471 62.5836 34.4959C62.6231 34.417 62.8071 34.417 63.0504 34.3381Z" fill="white"/>
<path d="M54.1684 47.415C54.2144 47.4676 54.1947 47.5531 54.1289 47.5794C53.9711 47.6451 53.8594 47.7043 53.7608 47.6977C53.7082 47.6977 53.6687 47.6057 53.6227 47.5202C53.5964 47.4676 53.6227 47.4084 53.6687 47.3821C53.7739 47.3295 53.8791 47.2704 53.9843 47.2572C54.0369 47.2572 54.0895 47.3229 54.1684 47.4216V47.415Z" fill="white"/>
<defs>
<filter id="filter0_d_1767_5711" x="106.94" y="39.9567" width="120.813" height="14.0981" filterUnits="userSpaceOnUse" color-interpolation-filters="sRGB">
<feFlood flood-opacity="0" result="BackgroundImageFix"/>
<feColorMatrix in="SourceAlpha" type="matrix" values="0 0 0 0 0 0 0 0 0 0 0 0 0 0 0 0 0 0 127 0" result="hardAlpha"/>
<feOffset dx="1.2" dy="1.2"/>
<feColorMatrix type="matrix" values="0 0 0 0 0.0666667 0 0 0 0 0.109804 0 0 0 0 0.231373 0 0 0 1 0"/>
<feBlend mode="normal" in2="BackgroundImageFix" result="effect1_dropShadow_1767_5711"/>
<feBlend mode="normal" in="SourceGraphic" in2="effect1_dropShadow_1767_5711" result="shape"/>
</filter>
<linearGradient id="paint0_linear_1767_5711" x1="-9.54428e-05" y1="37.5733" x2="36.064" y2="37.5733" gradientUnits="userSpaceOnUse">
<stop stop-color="#8CC4C5"/>
<stop offset="0.13" stop-color="#B7C6E1"/>
<stop offset="0.24" stop-color="#9EC1D1"/>
<stop offset="0.37" stop-color="#9DC6D5"/>
<stop offset="0.56" stop-color="#DDBCBF"/>
<stop offset="0.71" stop-color="#EAD4A0"/>
<stop offset="0.82" stop-color="#E4BF7B"/>
<stop offset="0.96" stop-color="#E3B090"/>
</linearGradient>
<linearGradient id="paint1_linear_1767_5711" x1="90.5985" y1="49.6175" x2="223.431" y2="28.5722" gradientUnits="userSpaceOnUse">
<stop stop-color="#E1A993"/>
<stop offset="0.04" stop-color="#E1AD8C"/>
<stop offset="0.28" stop-color="#DFBE7E"/>
<stop offset="0.42" stop-color="#E6D49D"/>
<stop offset="0.62" stop-color="#DEBABC"/>
<stop offset="0.74" stop-color="#9FC7D5"/>
<stop offset="0.83" stop-color="#9ABFD2"/>
<stop offset="0.92" stop-color="#B9C2DC"/>
<stop offset="1" stop-color="#84BEBF"/>
</linearGradient>
<linearGradient id="paint2_linear_1767_5711" x1="106.942" y1="46.4156" x2="226.554" y2="46.4156" gradientUnits="userSpaceOnUse">
<stop stop-color="#8D6099"/>
<stop offset="0.08" stop-color="#8A5F98"/>
<stop offset="0.12" stop-color="#835F98"/>
<stop offset="0.16" stop-color="#755E98"/>
<stop offset="0.18" stop-color="#635C97"/>
<stop offset="0.21" stop-color="#4B5B96"/>
<stop offset="0.22" stop-color="#3A5A96"/>
<stop offset="0.29" stop-color="#5F879E"/>
<stop offset="0.39" stop-color="#8482B3"/>
<stop offset="0.46" stop-color="#77AC82"/>
<stop offset="0.52" stop-color="#A06596"/>
<stop offset="0.55" stop-color="#A491B3"/>
<stop offset="0.56" stop-color="#74A09C"/>
<stop offset="0.57" stop-color="#63A594"/>
<stop offset="0.58" stop-color="#50AA8B"/>
<stop offset="0.61" stop-color="#4FAB8B"/>
<stop offset="0.62" stop-color="#5798A1"/>
<stop offset="0.68" stop-color="#D0BFBE"/>
<stop offset="0.72" stop-color="#68A789"/>
<stop offset="0.82" stop-color="#49A6B6"/>
<stop offset="0.89" stop-color="#31A0B4"/>
<stop offset="1" stop-color="#175473"/>
</linearGradient>
<clipPath id="clip0_1767_5711">
<rect width="36.0641" height="40" fill="white" transform="translate(0 18)"/>
</clipPath>
</defs>
</svg>
