<svg width="193" height="145" viewBox="0 0 193 145" fill="none" xmlns="http://www.w3.org/2000/svg">
<g clip-path="url(#clip0_1613_17694)">
<path d="M76.8035 41.6099C75.2288 41.9609 73.8714 40.3678 74.2786 38.7477C74.523 37.8566 74.7673 37.1276 75.2017 36.6146C75.3646 36.3985 75.7175 36.3715 76.1247 36.3985C77.4279 36.5065 78.3238 37.8026 78.0794 39.1257C77.9437 39.9088 77.7537 40.6378 77.4007 41.2589C77.2921 41.4209 77.1021 41.5289 76.8306 41.6099H76.8035Z" fill="#111C3B"/>
<path d="M0.434574 145L0.0273438 142.273V142.192H0.10879C8.90496 140.788 17.4296 137.872 25.0856 133.524C28.9135 131.364 32.5515 128.853 35.755 125.91C37.3839 124.452 38.9043 122.913 40.2074 121.265C41.5105 119.591 42.6236 117.782 43.6281 115.892C47.6461 108.332 48.7592 99.475 48.1891 90.8344C47.6461 82.1398 45.6914 73.4182 45.2842 64.3726C45.067 59.8632 45.2842 55.2729 46.2344 50.7636C47.1032 46.2273 48.9221 41.961 50.9583 37.9377C53.0487 33.9145 55.6007 30.0262 58.8314 26.705C62.0349 23.3567 65.9444 20.6295 70.2881 18.8744C72.3786 18.0914 74.089 17.1463 75.6364 15.8232C77.1568 14.5001 78.3784 12.853 79.3015 10.9899C80.306 9.15375 80.7404 7.18261 81.7992 4.86045C82.3422 3.75338 83.0752 2.5923 84.1611 1.70123C85.2471 0.783172 86.6317 0.243134 87.9619 0.108125C90.4325 -0.10789 92.903 0.0271195 95.3192 1.08019C97.7083 2.07926 99.6359 4.18541 100.722 6.21055C103.165 10.2068 104.55 14.7701 105.038 19.3605C105.5 23.9778 105.038 28.6221 103.871 33.0774C103.274 35.2916 102.459 37.4787 101.455 39.5578C100.559 41.61 98.8757 43.7971 98.9843 44.9042C99.2558 49.6025 97.9255 54.4359 95.455 58.4321C94.2333 60.4303 92.7944 62.2394 91.2469 63.9405C90.4868 64.7776 89.6723 65.6146 88.9121 66.3977L86.8217 68.8009C84.2154 72.1221 82.315 75.9564 81.4191 80.0876C80.4689 84.1919 80.6318 88.5392 81.4191 92.6975C83.048 101.095 87.5004 108.899 93.4188 115.163C96.3237 118.349 99.8259 120.941 103.491 123.345C107.102 125.775 111.038 127.773 115.002 129.609C123.011 133.227 131.508 135.738 140.142 137.521C148.748 139.519 157.571 140.653 166.422 141.004C175.299 141.355 184.204 140.761 193.082 139.789C184.285 141.247 175.381 142.327 166.422 142.462C157.463 142.57 148.449 141.949 139.572 140.383C130.721 138.682 122.061 135.954 113.78 132.282C109.681 130.365 105.636 128.313 101.862 125.775C98.0884 123.291 94.369 120.536 91.2741 117.161C85.0027 110.519 80.2789 102.31 78.5142 93.2375C77.6454 88.7282 77.4554 84.0029 78.5142 79.4396C79.5187 74.8763 81.6363 70.583 84.5141 66.9377L86.8217 64.3186C87.5819 63.5085 88.342 62.7524 89.075 61.9424C90.5139 60.3493 91.8442 58.6752 92.9573 56.866C95.1563 53.2748 96.2694 49.1975 96.0523 45.0122C95.998 43.2571 96.7853 42.123 97.3011 41.124C97.8712 40.1249 98.3599 39.2338 98.8486 38.2618C99.7716 36.3446 100.505 34.3465 101.075 32.2943C102.161 28.1631 102.568 23.8698 102.161 19.6305C101.699 15.4182 100.45 11.2869 98.2513 7.69565C97.2468 5.83252 95.9437 4.53643 94.2061 3.75338C92.5229 2.97032 90.3782 2.83531 88.4235 3.02433C86.6317 3.18634 85.41 4.32042 84.5684 6.10254C83.7539 7.83066 83.1566 10.2338 82.0435 12.286C80.9847 14.3921 79.5187 16.3902 77.6726 17.9834C75.8536 19.5765 73.5731 20.7645 71.4827 21.5476C63.501 24.7068 57.5826 31.5383 53.7003 39.2338C51.7184 43.1221 50.0624 47.0914 49.2479 51.3037C48.352 55.4889 48.162 59.8362 48.3792 64.1835C48.7592 72.8781 50.7139 81.5998 51.2841 90.6184C51.9085 99.61 50.7139 109.034 46.4244 117.269C44.334 121.4 40.9947 124.911 37.4654 127.719C33.9361 130.608 30.0538 132.984 26.0086 135.009C17.9455 139.06 9.1493 141.544 0.244533 142.354L0.325979 142.246L0.570317 145H0.434574Z" fill="url(#paint0_linear_1613_17694)"/>
</g>
<defs>
<linearGradient id="paint0_linear_1613_17694" x1="-1.54728" y1="72.5001" x2="193.217" y2="72.5001" gradientUnits="userSpaceOnUse">
<stop stop-color="#8A6298"/>
<stop offset="0.04" stop-color="#876197"/>
<stop offset="0.06" stop-color="#806096"/>
<stop offset="0.08" stop-color="#725F95"/>
<stop offset="0.09" stop-color="#5C5D93"/>
<stop offset="0.21" stop-color="#5B8199"/>
<stop offset="0.34" stop-color="#7BAC83"/>
<stop offset="0.46" stop-color="#9E6595"/>
<stop offset="0.55" stop-color="#A988B2"/>
<stop offset="0.56" stop-color="#6D9A98"/>
<stop offset="0.57" stop-color="#5C9F91"/>
<stop offset="0.58" stop-color="#49A589"/>
<stop offset="0.61" stop-color="#48A689"/>
<stop offset="0.62" stop-color="#5296A3"/>
<stop offset="0.68" stop-color="#CFBFB9"/>
<stop offset="0.72" stop-color="#69A885"/>
<stop offset="0.82" stop-color="#40A2B2"/>
<stop offset="0.89" stop-color="#279CAE"/>
<stop offset="1" stop-color="#015371"/>
</linearGradient>
<clipPath id="clip0_1613_17694">
<rect width="193" height="145" fill="white"/>
</clipPath>
</defs>
</svg>
