<svg width="1426" height="468" viewBox="0 0 1426 468" fill="none" xmlns="http://www.w3.org/2000/svg">
<g clip-path="url(#clip0_1633_13219)">
<path opacity="0.24" d="M1395.56 22.2669C1395.56 9.97442 1385.57 0 1373.23 0C1360.89 0 1350.93 9.97442 1350.93 22.2669C1350.93 34.5595 1360.94 44.5665 1373.23 44.5665C1385.52 44.5665 1395.56 34.5758 1395.56 22.2669ZM1354.48 53.4962C1354.48 48.2886 1350.25 44.0441 1345 44.0441C1339.75 44.0441 1335.53 48.2723 1335.53 53.4962C1335.53 58.7201 1339.78 62.9645 1345 62.9645C1350.21 62.9645 1354.48 58.7201 1354.48 53.4962ZM1365.43 102.47C1365.43 84.1214 1350.52 69.2332 1332.08 69.2332C1313.64 69.2332 1298.8 84.1214 1298.8 102.47C1298.8 120.819 1313.72 135.773 1332.08 135.773C1350.44 135.773 1365.43 120.868 1365.43 102.47ZM1297.03 126.582C1297.03 117.359 1289.53 109.882 1280.28 109.882C1271.03 109.882 1263.55 117.375 1263.55 126.582C1263.55 135.789 1271.06 143.315 1280.28 143.315C1289.5 143.315 1297.03 135.822 1297.03 126.582ZM1251.82 142.205C1251.82 135.544 1246.41 130.125 1239.7 130.125C1233 130.125 1227.61 135.528 1227.61 142.205C1227.61 148.882 1233.03 154.301 1239.7 154.301C1246.37 154.301 1251.82 148.882 1251.82 142.205ZM1250.17 177.662C1250.17 173.059 1246.42 169.32 1241.8 169.32C1237.17 169.32 1233.44 173.059 1233.44 177.662C1233.44 182.266 1237.19 186.02 1241.8 186.02C1246.41 186.02 1250.17 182.282 1250.17 177.662Z" fill="url(#paint0_linear_1633_13219)"/>
<g opacity="0.44">
<path d="M983.03 208.287C978.339 218.621 971.375 227.828 963.463 235.925C955.55 244.071 946.837 251.401 937.633 258.013C919.21 271.252 898.906 281.602 878.063 290.27C836.213 307.509 792.091 318.022 748.051 327.262C726.031 331.882 703.896 336.273 681.664 340.028C659.415 343.636 637.084 346.754 614.688 349.382C592.292 351.896 569.846 353.969 547.369 355.651C524.891 357.267 502.397 358.638 479.902 359.65C457.392 360.663 434.898 361.511 412.387 362.132L378.629 363.03L361.742 363.438C356.135 363.65 350.528 363.764 344.937 364.058C300.161 366.148 255.5 372.074 212.293 383.631C201.471 386.423 190.812 389.818 180.203 393.296L172.307 396.104L168.367 397.507L164.46 399.009L156.646 402.013L148.914 405.213C128.283 413.751 108.421 424.035 89.327 435.544C70.3311 447.216 52.0382 460.064 34.8733 474.332C30.6556 477.988 26.3072 481.482 22.2203 485.286L16.0083 490.901L9.94331 496.68C5.85643 500.484 1.99841 504.516 -1.94135 508.483C-3.93575 510.442 -5.79936 512.532 -7.71203 514.54C-9.72277 516.499 -12.0932 518.082 -15.9675 518.392C-16.0166 514.572 -14.578 512.042 -12.7634 509.854C-10.8508 507.765 -8.97079 505.659 -6.96004 503.651C-3.00394 499.602 0.886778 495.489 5.00636 491.587L11.1203 485.677L17.3814 479.931C21.501 476.046 25.8985 472.454 30.1489 468.716C38.8621 461.468 47.7225 454.383 56.9752 447.804C66.1134 441.078 75.6604 434.907 85.3218 428.982C124.196 405.556 166.618 388.104 210.528 376.955C254.421 365.593 299.573 360.01 344.692 358.279C355.988 357.871 367.268 357.691 378.499 357.447L412.24 356.647C434.734 356.075 457.212 355.308 479.673 354.345C502.135 353.382 524.58 352.092 547.009 350.525C569.438 348.925 591.818 346.868 614.148 344.501C636.479 342.052 658.761 339.114 680.961 335.669C703.144 332.078 725.197 327.931 747.234 323.344C791.225 314.268 835.151 303.934 876.706 286.989C897.402 278.467 917.493 268.297 935.688 255.319C944.777 248.838 953.36 241.655 961.141 233.705C968.906 225.706 976.017 217.201 983.063 208.336L983.03 208.287Z" fill="url(#paint1_linear_1633_13219)"/>
</g>
<g opacity="0.44">
<path d="M1426 93.1327C1421.31 103.466 1414.34 112.673 1406.43 120.77C1398.52 128.917 1389.81 136.246 1380.6 142.858C1362.18 156.097 1341.88 166.447 1321.03 175.116C1279.18 192.354 1235.06 202.868 1191.02 212.107C1169 216.727 1146.87 221.119 1124.63 224.873C1102.38 228.481 1080.05 231.599 1057.66 234.227C1035.26 236.741 1012.82 238.815 990.338 240.496C967.861 242.112 945.366 243.484 922.872 244.496C900.362 245.508 877.867 246.357 855.357 246.977L821.599 247.875L804.712 248.283C799.105 248.495 793.498 248.61 787.907 248.903C743.131 250.993 698.469 256.919 655.263 268.477C644.441 271.268 633.782 274.664 623.173 278.141L615.277 280.949L611.337 282.353L607.43 283.855L599.616 286.858L591.884 290.058C571.253 298.596 551.391 308.88 532.297 320.389C513.301 332.062 495.008 344.909 477.843 359.177C473.625 362.834 469.277 366.327 465.19 370.131L458.978 375.747L452.913 381.526C448.826 385.329 444.968 389.361 441.028 393.328C439.034 395.287 437.17 397.377 435.258 399.385C433.247 401.344 430.877 402.927 427.002 403.237C426.953 399.418 428.392 396.887 430.206 394.7C432.119 392.61 433.999 390.504 436.01 388.496C439.966 384.448 443.857 380.334 447.976 376.432L454.09 370.523L460.351 364.776C464.471 360.891 468.868 357.3 473.119 353.561C481.832 346.313 490.692 339.228 499.945 332.649C509.083 325.924 518.63 319.753 528.292 313.827C567.166 290.401 609.588 272.95 653.497 261.8C697.391 250.438 742.542 244.855 787.662 243.124C798.958 242.716 810.238 242.537 821.468 242.292L855.21 241.492C877.704 240.921 900.182 240.153 922.643 239.19C945.105 238.227 967.55 236.937 989.979 235.37C1012.41 233.77 1034.79 231.713 1057.12 229.346C1079.45 226.898 1101.73 223.959 1123.93 220.515C1146.11 216.94 1168.17 212.777 1190.2 208.189C1234.19 199.113 1278.12 188.779 1319.68 171.834C1340.37 163.313 1360.46 153.142 1378.66 140.164C1387.75 133.683 1396.33 126.5 1404.11 118.55C1411.88 110.551 1418.99 102.046 1426.03 93.1817L1426 93.1327Z" fill="url(#paint2_linear_1633_13219)"/>
</g>
</g>
<defs>
<linearGradient id="paint0_linear_1633_13219" x1="1227.61" y1="93.002" x2="1395.56" y2="93.002" gradientUnits="userSpaceOnUse">
<stop stop-color="#8CC4C5"/>
<stop offset="0.13" stop-color="#B7C6E1"/>
<stop offset="0.24" stop-color="#9EC1D1"/>
<stop offset="0.37" stop-color="#9DC6D5"/>
<stop offset="0.56" stop-color="#DDBCBF"/>
<stop offset="0.71" stop-color="#EAD4A0"/>
<stop offset="0.82" stop-color="#E4BF7B"/>
<stop offset="0.96" stop-color="#E3B090"/>
</linearGradient>
<linearGradient id="paint1_linear_1633_13219" x1="-25.2693" y1="390.357" x2="992.7" y2="336.123" gradientUnits="userSpaceOnUse">
<stop offset="0.04" stop-color="#E3B090"/>
<stop offset="0.18" stop-color="#E4BF7B"/>
<stop offset="0.29" stop-color="#EAD4A0"/>
<stop offset="0.44" stop-color="#DDBCBF"/>
<stop offset="0.57" stop-color="#9DC6D5"/>
<stop offset="0.7" stop-color="#9EC1D1"/>
<stop offset="0.83" stop-color="#B7C6E1"/>
<stop offset="1" stop-color="#8CC4C5"/>
</linearGradient>
<linearGradient id="paint2_linear_1633_13219" x1="417.7" y1="275.203" x2="1435.67" y2="220.952" gradientUnits="userSpaceOnUse">
<stop offset="0.04" stop-color="#E3B090"/>
<stop offset="0.18" stop-color="#E4BF7B"/>
<stop offset="0.29" stop-color="#EAD4A0"/>
<stop offset="0.44" stop-color="#DDBCBF"/>
<stop offset="0.57" stop-color="#9DC6D5"/>
<stop offset="0.7" stop-color="#9EC1D1"/>
<stop offset="0.83" stop-color="#B7C6E1"/>
<stop offset="1" stop-color="#8CC4C5"/>
</linearGradient>
<clipPath id="clip0_1633_13219">
<rect width="1442" height="518.359" fill="white" transform="translate(-16)"/>
</clipPath>
</defs>
</svg>
