<svg width="196" height="18" viewBox="0 0 196 18" fill="none" xmlns="http://www.w3.org/2000/svg">
<g clip-path="url(#clip0_1613_18255)">
<path d="M0.00023865 15.4692L6.0646 13.7237C8.0934 13.1783 10.056 12.3492 12.129 12.0874C16.2086 11.2365 20.2883 10.2983 24.39 9.38191C32.5714 7.52736 40.863 5.78191 49.309 4.95282C53.543 4.56009 57.7991 4.451 62.0551 4.64736C66.3333 4.86554 70.5452 5.52009 74.6911 6.371C83.0047 8.09464 91.0097 10.6474 99.1029 12.5455C103.16 13.4837 107.24 14.291 111.342 14.7055C115.488 15.1201 119.656 15.3601 123.801 15.5783C132.137 16.0146 140.495 15.8837 148.809 15.1419C157.122 14.4001 165.392 13.0037 173.397 10.6255C181.402 8.26918 189.164 4.88736 195.956 -0.0217285C189.34 5.10554 181.644 8.81463 173.661 11.4328C165.656 14.0728 157.343 15.731 148.985 16.7346C140.605 17.7383 132.159 18.1092 123.713 17.9346C115.311 17.7383 106.777 16.8874 98.5295 14.8801C90.304 12.9383 82.2991 10.4074 74.1618 8.72736C70.1042 7.89827 66.0025 7.26554 61.8787 7.04736C57.755 6.851 53.6092 6.96009 49.4854 7.331C41.2158 8.13827 33.0344 9.86191 24.8751 11.6946C20.7955 12.611 16.6938 13.571 12.57 14.4219C10.5412 15.011 8.40213 15.0328 6.28512 15.2074C4.16811 15.3819 2.05109 15.4474 -0.065918 15.4692H0.00023865Z" fill="url(#paint0_linear_1613_18255)"/>
</g>
<defs>
<linearGradient id="paint0_linear_1613_18255" x1="0.00023865" y1="8.98918" x2="196.904" y2="8.98918" gradientUnits="userSpaceOnUse">
<stop stop-color="#8A6298"/>
<stop offset="0.04" stop-color="#876197"/>
<stop offset="0.06" stop-color="#806096"/>
<stop offset="0.08" stop-color="#725F95"/>
<stop offset="0.09" stop-color="#5C5D93"/>
<stop offset="0.21" stop-color="#5B8199"/>
<stop offset="0.34" stop-color="#7BAC83"/>
<stop offset="0.46" stop-color="#9E6595"/>
<stop offset="0.55" stop-color="#A988B2"/>
<stop offset="0.56" stop-color="#6D9A98"/>
<stop offset="0.57" stop-color="#5C9F91"/>
<stop offset="0.58" stop-color="#49A589"/>
<stop offset="0.61" stop-color="#48A689"/>
<stop offset="0.62" stop-color="#5296A3"/>
<stop offset="0.68" stop-color="#CFBFB9"/>
<stop offset="0.72" stop-color="#69A885"/>
<stop offset="0.82" stop-color="#40A2B2"/>
<stop offset="0.89" stop-color="#279CAE"/>
<stop offset="1" stop-color="#015371"/>
</linearGradient>
<clipPath id="clip0_1613_18255">
<rect width="196" height="18" fill="white"/>
</clipPath>
</defs>
</svg>
