<svg width="356" height="42" viewBox="0 0 356 42" fill="none" xmlns="http://www.w3.org/2000/svg">
<path d="M356 0.859031C339.564 1.23624 323.128 2.01968 306.808 3.61558C290.458 4.83426 274.138 6.74934 257.934 9.44785L209.379 18.1237C205.321 18.7911 201.205 19.4004 197.089 19.8067C193.001 20.1549 188.856 20.6771 184.595 20.416C182.479 20.2709 180.305 19.8937 178.246 19.0813C177.232 18.675 176.188 18.1817 175.232 17.3403C174.275 16.5568 173.521 15.106 173.579 13.7713C173.695 11.1598 174.913 9.1867 176.623 7.50376C178.449 5.9659 180.536 5.15344 182.827 4.80524C183.986 4.68918 185.204 4.7182 186.479 5.26951C186.827 5.4436 187.175 5.64672 187.494 6.05294C187.841 6.43016 188.015 7.15556 187.899 7.67786C187.668 8.72244 186.972 9.24473 186.479 9.59293C184.276 10.8987 182.218 11.0728 180.218 11.566C176.159 12.4075 172.043 13.0169 167.898 13.3941C159.578 14.1775 151.288 13.5391 143.113 13.22C139.026 12.9878 134.939 13.1909 130.851 13.22L118.56 13.4521C110.386 13.7713 102.211 14.4967 94.0367 15.3672C77.7455 17.1952 61.5413 19.9808 45.6849 24.014C29.7706 27.6991 13.7983 32.3997 -0.0289307 41.4528C13.3635 31.7614 29.3068 26.2193 45.1052 21.7798C61.1065 17.7175 77.3977 14.9029 93.7758 13.0749C101.979 12.1754 110.183 11.479 118.415 11.1308L130.793 10.8987C134.91 10.8406 139.055 10.6665 143.171 10.8987C151.404 11.2178 159.578 11.8562 167.666 11.0728C171.724 10.7246 175.753 10.1152 179.725 9.27375C181.696 8.83851 183.812 8.49031 185.175 7.64884C185.493 7.44573 185.638 7.2136 185.609 7.2136C185.609 7.24261 185.638 7.41671 185.638 7.41671C185.638 7.41671 185.58 7.35868 185.435 7.30064C184.798 7.01048 183.899 6.95245 183.029 7.0395C181.261 7.27163 179.377 8.02605 178.073 9.15769C176.855 10.2893 175.811 12.1464 175.811 13.6842C175.725 15.106 177.203 16.1506 179 16.847C180.768 17.5434 182.711 17.8626 184.682 18.0077C188.624 18.2688 192.711 17.7755 196.799 17.3983C200.857 16.9921 204.886 16.4118 208.945 15.7444L257.499 7.06851C273.762 4.37 290.14 2.45493 306.547 1.20723C323.012 0.336738 339.477 0.16264 355.913 0.742966L356 0.859031Z" fill="url(#paint0_linear_1718_339)"/>
<defs>
<linearGradient id="paint0_linear_1718_339" x1="-0.637676" y1="21.0544" x2="356" y2="21.0544" gradientUnits="userSpaceOnUse">
<stop stop-color="#8A6298"/>
<stop offset="0.04" stop-color="#876197"/>
<stop offset="0.06" stop-color="#806096"/>
<stop offset="0.08" stop-color="#725F95"/>
<stop offset="0.09" stop-color="#5C5D93"/>
<stop offset="0.21" stop-color="#5B8199"/>
<stop offset="0.34" stop-color="#7BAC83"/>
<stop offset="0.46" stop-color="#9E6595"/>
<stop offset="0.55" stop-color="#A988B2"/>
<stop offset="0.56" stop-color="#6D9A98"/>
<stop offset="0.57" stop-color="#5C9F91"/>
<stop offset="0.58" stop-color="#49A589"/>
<stop offset="0.61" stop-color="#48A689"/>
<stop offset="0.62" stop-color="#5296A3"/>
<stop offset="0.68" stop-color="#CFBFB9"/>
<stop offset="0.72" stop-color="#69A885"/>
<stop offset="0.82" stop-color="#40A2B2"/>
<stop offset="0.89" stop-color="#279CAE"/>
<stop offset="1" stop-color="#015371"/>
</linearGradient>
</defs>
</svg>
