<svg width="37" height="57" viewBox="0 0 37 57" fill="none" xmlns="http://www.w3.org/2000/svg">
<g clip-path="url(#clip0_1823_5425)">
<path d="M36.064 12.8633C36.064 10.2224 33.9199 8.07404 31.2705 8.07404C28.6211 8.07404 26.4812 10.2182 26.4812 12.8633C26.4812 15.5085 28.6296 17.6569 31.2705 17.6569C33.9114 17.6569 36.064 15.5085 36.064 12.8633ZM27.2412 19.576C27.2412 18.4551 26.3326 17.5422 25.2074 17.5422C24.0823 17.5422 23.1737 18.4509 23.1737 19.576C23.1737 20.7011 24.0865 21.6098 25.2074 21.6098C26.3283 21.6098 27.2412 20.6969 27.2412 19.576ZM29.5934 30.1057C29.5934 26.1613 26.392 22.9557 22.4349 22.9557C18.4778 22.9557 15.2849 26.157 15.2849 30.1057C15.2849 34.0543 18.4905 37.2641 22.4349 37.2641C26.3793 37.2641 29.5934 34.0585 29.5934 30.1057ZM14.907 35.2941C14.907 33.3113 13.2979 31.7021 11.3108 31.7021C9.32375 31.7021 7.71883 33.3113 7.71883 35.2941C7.71883 37.2769 9.328 38.8903 11.3108 38.8903C13.2936 38.8903 14.907 37.2811 14.907 35.2941ZM5.1968 38.6525C5.1968 37.2217 4.03345 36.0583 2.59835 36.0583C1.16326 36.0583 0.00415039 37.2217 0.00415039 38.6525C0.00415039 40.0834 1.16751 41.251 2.59835 41.251C4.0292 41.251 5.1968 40.0876 5.1968 38.6525ZM4.8444 46.2738C4.8444 45.2845 4.04194 44.4778 3.04841 44.4778C2.05489 44.4778 1.25243 45.2803 1.25243 46.2738C1.25243 47.2673 2.05913 48.0698 3.04841 48.0698C4.03769 48.0698 4.8444 47.2631 4.8444 46.2738Z" fill="url(#paint0_linear_1823_5425)"/>
</g>
<defs>
<linearGradient id="paint0_linear_1823_5425" x1="-9.54428e-05" y1="28.0719" x2="36.064" y2="28.0719" gradientUnits="userSpaceOnUse">
<stop stop-color="#8CC4C5"/>
<stop offset="0.13" stop-color="#B7C6E1"/>
<stop offset="0.24" stop-color="#9EC1D1"/>
<stop offset="0.37" stop-color="#9DC6D5"/>
<stop offset="0.56" stop-color="#DDBCBF"/>
<stop offset="0.71" stop-color="#EAD4A0"/>
<stop offset="0.82" stop-color="#E4BF7B"/>
<stop offset="0.96" stop-color="#E3B090"/>
</linearGradient>
<clipPath id="clip0_1823_5425">
<rect width="36.0641" height="40" fill="white" transform="translate(0 8.4986)"/>
</clipPath>
</defs>
</svg>
