<svg width="286" height="27" viewBox="0 0 286 27" fill="none" xmlns="http://www.w3.org/2000/svg">
<g clip-path="url(#clip0_1718_7936)">
<path d="M-2.29552e-05 23.2144L8.84899 20.6932C11.8094 19.9053 14.6732 18.7077 17.698 18.3295C23.651 17.1004 29.6039 15.7453 35.5891 14.4217C47.5272 11.7429 59.6262 9.22165 71.9505 8.02408C78.1287 7.4568 84.3391 7.29923 90.5495 7.58287C96.7921 7.89802 102.938 8.84347 108.988 10.0726C121.119 12.5623 132.799 16.2495 144.609 18.9914C150.53 20.3465 156.483 21.5126 162.468 22.1113C168.517 22.7101 174.599 23.0568 180.648 23.372C192.812 24.0023 205.007 23.8132 217.139 22.7417C229.27 21.6701 241.337 19.6532 253.017 16.218C264.698 12.8144 276.025 7.92953 285.936 0.838623C276.282 8.24468 265.052 13.6338 253.403 17.3841C241.723 21.1974 229.592 23.5926 217.396 25.0423C205.168 26.492 192.844 27.0277 180.52 26.7756C168.26 26.492 155.807 25.2629 143.772 22.3635C131.77 19.5586 120.089 15.9029 108.215 13.4762C102.295 12.2786 96.3094 11.3647 90.2921 11.0495C84.2747 10.7659 78.2252 10.9235 72.2079 11.4592C60.1411 12.6253 48.2351 15.115 36.297 17.7623C30.344 19.0859 24.3589 20.4726 18.3416 21.7017C15.3812 22.5526 12.2599 22.5841 9.17077 22.8362C6.08166 23.0883 2.99255 23.1829 -0.0965576 23.2144H-2.29552e-05Z" fill="url(#paint0_linear_1718_7936)"/>
</g>
<defs>
<linearGradient id="paint0_linear_1718_7936" x1="-2.29593e-05" y1="13.8544" x2="287.319" y2="13.8544" gradientUnits="userSpaceOnUse">
<stop stop-color="#8A6298"/>
<stop offset="0.04" stop-color="#876197"/>
<stop offset="0.06" stop-color="#806096"/>
<stop offset="0.08" stop-color="#725F95"/>
<stop offset="0.09" stop-color="#5C5D93"/>
<stop offset="0.21" stop-color="#5B8199"/>
<stop offset="0.34" stop-color="#7BAC83"/>
<stop offset="0.46" stop-color="#9E6595"/>
<stop offset="0.55" stop-color="#A988B2"/>
<stop offset="0.56" stop-color="#6D9A98"/>
<stop offset="0.57" stop-color="#5C9F91"/>
<stop offset="0.58" stop-color="#49A589"/>
<stop offset="0.61" stop-color="#48A689"/>
<stop offset="0.62" stop-color="#5296A3"/>
<stop offset="0.68" stop-color="#CFBFB9"/>
<stop offset="0.72" stop-color="#69A885"/>
<stop offset="0.82" stop-color="#40A2B2"/>
<stop offset="0.89" stop-color="#279CAE"/>
<stop offset="1" stop-color="#015371"/>
</linearGradient>
<clipPath id="clip0_1718_7936">
<rect width="286" height="26" fill="white" transform="translate(0 0.870117)"/>
</clipPath>
</defs>
</svg>
