<svg width="24" height="20" viewBox="0 0 24 20" fill="none" xmlns="http://www.w3.org/2000/svg">
<path d="M24 2.3143C23.1174 2.70538 22.1693 2.96963 21.1726 3.08907C22.201 2.47368 22.9704 1.50514 23.3373 0.364152C22.371 0.938086 21.3135 1.34207 20.2107 1.55855C19.4691 0.766723 18.4868 0.241886 17.4164 0.0655253C16.3459 -0.110836 15.2472 0.0711458 14.2907 0.583216C13.3343 1.09529 12.5737 1.9088 12.127 2.89744C11.6803 3.88609 11.5725 4.99456 11.8203 6.05075C9.86244 5.95245 7.94711 5.44357 6.19863 4.55713C4.45016 3.67069 2.90761 2.42651 1.6711 0.905331C1.2483 1.63465 1.0052 2.48024 1.0052 3.3808C1.00473 4.19151 1.20437 4.98979 1.58641 5.70484C1.96846 6.41988 2.52109 7.02957 3.19528 7.4798C2.4134 7.45493 1.64877 7.24366 0.965031 6.86358V6.927C0.964952 8.06404 1.35827 9.1661 2.07823 10.0462C2.7982 10.9262 3.80048 11.5301 4.915 11.7553C4.18968 11.9516 3.42923 11.9805 2.69109 11.8399C3.00555 12.8182 3.61807 13.6738 4.44291 14.2867C5.26776 14.8997 6.26363 15.2394 7.29111 15.2582C5.5469 16.6274 3.39282 17.3701 1.17537 17.3669C0.782575 17.367 0.39011 17.344 0 17.2982C2.25083 18.7454 4.87097 19.5134 7.5469 19.5105C16.6053 19.5105 21.5573 12.0079 21.5573 5.50112C21.5573 5.28972 21.552 5.07621 21.5425 4.86481C22.5057 4.16823 23.3372 3.30564 23.9979 2.31747L24 2.3143Z" fill="black"/>
</svg>
