<?xml version="1.0" encoding="UTF-8"?>
<svg width="1332px" height="323px" viewBox="0 0 1332 323" version="1.1" xmlns="http://www.w3.org/2000/svg" xmlns:xlink="http://www.w3.org/1999/xlink">
    <defs>
        <polygon id="path-1" points="0 323 1332 323 1332 0 0 0"></polygon>
    </defs>
    <g id="Page-1" stroke="none" stroke-width="1" fill="none" fill-rule="evenodd">
        <g id="Desktop-HD" transform="translate(-54.000000, -111.000000)">
            <g id="Group-28" transform="translate(54.000000, 111.000000)">
                <g id="Symbol">
                    <path d="M297.4619,161.3379 C301.4719,175.7379 303.0019,189.4279 302.2019,202.1679 C302.2119,202.1679 302.2119,202.1679 302.2019,202.1779 C300.4819,229.8879 287.7719,253.0779 265.5819,269.1379 C254.2719,277.3379 240.5019,283.6779 224.4619,287.8079 C229.3019,282.8679 234.0019,277.3989 238.5519,271.3989 C243.5719,264.7579 248.3919,257.4679 252.9819,249.5279 L278.5519,205.2379 C283.5419,196.6089 287.7119,188.1089 291.1019,179.7979 C293.6719,173.5379 295.7819,167.3779 297.4519,161.3379 L297.4619,161.3379 Z" id="Fill-1" fill="#FF5D97"></path>
                    <path d="M224.4619,34.8379 C286.4319,50.8279 314.6119,99.6489 297.4619,161.3279 C293.5619,147.2779 287.3019,132.5579 278.5519,117.4079 L252.9819,73.1179 C244.2519,57.9979 234.6519,45.2379 224.4619,34.8379" id="Fill-3" fill="#0EBBFF"></path>
                    <path d="M297.4621,161.3279 L297.4621,161.3379 L297.4521,161.3379 C295.7821,167.3779 293.6721,173.5379 291.1021,179.7979 C287.7121,188.1089 283.5421,196.6089 278.5521,205.2379 L252.9821,249.5279 C248.3921,257.4679 243.5721,264.7579 238.5521,271.3989 C234.0021,277.3989 229.3021,282.8679 224.4621,287.8079 C224.4621,287.8079 224.4521,287.8079 224.4521,287.8179 C210.3221,291.4679 194.4421,293.4079 176.9421,293.4079 L151.3721,293.4079 L125.8021,293.4079 C108.3021,293.4079 92.4221,291.4679 78.2921,287.8179 L78.2821,287.8079 C73.4421,282.8679 68.7321,277.3989 64.1921,271.3989 C59.1721,264.7579 54.3521,257.4679 49.7621,249.5279 L24.1821,205.2379 C19.2021,196.6089 15.0221,188.1179 11.6321,179.8179 C9.0721,173.5479 6.9621,167.3779 5.2821,161.3379 L5.2821,161.3279 C9.1721,147.2779 15.4321,132.5579 24.1821,117.4079 L49.7621,73.1179 C58.4921,57.9979 68.0821,45.2379 78.2821,34.8379 L78.2921,34.8279 C83.7421,33.4179 89.4521,32.2679 95.4221,31.3879 C104.9121,29.9679 115.0521,29.2379 125.8021,29.2379 L151.3721,29.2379 L176.9421,29.2379 C187.7521,29.2379 197.9521,29.9779 207.4921,31.4079 C213.4021,32.2879 219.0521,33.4279 224.4521,34.8279 L224.4621,34.8379 C234.6521,45.2379 244.2521,57.9979 252.9821,73.1179 L278.5521,117.4079 C287.3021,132.5579 293.5621,147.2779 297.4621,161.3279" id="Path" fill="#0E4497"></path>
                    <path d="M218.3921,161.3379 C222.9821,147.8879 225.8521,133.6489 226.7521,118.8679 C204.2221,107.0479 178.5721,100.3679 151.3721,100.3679 C124.2321,100.3679 98.6421,107.0179 76.1421,118.7879 C77.0421,133.5979 79.9121,147.8679 84.5121,161.3379 C96.5521,196.6489 120.4121,226.4879 151.3721,246.1489 L151.3721,246.2479 C151.4021,246.2379 151.4321,246.2179 151.4521,246.1979 C182.4521,226.5379 206.3421,196.6779 218.3921,161.3379" id="Fill-5" fill="#FFFFFF"></path>
                    <path d="M195.332,12.3184 C205.402,17.8684 215.172,25.3684 224.452,34.8284 C219.052,33.4274 213.402,32.2884 207.492,31.4084 C197.952,29.9774 187.752,29.2384 176.942,29.2384 L151.372,29.2384 L125.802,29.2384 C115.052,29.2384 104.912,29.9674 95.422,31.3874 C89.452,32.2674 83.742,33.4184 78.292,34.8284 C87.652,25.2884 97.522,17.7274 107.682,12.1684 C121.862,4.3984 136.622,0.5174 151.372,0.5174 C166.222,0.5174 181.072,4.4484 195.332,12.3184" id="Fill-7" fill="#FF5D97"></path>
                    <path d="M176.9419,293.4082 C194.4419,293.4082 210.3219,291.4682 224.4519,287.8182 C202.0219,310.6872 176.6919,322.1282 151.3719,322.1282 C126.0419,322.1282 100.7219,310.6872 78.2919,287.8182 C92.4219,291.4682 108.3019,293.4082 125.8019,293.4082 L151.3719,293.4082 L176.9419,293.4082 Z" id="Fill-9" fill="#0EBBFF"></path>
                    <path d="M64.1919,271.3984 C68.7319,277.3984 73.4419,282.8684 78.2819,287.8074 C62.2219,283.6684 48.4419,277.3284 37.1219,269.1084 C14.9619,253.0574 2.2619,229.8684 0.5419,202.1774 C0.5319,202.1684 0.5319,202.1684 0.5419,202.1684 C-0.2581,189.4274 1.2719,175.7384 5.2719,161.3374 L5.2819,161.3374 C6.9619,167.3774 9.0719,173.5474 11.6319,179.8184 C15.0219,188.1184 19.2019,196.6084 24.1819,205.2384 L49.7619,249.5284 C54.3519,257.4674 59.1719,264.7574 64.1919,271.3984" id="Fill-11" fill="#FF5D97"></path>
                    <path d="M78.2817,34.8379 C68.0817,45.2379 58.4917,57.9979 49.7617,73.1179 L24.1817,117.4079 C15.4317,132.5579 9.1717,147.2779 5.2817,161.3279 C-11.8683,99.6489 16.3117,50.8279 78.2817,34.8379" id="Fill-13" fill="#0EBBFF"></path>
                </g>
                <path d="M484.3667,116.9805 L463.7967,170.2205 L505.1787,170.2205 L484.3667,116.9805 Z M529.8637,234.1105 L518.4897,204.5855 L450.2437,204.5855 L438.8697,234.1105 L396.0347,234.1105 L463.7967,71.9675 L504.6947,71.9675 L572.4567,234.1105 L529.8637,234.1105 Z" id="Fill-16" fill="#000000"></path>
                <g id="Group-27">
                    <path d="M704.8271,159.5732 L704.8271,234.1102 L666.3491,234.1102 L666.3491,167.8012 C666.3491,153.5222 657.8781,143.8432 645.5361,143.8432 C630.2891,143.8432 620.3681,154.2492 620.3681,177.7232 L620.3681,234.1102 L581.6471,234.1102 L581.6471,112.6242 L620.3681,112.6242 L620.3681,124.2402 C629.5641,114.5602 642.3901,108.9942 657.6361,108.9942 C685.9501,108.9942 704.8271,129.0802 704.8271,159.5732" id="Fill-17" fill="#000000"></path>
                    <polygon id="Fill-19" fill="#000000" points="781.0537 275.251 739.1877 275.251 758.7897 229.996 708.4527 112.382 750.0767 112.382 778.8757 183.289 809.6107 112.382 851.2357 112.382"></polygon>
                    <path d="M862.9785,112.624 L862.9785,103.186 C862.9785,74.63 882.5815,56.479 911.8635,56.479 C920.0905,56.479 928.0775,58.173 935.8215,61.561 L927.5935,91.569 C923.9625,90.359 920.0905,89.634 917.1875,89.634 C907.9915,89.634 901.4575,95.2 901.4575,104.88 L901.4575,112.624 L934.8535,112.624 L934.8535,143.358 L901.4575,143.358 L901.4575,234.11 L862.9785,234.11 L862.9785,112.624" id="Fill-21" fill="#000000"></path>
                    <mask id="mask-2" fill="white">
                        <use xlink:href="#path-1"></use>
                    </mask>
                    <g id="Clip-24"></g>
                    <polygon id="Fill-23" fill="#000000" mask="url(#mask-2)" points="952.034 234.11 990.755 234.11 990.755 59.867 952.034 59.867"></polygon>
                    <path d="M1104.4932,173.3672 C1104.4932,154.4912 1090.2152,141.9062 1075.2102,141.9062 C1059.4792,141.9062 1045.2012,154.4912 1045.2012,173.3672 C1045.2012,192.4852 1059.4792,204.8282 1075.2102,204.8282 C1090.2152,204.8282 1104.4932,192.4852 1104.4932,173.3672 M1141.7622,173.3672 C1141.7622,211.8462 1111.2682,237.4982 1075.2102,237.4982 C1038.4262,237.4982 1007.9322,211.8462 1007.9322,173.3672 C1007.9322,135.1312 1038.4262,109.4782 1075.2102,109.4782 C1111.2682,109.4782 1141.7622,135.1312 1141.7622,173.3672" id="Fill-25" fill="#000000" mask="url(#mask-2)"></path>
                    <polygon id="Fill-26" fill="#000000" mask="url(#mask-2)" points="1292.7686 234.3525 1259.1296 234.3525 1237.3496 168.5275 1215.3276 234.3525 1181.6886 234.3525 1142.7266 112.6235 1180.7206 112.6235 1200.5656 177.9645 1223.5556 112.6235 1250.9026 112.6235 1273.8926 178.2065 1293.7376 112.6235 1331.7316 112.6235"></polygon>
                </g>
            </g>
        </g>
    </g>
</svg>