<svg id="Layer_1" data-name="Layer 1" xmlns="http://www.w3.org/2000/svg" xmlns:xlink="http://www.w3.org/1999/xlink" viewBox="0 0 566.93 283.46"><defs><style>.cls-1{fill:url(#linear-gradient);}.cls-2{fill:url(#linear-gradient-2);}.cls-3{fill:url(#linear-gradient-3);}.cls-4{fill:url(#linear-gradient-4);}.cls-5{fill:url(#linear-gradient-5);}.cls-6{fill:url(#linear-gradient-6);}.cls-7{fill:url(#linear-gradient-7);}.cls-8{fill:url(#linear-gradient-8);}.cls-9{fill:url(#linear-gradient-9);}.cls-10{fill:url(#linear-gradient-10);}.cls-11{fill:url(#linear-gradient-11);}.cls-12{fill:url(#linear-gradient-12);}.cls-13{fill:url(#linear-gradient-13);}.cls-14{fill:url(#linear-gradient-14);}.cls-15{fill:url(#linear-gradient-15);}.cls-16{fill:url(#linear-gradient-16);}.cls-17{fill:#221e1f;}</style><linearGradient id="linear-gradient" x1="120.72" y1="250.51" x2="187.57" y2="65.72" gradientUnits="userSpaceOnUse"><stop offset="0" stop-color="#f15c21"/><stop offset="0.56" stop-color="#8f0205"/><stop offset="1" stop-color="#150000"/></linearGradient><linearGradient id="linear-gradient-2" x1="94.27" y1="241" x2="161.17" y2="56.06" xlink:href="#linear-gradient"/><linearGradient id="linear-gradient-3" x1="109.11" y1="246.36" x2="175.99" y2="61.46" xlink:href="#linear-gradient"/><linearGradient id="linear-gradient-4" x1="96.65" y1="273.94" x2="185.62" y2="28.01" xlink:href="#linear-gradient"/><linearGradient id="linear-gradient-5" x1="62.81" y1="229.51" x2="129.6" y2="44.89" xlink:href="#linear-gradient"/><linearGradient id="linear-gradient-6" x1="68.38" y1="231.59" x2="135.26" y2="46.74" xlink:href="#linear-gradient"/><linearGradient id="linear-gradient-7" x1="63.9" y1="229.99" x2="130.79" y2="45.08" xlink:href="#linear-gradient"/><linearGradient id="linear-gradient-8" x1="69.78" y1="232.06" x2="136.58" y2="47.39" xlink:href="#linear-gradient"/><linearGradient id="linear-gradient-9" x1="153.99" y1="314.3" x2="253.43" y2="39.44" xlink:href="#linear-gradient"/><linearGradient id="linear-gradient-10" x1="215.09" y1="145.62" x2="215.12" y2="145.53" xlink:href="#linear-gradient"/><linearGradient id="linear-gradient-11" x1="82.92" y1="230.23" x2="145.89" y2="56.14" xlink:href="#linear-gradient"/><linearGradient id="linear-gradient-12" x1="61.05" y1="228.83" x2="127.84" y2="44.2" xlink:href="#linear-gradient"/><linearGradient id="linear-gradient-13" x1="58.21" y1="228.17" x2="125.15" y2="43.13" xlink:href="#linear-gradient"/><linearGradient id="linear-gradient-14" x1="50.42" y1="224.62" x2="117.09" y2="40.33" xlink:href="#linear-gradient"/><linearGradient id="linear-gradient-15" x1="47.31" y1="223.74" x2="114.07" y2="39.2" xlink:href="#linear-gradient"/><linearGradient id="linear-gradient-16" x1="106.93" y1="245.36" x2="173.72" y2="60.74" xlink:href="#linear-gradient"/></defs><title>アートボード 2</title><path class="cls-1" d="M145.81,166.73a38,38,0,0,0,12.47-5.62C154.66,163.14,150.18,164.85,145.81,166.73Z"/><path class="cls-2" d="M120.4,175.26c-2.09.75-4.1,1.63-5.5,2.24C116.7,176.87,118.54,176.11,120.4,175.26Z"/><path class="cls-3" d="M138.27,170.53l-.41.09a28.68,28.68,0,0,0-4.14,2.9C134.32,173.15,136.94,171.39,138.27,170.53Z"/><path class="cls-4" d="M138,159.82l.11-.13C137.85,159.78,137.72,159.85,138,159.82Z"/><path class="cls-5" d="M80.33,178.43c-.14,1.85-.15,3.91-.16,5.74A24,24,0,0,0,80.33,178.43Z"/><path class="cls-6" d="M82.47,192.4a45.08,45.08,0,0,0-2.65,7.85A45.54,45.54,0,0,0,82.47,192.4Z"/><path class="cls-7" d="M82.75,178.89c.17-.62.33-1.24.49-1.86s.14-1.34.18-2C83.2,176.31,82.93,177.61,82.75,178.89Z"/><path class="cls-8" d="M77.22,211.43a25.6,25.6,0,0,0,2.39-7.06C78.83,206.6,77.92,209,77.22,211.43Z"/><path class="cls-9" d="M242.24,115.81c.16.94.76,2,.92,3a5.24,5.24,0,0,1-2-1.37,7.46,7.46,0,0,0-.07.95h0a27,27,0,0,0-6.89-6.43c1,.31,2.33.51,3.45.94-16.58-21.27-60.14,13.12-46,35.56.41-.31.95-1.1,1.53-1.38a71.82,71.82,0,0,0,3.14,6.72c-1.92,1.16-.22.84-.27,2.29-1-.16-1.14-.64-1.87-.92,10.51,11,35.52,9.83,45.65-.78-.27-.25-1.37.21-1.81,0,1.75-1.31,3.12-3.37,4.64-4.69-.89.45-2.26,1-3.14,1.45a19.9,19.9,0,0,0,6.11-7.26,65.51,65.51,0,0,0-9.74,5.8c.68-.61,1.3-1.46,1.94-2a44.54,44.54,0,0,1-4.65,3c1.13-1.35,2.12-2.5,3.32-3.69a27.34,27.34,0,0,1-6.22,4.84A66.16,66.16,0,0,0,218.64,155a47.25,47.25,0,0,0,6.23.93,15.75,15.75,0,0,1-8.21,2.28,16.55,16.55,0,0,0,2.07-.56,6.81,6.81,0,0,1-4-1c1.43-.24,2.75-.45,4.14-.75l-1.89-.14c-1.56-.86-3.08-2.22-4.76-3,3.45,1.22,7.92,1.74,11.62.31-7,1-12.12-2.21-17.7-6.51,1.19,1.39,1.89,2.61,3.15,3.91-1.17-.61-2.37-1.28-3.59-1.95a11.88,11.88,0,0,1-3.37-5.93l2.7,1.62c-6.1-8.93,14-21.55,22-20.23,8.5,1.4-7.84,9.36-11.06,12.21,1.56-.92,3.21-1.66,4.78-2.53-2,1.21-3.83,2.76-5.77,4,.6-.06,1.62-.35,2.26-.49-3.16,2.08-6.42,3.88-9.35,6,2.79-1.37,5.95-2.75,9.21-4l-.1.07c2.29-.55,4.52-.71,6.76-1.47-4.16,1.58-7.56,4.87-11,7.54a28.85,28.85,0,0,1,7.62-3.63c-1.11.6-2.22,1.23-3.21,1.88,1.42-.57,2.89-1.2,4.39-1.88a3.49,3.49,0,0,1,.45-.49c.49-.13,1-.27,1.49-.39l-1.94.88a2.83,2.83,0,0,0-.2.28c1.11-.45,2.19-.93,3.28-1.43,4.47-1,9-1.72,13.27-3.35a1.7,1.7,0,0,1-1-.1,8,8,0,0,1-.11-1.74,30.59,30.59,0,0,1,8.57-1.49c-.2-1.35.07-3.41-.38-4.68.44-.17,1.73.21,2-.16C247.16,124.82,246.11,119,242.24,115.81Z"/><path class="cls-10" d="M215,145.57h0Z"/><path class="cls-11" d="M180.5,116.47c-3.59-2.91-8.6-3.47-13.45-2.85l.2-.08c5.16-2.06,8.67-3.09,12.48-7.31,6-6.56,16.53-14.45,17.73-23.72.75-5.78,2.51-19.6-.58-24.25-3.75-5.65-14.79-9.2-21.13-7.58.26.17.63.55.77.66a4.71,4.71,0,0,0-1.9,1.2c1.33.44,2.31,1.14,3.74,1.28-4.32-.25-10.24.8-14.4,1.64a13,13,0,0,1,1.58-.64c-2.23.33-4.34,1.09-6.55,1.42a23.52,23.52,0,0,1,6.55-2.77c-2.46.89-5.24,1.23-7.64,2.1a21.67,21.67,0,0,1,7.73-3.19c-4.64-.14-12.09,2.8-17.53,5.44-1.44-4.37-3.43-8.81-3.39-13.32-2.73-.32-6.53-2.79-9.12-2.64-2.94.15-7.51,3.47-11.11,4.11,3,2.87,2,7.87.51,11.69-.9.11-1.81,0-2.7.16.17,3.75-.36,7.58-3,10.52a19,19,0,0,1,.51-3.54,65.52,65.52,0,0,1-3.35,6.44l0,0c.3-1.44.32-3.49.56-4.45a11.75,11.75,0,0,0-3.64,5.73c-3.79,1.72-7.7,3.89-11.4,4.7.21-.13.41-.28.61-.42-.07.08-.06.08,0,0l.11-.08-.08,0a32.8,32.8,0,0,1,6-4,19.84,19.84,0,0,1,3-1.93c-6.8,2.52-13.45,6.86-20.28,9.26,1.11-.42,2.36-.71,3.48-1.06-3.35,1.49-7.1,3-10.28,4.76.84-.68,1.57-1.44,2.49-2-6,3.89-12.55,7.5-17.94,11.86,8.78-3.45,17.49-9.53,26.89-11,.24.12-.13.6-.17.57a56.73,56.73,0,0,1,6.94-1.65c-5.06,1.93-11,4.38-15.93,6.64-4.37,2-7.74,5.47-12.2,7.28,0,.07.81-.08.82,0a40.75,40.75,0,0,0-4.57,3.74C74.91,96.24,82.23,92,87.44,92.1c-.15.23-.8.81-.89,1,5.93-1.93,11.46-5.82,17.58-7.46a8.41,8.41,0,0,0-1.54.31c2.59-1.48,5.5-3.1,8.63-4.74a34,34,0,0,1-2.11,7.51c-4.43,9.36-4.59,19.35-8.4,28.79,2.2-3.84,3.18-8.14,5.19-12-1,2.1-1.58,4.21-2.33,6.41,3.32-5.18,6.45-10.64,9.89-15.64-4.48,7.61-5.52,15.73-7.73,23.37-1.27,2.69-2.19,5.64-3.59,8.18,1.32-3.64,2.15-7.52,3.63-11.12-.22.3-.59.71-.76.91.42-1.1.68-2.31,1-3.48-2.82,6-4.19,12.28-6.31,18.26-.53.69-1.1,1.37-1.72,2a19.52,19.52,0,0,1,.94-4.36,0,0,0,0,1,0,0,34.24,34.24,0,0,1,1.16-6.2c-1.7,5.88-4,11.92-6.16,17.7a.83.83,0,0,1-.11-.7c-1.91,3.17-4,6.37-6.09,9.45A22.93,22.93,0,0,1,90.65,148a50.55,50.55,0,0,1-2.13,7.31c2-4.11,3.43-8.53,5.79-12.48-4.45,9.83-5.5,21.57-8.19,32.09a18.12,18.12,0,0,1-2.91,8.78c0-.61,0-1.31,0-2-1.07,7.59-5.41,15.14-8.33,22.11,4.66-5.32,6.69-12.92,10.84-18.87a16,16,0,0,1-.35,4.51A101.5,101.5,0,0,1,92.06,177c-.55,7-2.7,11.39-4.06,19.78a37.23,37.23,0,0,1,1.65-10.35c-3.2,5.71-8,15.83-7.66,23a41.63,41.63,0,0,0-2.54,4.4,21.8,21.8,0,0,1,1-6.44c-.7,1.45-1.5,2.86-2.32,4.26.06-1.07,0-2.14.07-3.2a71.19,71.19,0,0,1-5.38,11.07.38.38,0,0,1-.46-.27c-.29,1-.66,1.84-1,2.75,0-.74.55-3.2.49-3-1-1.17.61-6.23,1.8-9-2.44,4.19-3.78,9-5.34,13.52.36-.19.74-1.11,1.08-1.34-.2,3.31-1.23,6.65-1.91,10a21.05,21.05,0,0,1,5.43-9.88c-.4,1.24-.71,2.87-1.14,4.22a62.49,62.49,0,0,0,5.15-11.82c-.24,8-4.37,17.29-6.86,25.1,3.11-8.22,5.63-16.94,10.34-24.67a10.43,10.43,0,0,1,.07,2.68,26.29,26.29,0,0,1,1.67-3.2c.1.34-.11,2.21.23,2.29.54-.55.81-2,1.68-2.25.11.21-.64.85-.55,1.21,6.13-7.14,8.72-18,10.89-28.22a87.52,87.52,0,0,1,4.27-10.73c-.84,4-.66,8.26-1.62,12.16-2.15,8.8-6.16,18.89-9.33,27.93,5.39-11.17,11.75-25,15.19-36.35.67-2.21,1.42-4.74,2.17-7.43a11.26,11.26,0,0,1,4.33-.19c1.3-.74,2.74-1.08,4-1.71a32,32,0,0,1-3.8,2.58c4.49-1.49,8.73-5.25,13.47-6.37-.09-.09-.62.05-.8-.07a48.88,48.88,0,0,0,4.54-1.83,35.82,35.82,0,0,1-3.86,1.24,6.18,6.18,0,0,1,.61-.55c-2.56.64-4.75,2.31-7.23,3,4.41-4.2,12.28-9.06,18.06-10.56a17.79,17.79,0,0,1-2.45,3.28,21.57,21.57,0,0,1,7.34-5c-.55.52-.94,1.12-1.47,1.66a7.55,7.55,0,0,1,.84-.28,4.85,4.85,0,0,0,.65.58c-2.61,2.94-6.21,5.16-9.1,7.88a49.27,49.27,0,0,1,10.11-5.06,108.39,108.39,0,0,1-19.17,11.55c2.73-1,5.58-1.68,7.18-1.05a31.72,31.72,0,0,1,9.27-3.32,67.8,67.8,0,0,1,7.5-3.66,23.13,23.13,0,0,1-2.91.56c6.74-1.69,12.7-6.36,18.64-9.9-.46.5-.86,1-1.28,1.56,1.63-1,3.35-2.09,5-2.91-.54.56-1.09,1.29-1.7,1.87,3.18-2.14,5.82-3.46,8.37-6.37,6.63-7.58,9.69-13.76,12-23.49C184.29,121.66,185.34,120.41,180.5,116.47ZM90.67,147.94c-.14-.13-.42,0,.13-.61C90.76,147.53,90.71,147.74,90.67,147.94Zm74-73.76a11.22,11.22,0,0,0-.69-1.33c3.25,2.08,4.26,4.47,5.07,8.67a12.11,12.11,0,0,0,1-3.72c.14,1,.53,2.31.62,3.16.62-3.07-.9-5.37-1.94-8,3.55,2.93,4.3,10.89,2.78,15-.17,0,0-1.16-.06-1.24a5.54,5.54,0,0,1-.72,1.51c-.12-1.71-.4-3.29-.67-5,.07,3.3-1.43,6.31-3.09,9.06a25.2,25.2,0,0,0-.12-9.94c.54,4.93-1.19,10.72-4.6,13.41a12.25,12.25,0,0,0,2-7.72c-2.72,9.73-11.77,11.83-18.67,17,.57-.05,1-.26,1.57-.31-.84.46-1.78,1.21-2.6,1.68,2.52-.32,4.42-2.07,6.88-2.79-5.49,2.55-10.57,6.66-16.13,8.87,1.66-1.29,3.42-2.5,5.17-3.69-1.82.73-3.62,1.76-5.51,2.4a27.25,27.25,0,0,0,2.29-1.7,52.33,52.33,0,0,0-9,4.32A106.91,106.91,0,0,1,139,91.48c1.84-2.8,7.42-6.1,8.64-8.75,1.49-3.21,0-4.59.47-8,.21-1.55.54-3.09.85-4.64C154.88,69.59,161.27,70.92,164.65,74.18ZM154,57.91a26.65,26.65,0,0,0-5.28,1.77c-.08-.3-.17-.59-.26-.88C150.25,58.46,152.12,58.19,154,57.91Zm-17.13,95.54c.35-.56.79-1.07,1.13-1.63-5.89,2.59-11.95,7-18,10-4.32,2.09-9.1,4-13.57,6.3a1.82,1.82,0,0,1,.07-.25,7.16,7.16,0,0,1,3.51-2.14c-1.43-12.4,8.27-22.2,11.12-34.61.31,5.65-4.15,11.79-4.23,17.28,1.43-5.83,4.87-13.2,6.65-19.48,3.31-1,6.83-2.06,10-3a26.07,26.07,0,0,1-4.15.28c3.76-1.53,7.55-2.76,11.39-2.66-.46.12-2.29,1-3.27,1.39a45,45,0,0,0,12-1.2C167.89,127.84,147.93,151.37,136.82,153.45Z"/><path class="cls-12" d="M96.84,129.43c0,.31,0,.6,0,.86A.61.61,0,0,0,96.84,129.43Z"/><path class="cls-13" d="M119,60.14c.76-1.68,1.46-3.38,2-5.1A18.8,18.8,0,0,0,119,60.14Z"/><path class="cls-14" d="M107.84,68.19l-.76.43-1.44,1.1C105.58,69.76,107.19,68.59,107.84,68.19Z"/><path class="cls-15" d="M100.78,72.79c1-.6,2-1.2,3-1.89A27,27,0,0,0,100.78,72.79Z"/><path class="cls-16" d="M169,78.77a12.54,12.54,0,0,0-1.64-5.17A25.6,25.6,0,0,1,169,78.77Z"/><rect class="cls-17" x="70.13" y="164.75" width="430.9" height="1.48"/><path class="cls-17" d="M356,137.14c-3.84,13.38,2.93,24.27,15.09,24.27s25.17-10.89,29-24.27-2.92-24.27-15.09-24.27S359.83,123.76,356,137.14Zm8,0c2.58-9,11-16.29,18.74-16.29s12,7.3,9.4,16.29-11,16.29-18.75,16.29S361.39,146.12,364,137.14Z"/><path class="cls-17" d="M456.09,112.7h-12a17.84,17.84,0,0,1,.43,5.46l-6.68,23.24c-2.41,8.43-7,12-15.19,12s-10.72-3.6-8.3-12l6.68-23.24a30.47,30.47,0,0,1,3.56-5.46h-12a17.84,17.84,0,0,1,.43,5.46L406.4,141.4c-3.69,12.9,1.27,20,14,20s21.76-7.11,25.47-20l6.67-23.24A30.47,30.47,0,0,1,456.09,112.7Z"/><path class="cls-17" d="M482.31,113H462a18.16,18.16,0,0,1,.43,5.46l-10.75,37.44a30.75,30.75,0,0,1-3.56,5.47h20.28c10.43,0,24.42-6.34,29.54-24.19S492.74,113,482.31,113Zm-11.6,40.39H460.4c1.15-4,7.75-27,9.31-32.42H480c4.4,0,14.18,1.58,10,16.21S475.11,153.43,470.71,153.43Z"/><path class="cls-17" d="M300.67,112.87h-24.6a17.8,17.8,0,0,1,.43,5.45l-10.8,37.62a31,31,0,0,1-3.55,5.47h12a17.74,17.74,0,0,1-.42-5.47c1-3.35,2.23-7.8,3.45-12h14.63c7.21,0,15.07-7,17.53-15.51S307.88,112.87,300.67,112.87Zm-6.61,23H279.43c2.12-7.38,3.62-12.62,4.33-15.07h14.63c2.75,0,4.1,3.45,2.93,7.54S296.82,135.92,294.06,135.92Z"/><path class="cls-17" d="M340.62,142.36a23.12,23.12,0,0,0,11.46-14c2.46-8.56-1.42-15.52-8.62-15.52H318.85a17.8,17.8,0,0,1,.43,5.45l-10.8,37.62a30.75,30.75,0,0,1-3.56,5.47h12a17.93,17.93,0,0,1-.43-5.47c1-3.35,2.24-7.8,3.46-12h12.19l3.38,17.51h8.81Zm-3.78-6.44H322.21c2.12-7.38,3.62-12.62,4.33-15.07h14.62c2.77,0,4.11,3.45,2.93,7.54S339.6,135.92,336.84,135.92Z"/></svg>