<?xml version="1.0" encoding="utf-8"?>
<!-- Generator: Adobe Illustrator 23.0.1, SVG Export Plug-In . SVG Version: 6.00 Build 0)  -->
<svg version="1.1" id="レイヤー_1" xmlns="http://www.w3.org/2000/svg" xmlns:xlink="http://www.w3.org/1999/xlink" x="0px"
	 y="0px" viewBox="0 0 200 200" style="enable-background:new 0 0 200 200;" xml:space="preserve">
<style type="text/css">
	.st0{fill:#222222;}
</style>
<title>hennge_logo_black_horizontal</title>
<path class="st0" d="M64.51568,44.92062c-0.32111-0.23814-0.77446-0.17088-1.0126,0.15023
	c-0.18991,0.25608-0.18991,0.60627,0,0.86236c15.44745,21.18165,15.44745,49.91504,0,71.09668
	c-0.23812,0.32112-0.17084,0.77448,0.15028,1.0126c0.25608,0.18989,0.60624,0.18989,0.86232,0
	c21.18172-15.44751,49.91521-15.44746,71.09687,0.00013c0.32112,0.23809,0.77446,0.17078,1.01254-0.15034
	c0.18985-0.25606,0.18985-0.60616,0-0.86221c-15.44654-21.18122-15.44514-49.91454-0.00012-71.09686
	c0.23813-0.32111,0.17087-0.77446-0.15022-1.0126c-0.2561-0.18992-0.60629-0.18991-0.86238,0.00001
	c-10.31511,7.54546-22.7681,11.60402-35.54836,11.58558C87.28375,56.52463,74.83078,52.46607,64.51568,44.92062z"/>
<path class="st0" d="M45,134.02676h3.5489v8.37611h9.22782v-8.37611h3.5489v20.27272h-3.5489V145.299H48.5489v9.00049H45V134.02676z
	"/>
<path class="st0" d="M63.85972,134.02676h14.59419v3.0666H67.409v5.30952h10.2216v2.8961H67.409v5.93388h11.24343v3.0666H63.85972
	V134.02676z"/>
<path class="st0" d="M80.854,134.02676h3.7478l9.25625,14.93517h0.05644v-14.93517h3.37879v20.27272h-3.74777l-9.22744-14.90637
	h-0.08525v14.90637H80.854V134.02676z"/>
<path class="st0" d="M99.722,134.02676h3.74782l9.25663,14.93517h0.056v-14.93517h3.3788v20.27272h-3.74782l-9.227-14.90637
	h-0.08565v14.90637H99.722V134.02676z"/>
<path class="st0" d="M140.20731,134.02676h14.59338v3.0666h-11.0441v5.30952h10.22122v2.8961h-10.22122v5.93388H155v3.0666
	h-14.79269V134.02676z"/>
<path class="st0" d="M129.5871,143.58775v3.0666h5.09476c-0.15936,1.40651-0.86996,2.69241-1.976,3.57578
	c-1.09941,0.96771-2.51399,1.5013-3.97864,1.50076c-0.00745,0-0.01312-0.00035-0.0213,0
	c-1.82032-0.03276-3.56074-0.75354-4.87122-2.01736c-1.58189-1.39355-2.46204-3.41846-2.40188-5.52576
	c-0.05422-2.02246,0.72636-3.97807,2.15832-5.40733c1.39614-1.44513,3.33282-2.24084,5.34167-2.19472
	c2.42645,0.03839,4.67793,1.27074,6.01801,3.29393l0.09515,0.12639l2.40578-2.30441l-0.08308-0.1003
	c-1.09279-1.32289-2.43698-2.41602-3.95485-3.21619c-4.12317-1.87619-8.9761-1.01799-12.20575,2.15849
	c-4.18292,4.19897-4.20825,10.98201-0.0568,15.2121c1.94096,2.03178,4.6366,3.16913,7.44636,3.14178
	c0.08096,0.00179,0.16167,0.00273,0.24214,0.00284c2.73056,0.00386,5.32678-1.1843,7.10872-3.25328
	c0.8168-0.90468,1.43593-1.96977,1.81783-3.12724c0.38501-1.33746,0.56975-2.72459,0.54819-4.11621v-0.8159L129.5871,143.58775z"/>
</svg>
