<?xml version="1.0" encoding="utf-8"?>
<!-- Generator: Adobe Illustrator 27.9.0, SVG Export Plug-In . SVG Version: 6.00 Build 0)  -->
<svg version="1.1" id="_レイヤー_1" xmlns="http://www.w3.org/2000/svg" xmlns:xlink="http://www.w3.org/1999/xlink" x="0px"
	 y="0px" viewBox="0 0 400 100" style="enable-background:new 0 0 400 100;" xml:space="preserve">
<style type="text/css">
	.st0{fill:#040000;}
</style>
<path class="st0" d="M90.7,25.2h10.5c0.7,0,1.2,0.5,1.2,1.2v47.5c0,0.7-0.5,1.2-1.2,1.2H90.7c-0.7,0-1.2-0.5-1.2-1.2V26.4
	C89.5,25.7,90.1,25.2,90.7,25.2z"/>
<path class="st0" d="M151.9,25.2h-10.4c-0.7,0-1.2,0.5-1.2,1.2v28.5L124.1,26c-0.3-0.5-0.8-0.9-1.4-0.9h-12.2
	c-0.7,0-1.2,0.5-1.2,1.2v47.5c0,0.7,0.5,1.2,1.2,1.2h10.4c0.7,0,1.2-0.5,1.2-1.2V45.4l16.2,28.8c0.3,0.5,0.9,0.8,1.4,0.8h12.2
	c0.7,0,1.2-0.5,1.2-1.2V26.4C153.1,25.7,152.6,25.2,151.9,25.2z"/>
<path class="st0" d="M194.3,36.5c0.7,0,1.2-0.5,1.2-1.2v-8.9c0-0.7-0.5-1.2-1.2-1.2h-33.1c-0.7,0-1.2,0.5-1.2,1.2v47.5
	c0,0.7,0.5,1.2,1.2,1.2h33.1c0.7,0,1.2-0.5,1.2-1.2V65c0-0.7-0.5-1.2-1.2-1.2h-21.5v-8.3h20c0.7,0,1.2-0.5,1.2-1.2v-8.9
	c0-0.7-0.5-1.2-1.2-1.2h-20v-7.6C172.8,36.5,194.3,36.5,194.3,36.5z"/>
<path class="st0" d="M301,26.7h-1.8h-39.7c-0.7,0-1.2,0.5-1.2,1.2v8.9c0,0.7,0.5,1.2,1.2,1.2h29c-1.5,11.9-5.8,21.2-22.5,25.5
	c-0.6,0.2-1,0.7-0.9,1.3l1.4,9.8c0.1,0.7,0.7,1.1,1.4,0.9c30.4-7,33.6-28.5,34.3-47.7C302.2,27.2,301.6,26.7,301,26.7L301,26.7z"/>
<path class="st0" d="M251.7,31.2h-32.2l-0.9-6.5c-0.1-0.6-0.6-1.1-1.3-1.1h-9.9c-0.7,0-1.2,0.6-1.1,1.3l0.9,6.3H202
	c-0.7,0-1.2,0.5-1.2,1.2v8.9c0,0.7,0.5,1.2,1.2,1.2h6.8l4.5,31.4c0.1,0.6,0.6,1.1,1.3,1.1h9.9c0.7,0,1.2-0.6,1.1-1.3l-4.5-31.3h17.1
	c-1.8,4.8-4.6,8.5-8,11.1c-0.6,0.5-0.6,1.3-0.1,1.8l6.4,6.5c0.4,0.4,1.1,0.5,1.6,0.1c7.8-6.2,13.5-15.4,14.8-29.5
	C253,31.8,252.4,31.2,251.7,31.2L251.7,31.2z"/>
<path class="st0" d="M83.2,63.8H63V26.4c0-0.7-0.5-1.2-1.2-1.2H51.4c-0.7,0-1.2,0.5-1.2,1.2v47.5c0,0.7,0.5,1.2,1.2,1.2h26.3
	c0.6,0,1.2-0.3,1.5-0.9l4.8-9.1C84.3,64.5,83.9,63.8,83.2,63.8L83.2,63.8z"/>
<path class="st0" d="M307.5,45.3v8.9c0,0.7,0.5,1.2,1.2,1.2h33.7c0.6,0,1.2-0.3,1.5-0.9l4.9-9.1c0.3-0.6-0.1-1.3-0.8-1.3h-39.2
	C308,44.1,307.5,44.6,307.5,45.3L307.5,45.3z"/>
</svg>
