<?xml version="1.0" encoding="UTF-8"?>
<svg id="_レイヤー_1" data-name="レイヤー 1" xmlns="http://www.w3.org/2000/svg" xmlns:xlink="http://www.w3.org/1999/xlink" viewBox="0 0 1364.74 602.76">
  <defs>
    <style>
      .cls-1, .cls-2 {
        fill: none;
      }

      .cls-3 {
        clip-path: url(#clippath);
      }

      .cls-4 {
        fill: #008c95;
      }

      .cls-2 {
        stroke: #008c95;
        stroke-miterlimit: 10;
        stroke-width: 4.71px;
      }

      .cls-5 {
        clip-path: url(#clippath-1);
      }

      .cls-6 {
        clip-path: url(#clippath-3);
      }

      .cls-7 {
        clip-path: url(#clippath-2);
      }

      .cls-8 {
        opacity: 0;
      }
    </style>
    <clipPath id="clippath">
      <rect class="cls-1" x="0" y="0" width="1364.11" height="602.76"/>
    </clipPath>
    <clipPath id="clippath-1">
      <rect class="cls-1" x="0" y="0" width="1364.11" height="602.76"/>
    </clipPath>
    <clipPath id="clippath-2">
      <rect class="cls-1" x="0" y="0" width="1364.11" height="602.76"/>
    </clipPath>
    <clipPath id="clippath-3">
      <rect class="cls-1" x="0" y="2.29" width="1360.89" height="598.04"/>
    </clipPath>
  </defs>
  <g id="safie-logo-basic-a">
    <g class="cls-3">
      <g class="cls-5">
        <g class="cls-7">
          <path class="cls-4" d="m730.56,231.05h-51.63c-3.41,0-6.46,3.25-6.46,6.46v17.99c0,3.59,2.65,6.92,6.74,6.92h51.62c17.05,0,26.52,14.26,26.52,24.06,0,3.47-2.83,6.71-6.71,6.71h-16.87c-45.16,1.89-77.93,31.17-77.93,69.61s26.55,63.3,67.66,63.3c16.99,0,28.01-5.15,34.87-8.99,1.84-1.04,3.19-.73,3.7.65.55,1.56,2.52,4.3,6.24,4.3h16.14c3.72,0,6.73-3.17,6.73-6.73v-126.71c0-34.43-24.38-57.56-60.63-57.56m-7.05,163.61c-19.95,0-33.86-13.1-33.86-31.87,0-19.98,19.5-38.18,40.9-38.18h13.03c8.23,0,13.78,6.92,13.78,13.37v21.68c0,16.97-11.86,34.99-33.85,34.99"/>
          <path class="cls-4" d="m891.64,233.42h51.66c3.84,0,6.71,3.27,6.71,6.7v17.94c0,3.8-3.13,6.71-6.71,6.71h-51.01c-4.07,0-7.36,3.32-7.36,7.39v143.17c0,4.09-3.37,6.73-6.73,6.73h-20.36c-3.79,0-6.73-3.17-6.73-10.02v-212.2c0-34.55,29.09-63.13,67.66-63.13.11,0,.2.03.32.05h30.82c3.9,0,6.72,3.36,6.72,6.72v17.93c0,3.34-2.99,6.71-6.62,6.71h-31.25c-21.96,0-33.84,18.05-33.84,35.03v26.83c0,3.47,2.75,3.42,6.72,3.42"/>
          <path class="cls-4" d="m551.15,307.64c-18.93-.94-30.67-9.92-30.67-23.44s8.78-21.77,22.35-21.77h57.08c3.65,0,6.71-2.98,6.71-6.71v-17.96c0-4.26-3.58-6.7-6.71-6.7h-61.08c-29.53,0-50.97,22.36-50.97,53.15s23.59,52.41,63.15,54.44c21.56,1.13,33.93,10.52,33.93,25.79,0,13.95-8.89,30.24-33.87,30.24-20.62,0-33.04-14.56-42.17-27.25-1.16-1.58-5.18-3.33-8.4-1.26l-15.15,10.46c-3.39,2.56-3.5,6.15-2.21,8.57,8.02,14.97,31.41,40.92,67.93,40.92,40.5,0,67.69-24.81,67.69-61.67,0-33.45-25.28-54.69-67.62-56.79"/>
          <path class="cls-4" d="m1132.39,341.43h76.11c11.96,0,18.81-6.84,18.81-18.82v-27.67c0-17.71-6.64-34.29-18.72-46.74-12.59-12.97-30.11-20.13-49.34-20.13s-36.76,7.15-49.33,20.13c-12.08,12.45-18.75,29.03-18.75,46.74v64.3c0,17.71,6.67,34.31,18.75,46.72,12.57,12.97,30.11,20.14,49.33,20.14,37.07,0,56.44-22.45,64.67-35.84,2.48-4,2.83-10-2.28-13.84l-8.96-6.53c-1.87-1.31-3.99-2-6.12-2-2.98,0-5.66,1.39-7.36,3.82-7.5,10.17-19.81,23.67-39.96,23.67-22.65,0-34.89-18.61-34.89-36.13v-9.76c0-5.17,2.85-8.05,8.02-8.05m26.87-82.59c22.66,0,34.89,18.61,34.89,36.1v9.78c0,5.18-2.85,8.03-8.03,8.03h-53.73c-5.17,0-8.02-2.85-8.02-8.03v-9.78c0-17.5,12.24-36.1,34.89-36.1"/>
          <path class="cls-4" d="m995.81,240.48c0-3.53,2.92-6.72,6.72-6.72h20.38c3.36,0,6.74,2.65,6.74,6.72v174.84c0,4.09-3.38,6.73-6.74,6.73h-20.38c-3.8,0-6.72-3.17-6.72-6.73v-174.84Z"/>
          <path class="cls-4" d="m1035.65,189.64c0,12.66-10.26,22.93-22.94,22.93s-22.93-10.27-22.93-22.93,10.28-22.94,22.93-22.94,22.94,10.26,22.94,22.94"/>
          <path class="cls-4" d="m430.49,194.66c0-18.93-23.63-34.69-62.12-34.69-56.07,0-82.46,28.65-98.11,36.02-1.95.92-3.39-1.07-1.49-2.33,14.01-9.24,14.59-22.3,14.89-28.56.08-1.92-1.7-2.75-3.44-1.24-18.06,15.67-28.4,17.56-45.81,17.88-45.68.82-79.38,24.93-77.48,56.04.21,3.42-.73,4.4-3.6,6.05-19.28,11.06-22.49,35.43-8.41,47.62,2.9,2.51,4.21,1.72,3.23-1.55-3.47-11.53,3.98-17.64,7.71-17.15,5.14.68-5.4,36.95,36.17,46.55,2.92.68,3.76.03,3.15,6.31-4.84,50.26,11.29,102.73,63.05,133.65,32.73,19.55,64.86-6.46,34.76-48.29,18.98-1.38,31.65-16.7,34.57-33.61,7.82,4.03,16.69,6.35,26.11,6.35,31.37,0,56.79-25.3,56.79-56.5,0-21.68-12.29-40.49-30.29-49.97,15.23-12.91,16.74-40.19,6.69-51.67,27.04-3.08,43.65-15.71,43.65-30.9m-210.83,30.29c5.44,4.85,8.89,11.89,8.89,19.75,0,14.61-11.85,26.45-26.45,26.45s-26.45-11.84-26.45-26.45c0-1.65.17-3.27.47-4.85.2-1.04.82-1.62,1.9-1.91,3.15-.82,6.33-1.72,9.51-2.67.51-.16.91.4.63.86-1.54,2.49-2.44,5.42-2.44,8.57,0,9.06,7.34,16.39,16.39,16.39s16.4-7.34,16.4-16.39c0-7.04-4.45-13.03-10.68-15.34-.5-.19-.53-.87-.02-1.06,3.04-1.18,6.1-2.43,9.15-3.75,1.1-.47,1.87-.36,2.72.4"/>
          <g class="cls-8">
            <g class="cls-6">
              <rect class="cls-2" x="2.35" y="4.65" width="1356.18" height="593.33"/>
            </g>
          </g>
        </g>
      </g>
    </g>
  </g>
</svg>