<svg width="110" height="71" viewBox="0 0 110 71" fill="none" xmlns="http://www.w3.org/2000/svg">
<path d="M74.9859 14.9024L67.9725 32.3543V15.2977C67.9725 14.718 67.5032 14.2436 66.9215 14.2436C65.183 14.237 63.1008 14.2238 61.7854 14.2304C61.2037 14.2304 60.741 14.7048 60.741 15.2845V57.4419C60.741 58.0282 61.2235 58.496 61.8118 58.496C63.6693 58.4894 65.0244 58.4696 65.8837 58.4367C66.9017 58.3971 67.5032 58.2917 67.6883 58.1204C67.88 57.9557 67.9725 57.6593 67.9725 57.2376V37.7368C68.065 37.7764 68.1642 37.8027 68.2567 37.8554C68.8715 38.1716 69.4069 38.6065 69.8762 39.1533C70.762 40.1678 71.4957 41.3735 72.0642 42.7899C72.6327 44.1998 73.0557 45.748 73.3334 47.4345C73.611 49.1211 73.7961 50.8933 73.9018 52.7445C73.9878 54.273 74.0406 55.8212 74.0539 57.4089C74.0605 57.9821 74.51 58.463 75.0917 58.4894C75.6205 58.5157 76.1427 58.5421 76.6583 58.5684C77.5044 58.608 78.3307 58.6343 79.1305 58.6343C80.3996 58.6343 81.2127 58.5289 81.5763 58.3181C81.9332 58.1073 82.1117 57.7252 82.1117 57.1783C82.1117 51.5719 81.5498 46.7032 80.4327 42.5725C79.309 38.4418 77.5903 35.2992 75.2635 33.1515L81.7944 15.6732C82.0522 14.9815 81.5432 14.2502 80.8029 14.2502H75.9642C75.5345 14.237 75.1446 14.5005 74.9859 14.9024Z" fill="black"/>
<path d="M86.7192 27.7425V57.2705C86.7192 57.949 87.2811 58.4958 87.9553 58.4958C89.7203 58.4893 91.0092 58.4761 91.8223 58.4497C92.8138 58.4168 93.4154 58.3443 93.6269 58.2191C93.8384 58.1006 93.9442 57.8832 93.9442 57.5801V27.7689C93.9442 27.0969 93.4021 26.5501 92.7279 26.5435C91.1084 26.5369 89.2113 26.5171 87.9355 26.5237C87.2613 26.5237 86.7192 27.0705 86.7192 27.7425Z" fill="black"/>
<path d="M32.3832 26.5567V21.9582C32.3832 21.3982 31.9271 20.9371 31.3586 20.9371H25.8523C25.2508 20.9371 24.7617 20.4495 24.7617 19.85V15.2581C24.7617 14.6981 24.3056 14.2369 23.7371 14.2369H17.7615C17.1996 14.2369 16.7369 14.6915 16.7369 15.2581V19.9225C16.7369 20.4825 16.2808 20.9436 15.7123 20.9436H10.5762C10.0143 20.9436 9.55164 21.3982 9.55164 21.9648V26.5633C9.55164 27.1233 10.0077 27.5845 10.5762 27.5845H15.5405C16.1883 27.5845 16.7171 28.1115 16.7171 28.7571L16.7501 47.2434C16.7501 53.4099 21.8135 58.4498 28.0006 58.4432L31.1339 58.4366C31.8279 58.4366 32.3898 57.8766 32.3898 57.1783V51.9671C32.3898 51.2753 31.8279 50.7087 31.1273 50.7087H28.7542C26.553 50.7087 24.7683 48.9299 24.7683 46.7361V28.3553C24.7683 27.927 25.1186 27.5845 25.5417 27.5845H31.3652C31.9271 27.5779 32.3832 27.1233 32.3832 26.5567Z" fill="black"/>
<path d="M90.335 22.9333C92.7445 22.9333 94.6977 20.9865 94.6977 18.5851C94.6977 16.1837 92.7445 14.2369 90.335 14.2369C87.9256 14.2369 85.9723 16.1837 85.9723 18.5851C85.9723 20.9865 87.9256 22.9333 90.335 22.9333Z" fill="black"/>
<path d="M37.3145 41.3667C35.4306 43.7648 34.9018 45.7808 35.2522 48.2711C35.6752 51.2621 36.2635 52.9025 37.1493 54.5891C38.035 56.2756 39.2116 57.4417 40.6725 58.1005C42.1333 58.7594 43.8983 59.0822 45.9673 59.0822C48.7567 59.0822 51.0306 58.3772 52.789 56.9608C54.5407 55.5509 55.8429 53.1595 56.689 49.7863C57.4359 46.7953 57.621 36.1489 57.5417 32.4794C57.5351 32.1763 57.1385 32.0775 56.9798 32.3344C55.1422 35.365 52.28 38.8105 50.9051 40.4115C50.4027 40.9912 50.1118 41.7225 50.0788 42.4867C50.0259 43.6001 49.9532 43.89 49.8408 45.1154C49.6293 47.4344 49.2591 49.1209 48.7303 50.175C48.2015 51.2291 47.4083 51.7562 46.3506 51.7562C45.293 51.7562 44.3742 51.0051 43.8454 50.0169C43.3166 49.0287 43.2108 47.9021 43.4818 46.7031C44.1891 43.5737 48.5452 39.4825 50.1515 37.4204C50.8852 36.4783 54.1771 32.6441 55.2017 31.1156C56.6691 28.9218 57.2707 26.7609 57.1913 24.9228C57.0657 21.9581 56.3122 19.817 55.4198 18.1502C54.534 16.4834 53.3706 15.3041 51.9296 14.6124C50.4886 13.9141 48.7369 13.5715 46.6613 13.5715C43.9578 13.5715 41.7037 14.2566 39.9057 15.627C38.1077 16.9973 36.7659 19.3163 35.8801 22.584C35.0737 25.5553 34.6308 32.3147 34.5581 39.7329C34.5515 40.4707 34.5647 40.7211 34.796 40.8067C35.0274 40.8924 35.3711 40.4115 35.662 40.0425C38.6894 36.2016 41.003 33.5532 42.0871 32.341C42.53 31.8469 42.7811 31.2144 42.7944 30.549C42.8274 29.2248 42.8605 28.6056 42.9728 27.3933C43.2042 24.9491 43.2967 23.6776 43.885 22.5708C44.4866 21.4377 45.2269 20.8118 46.5489 20.7855C48.1156 20.7591 48.9551 21.497 49.4045 23.0781C49.94 24.9689 49.4045 27.3077 48.3205 28.5528L42.6886 35.0026C42.6886 34.9828 39.1918 38.9621 37.3145 41.3667Z" fill="black"/>
<path d="M110 70.9211H19.2621C8.6395 70.9211 0 62.3104 0 51.7233V0H90.7379C101.36 0 110 8.61067 110 19.1978V70.9211ZM6.18713 6.16648V51.7233C6.18713 58.9109 12.0504 64.7546 19.2621 64.7546H103.813V19.1978C103.813 12.0101 97.9496 6.16648 90.7379 6.16648H6.18713Z" fill="black"/>
</svg>
