<svg xmlns="http://www.w3.org/2000/svg" xmlns:xlink="http://www.w3.org/1999/xlink" viewBox="0 0 481.29 213.21"><defs><style>.cls-1{fill:url(#名称未設定グラデーション_2);}.cls-2{fill:url(#新規グラデーションスウォッチ_1);}.cls-3{fill:url(#新規グラデーションスウォッチ_1-2);}.cls-4{fill:url(#新規グラデーションスウォッチ_1-3);}</style><linearGradient id="名称未設定グラデーション_2" x1="159.19" y1="185.42" x2="138.68" y2="35.82" gradientTransform="matrix(1, -0.16, 0, 1, 0, 16.1)" gradientUnits="userSpaceOnUse"><stop offset="0" stop-color="#fac959"/><stop offset="0.26" stop-color="#edee97"/><stop offset="0.57" stop-color="#009fe8"/><stop offset="0.6" stop-color="#0090db"/><stop offset="0.7" stop-color="#0065b5"/><stop offset="0.75" stop-color="#0054a6"/><stop offset="1" stop-color="#1f2a66"/></linearGradient><linearGradient id="新規グラデーションスウォッチ_1" x1="134.7" y1="109.49" x2="73.89" y2="-22.79" gradientUnits="userSpaceOnUse"><stop offset="0" stop-color="#fac959"/><stop offset="0.26" stop-color="#edee97"/><stop offset="0.57" stop-color="#009fe8"/><stop offset="0.75" stop-color="#0054a6"/><stop offset="1" stop-color="#1f2a66"/></linearGradient><linearGradient id="新規グラデーションスウォッチ_1-2" x1="54.18" y1="42.31" x2="89.82" y2="223.85" gradientTransform="matrix(1, -0.16, 0, 1, 0, 16.1)" xlink:href="#新規グラデーションスウォッチ_1"/><linearGradient id="新規グラデーションスウォッチ_1-3" x1="203.69" y1="174.81" x2="17.49" y2="202.39" xlink:href="#新規グラデーションスウォッチ_1"/></defs><title>Asset 1</title><g id="Layer_2" data-name="Layer 2"><g id="レイヤー_1" data-name="レイヤー 1"><path class="cls-1" d="M220.07,6.35C191-22.83,85,59.8,53.84,28.48L99,90.34l0,0,9.67,13.26a2,2,0,0,0,3,0l20.11-18,0,0Z"/><path class="cls-2" d="M136.57,18.67c-28.86-4.81-57.29-10.29-82.73,9.81C69.24,44,102.93,31.6,136.57,18.67Z"/><path class="cls-3" d="M121.1,119.57s0,0,0,0l-9.68-13.26a2,2,0,0,0-3,0l-20.11,18,0,0L0,203.56c29,29.18,135.06-53.45,166.22-22.14Z"/><path class="cls-4" d="M83.5,191.24c28.86,4.81,57.28,10.29,82.72-9.82h0C150.82,166,117.14,178.3,83.5,191.24Z"/><path d="M242.42,174.3c-7.22,0-14.12,5.87-15.4,13.08a11.34,11.34,0,0,0,2.3,9.42,11,11,0,0,0,8.62,3.82,15.39,15.39,0,0,0,9.09-3.15.46.46,0,0,0,.18-.32.47.47,0,0,0-.1-.36l-.42-.51a.48.48,0,0,0-.65-.08,13.53,13.53,0,0,1-8,2.76,9.46,9.46,0,0,1-7.42-3.28,9.73,9.73,0,0,1-2-8.14A14.41,14.41,0,0,1,242.29,176a9.65,9.65,0,0,1,6.92,2.71.48.48,0,0,0,.64,0l.6-.51a.44.44,0,0,0,.16-.34.45.45,0,0,0-.13-.35A11.2,11.2,0,0,0,242.42,174.3Z"/><path d="M211,174.3c-7.22,0-14.12,5.87-15.39,13.08a11.45,11.45,0,0,0,2,9.14,10.81,10.81,0,0,0,7.89,4.06h0a.48.48,0,0,0,.46-.39l.13-.73a.46.46,0,0,0-.1-.37.48.48,0,0,0-.33-.18,9.09,9.09,0,0,1-8.64-10,.71.71,0,0,1,.68-.63h23.62a.47.47,0,0,0,.46-.39l.06-.37a11.28,11.28,0,0,0-2.3-9.42A11,11,0,0,0,211,174.3Zm-13.1,12.33a.37.37,0,0,1-.28-.12.42.42,0,0,1,0-.35A14.47,14.47,0,0,1,210.85,176a9.21,9.21,0,0,1,9.56,10,.64.64,0,0,1-.23.44l0,0a.71.71,0,0,1-.43.18Z"/><path d="M451.25,178.12a11,11,0,0,0-8.62-3.82c-7.21,0-14.12,5.87-15.39,13.08a11.41,11.41,0,0,0,2,9.14,10.77,10.77,0,0,0,7.88,4.06h0a.47.47,0,0,0,.46-.39l.13-.73a.49.49,0,0,0-.09-.37.48.48,0,0,0-.34-.18,9.08,9.08,0,0,1-8.63-10,.69.69,0,0,1,.22-.44.7.7,0,0,1,.46-.19H453a.47.47,0,0,0,.46-.39l.07-.37A11.31,11.31,0,0,0,451.25,178.12ZM442.5,176a9.58,9.58,0,0,1,7.09,2.89,9.45,9.45,0,0,1,2.47,7.13.67.67,0,0,1-.22.44h0a.71.71,0,0,1-.44.18H429.53a.37.37,0,0,1-.28-.12.42.42,0,0,1,0-.35A14.45,14.45,0,0,1,442.5,176Z"/><path d="M296.17,174.3h-8.68a.47.47,0,0,0-.46.39L282.74,199a.43.43,0,0,0,.1.38.46.46,0,0,0,.36.17h.73a.47.47,0,0,0,.46-.39l4-22.66a.72.72,0,0,1,.67-.57h7a9.47,9.47,0,0,1,7.42,3.27,9.77,9.77,0,0,1,2,8.14l-2.07,11.74a.48.48,0,0,0,.1.38.48.48,0,0,0,.36.17h.73a.46.46,0,0,0,.46-.39l2.07-11.74a11.31,11.31,0,0,0-2.3-9.42A11,11,0,0,0,296.17,174.3Z"/><path d="M269.64,174.3a13,13,0,0,0-9,3.88.62.62,0,0,1-.6.18.33.33,0,0,1-.19-.39l4.62-26.19a.5.5,0,0,0-.1-.39.51.51,0,0,0-.36-.17h-.73a.47.47,0,0,0-.46.39L254.49,199a.43.43,0,0,0,.1.38.46.46,0,0,0,.36.17h.72a.47.47,0,0,0,.47-.39l2.46-13.95A11.56,11.56,0,0,1,269.52,176a7.57,7.57,0,0,1,5.93,2.61,7.84,7.84,0,0,1,1.58,6.51L274.57,199a.43.43,0,0,0,.1.38.46.46,0,0,0,.36.17h.72a.47.47,0,0,0,.47-.39l2.46-13.95a9.38,9.38,0,0,0-1.91-7.79A9.09,9.09,0,0,0,269.64,174.3Z"/><path d="M353.07,151.39a.49.49,0,0,0-.36-.17H352a.47.47,0,0,0-.46.39L343.16,199a.43.43,0,0,0,.1.38.46.46,0,0,0,.36.17h.72a.47.47,0,0,0,.47-.39l8.36-47.42A.46.46,0,0,0,353.07,151.39Z"/><path d="M210.9,152.53l.13-.73a.49.49,0,0,0-.11-.38.46.46,0,0,0-.36-.17H170.62a.46.46,0,0,0-.46.39l-.13.72a.47.47,0,0,0,.46.56h18.65a.33.33,0,0,1,.26.1.37.37,0,0,1,.07.31L181.4,199.1a.43.43,0,0,0,.1.38.46.46,0,0,0,.36.17h.72a.47.47,0,0,0,.47-.39l8.07-45.77a.73.73,0,0,1,.67-.57h18.64A.48.48,0,0,0,210.9,152.53Z"/><path d="M328.51,174.33c-7.22,0-14.12,5.86-15.39,13.08a11.31,11.31,0,0,0,2.3,9.42,11,11,0,0,0,8.61,3.82c7.22,0,14.13-5.87,15.4-13.08a11.31,11.31,0,0,0-2.3-9.42A11,11,0,0,0,328.51,174.33Zm-.13,1.66a9.49,9.49,0,0,1,7.43,3.28,9.76,9.76,0,0,1,2,8.14A14.41,14.41,0,0,1,324.16,199a9.47,9.47,0,0,1-7.42-3.27,9.8,9.8,0,0,1-2-8.14C315.9,181.19,322,176,328.38,176Z"/><path d="M368.66,174.33c-7.21,0-14.12,5.86-15.39,13.08a11.31,11.31,0,0,0,2.3,9.42,11,11,0,0,0,8.62,3.82c7.21,0,14.12-5.87,15.39-13.08a11.31,11.31,0,0,0-2.3-9.42A11,11,0,0,0,368.66,174.33Zm-.13,1.66a9.48,9.48,0,0,1,7.43,3.28,9.8,9.8,0,0,1,2,8.14A14.43,14.43,0,0,1,364.31,199a9.47,9.47,0,0,1-7.42-3.27,9.8,9.8,0,0,1-2-8.14C356.05,181.19,362.15,176,368.53,176Z"/><path d="M400.27,174.33c-7.22,0-14.12,5.86-15.39,13.08a11.31,11.31,0,0,0,2.3,9.42,11,11,0,0,0,8.61,3.82,15.94,15.94,0,0,0,11.5-5.37.62.62,0,0,1,.63-.21.32.32,0,0,1,.19.39l-.8,4.54a14.34,14.34,0,0,1-12.67,11.54.48.48,0,0,0-.43.39l-.13.73a.46.46,0,0,0,.11.39.48.48,0,0,0,.35.16h0a16.21,16.21,0,0,0,14.39-13l2.22-12.6a11.34,11.34,0,0,0-2.3-9.42A11,11,0,0,0,400.27,174.33ZM395.92,199a9.47,9.47,0,0,1-7.42-3.27,9.77,9.77,0,0,1-2-8.14c1.13-6.38,7.23-11.58,13.61-11.58a9.49,9.49,0,0,1,7.43,3.28,9.76,9.76,0,0,1,2,8.14A14.41,14.41,0,0,1,395.92,199Z"/><path d="M472.06,174.13c-3.9,0-7.47,1.28-9.55,3.43a5.74,5.74,0,0,0-1.77,4.34c.19,3.14,4.13,4.42,7.29,5.45.63.21,1.18.38,1.68.57l1.57.53c2.74.91,6.15,2,6.4,4.19a3.56,3.56,0,0,1-1.05,2.89c-1.67,1.81-4.92,2.94-8.48,2.94a14.55,14.55,0,0,1-8.09-2.21.46.46,0,0,0-.62.07l-.52.59a.5.5,0,0,0-.12.37.48.48,0,0,0,.21.33,16,16,0,0,0,9,2.51c4.09,0,7.75-1.32,9.79-3.53a5.35,5.35,0,0,0,1.53-4.28c-.38-3.11-4.28-4.4-7.42-5.45l-.1,0-1.45-.49c-.48-.18-1-.35-1.54-.53l-.18-.06c-2.73-.88-6.12-2-6.25-4.09a3.94,3.94,0,0,1,1.26-3c1.71-1.77,4.88-2.86,8.27-2.86A14.47,14.47,0,0,1,480,178a.48.48,0,0,0,.62-.08l.52-.59a.47.47,0,0,0-.08-.7A16.07,16.07,0,0,0,472.06,174.13Z"/><path d="M422.53,174.3h-.72a.48.48,0,0,0-.47.39L417.05,199a.43.43,0,0,0,.1.38.46.46,0,0,0,.36.17h.73a.46.46,0,0,0,.46-.39L423,174.85a.45.45,0,0,0-.1-.38A.46.46,0,0,0,422.53,174.3Z"/><path d="M424.25,165.87h0a.77.77,0,0,0-1.07-.06L421.75,167a.75.75,0,0,0-.13,1.06l1,1.21a.68.68,0,0,0,.55.26.76.76,0,0,0,.52-.19l1.43-1.21a.89.89,0,0,0,.29-.49.73.73,0,0,0-.15-.58Z"/><path d="M252.05,116.36a11,11,0,0,0-8.67-3.9,15.79,15.79,0,0,0-11.47,5.34.66.66,0,0,1-.65.21.31.31,0,0,1-.18-.38L236,90a.46.46,0,0,0-.1-.39.48.48,0,0,0-.36-.16h-.73a.46.46,0,0,0-.46.39l-5,28.62a.57.57,0,0,1,0,.14.26.26,0,0,0,0,.11l-1.76,10a10.34,10.34,0,0,1-3.55,6,10,10,0,0,1-6.43,2.49A6.88,6.88,0,0,1,212,134.7a7.17,7.17,0,0,1-1.4-5.89l1.08-6.14a8.68,8.68,0,0,0-1.72-7.16,8.41,8.41,0,0,0-6.65-3h-4.46l-.19,0h-1a.47.47,0,0,0-.47.39l-2.76,15.72a10.58,10.58,0,0,1-10,8.49,6.92,6.92,0,0,1-5.41-2.38,7.11,7.11,0,0,1-1.44-5.94L184.44,90a.45.45,0,0,0-.1-.38.46.46,0,0,0-.36-.17h-.73a.47.47,0,0,0-.46.39l-5.66,32.09c-1.71,9-9,15.26-17.7,15.26-4.24,0-7.77-1.52-10-4.29s-3-6.7-2.19-11.08L152.87,90a.45.45,0,0,0-.1-.38.46.46,0,0,0-.36-.17h-.72a.48.48,0,0,0-.47.39l-5.6,31.81c-.87,4.94.12,9.41,2.77,12.57a13.89,13.89,0,0,0,10.91,4.63,19.47,19.47,0,0,0,15.62-8,.67.67,0,0,1,.63-.28.28.28,0,0,1,.25.29,8.24,8.24,0,0,0,8.51,7.95,11.85,11.85,0,0,0,7.59-2.93,12.15,12.15,0,0,0,4.17-7.07l2.47-14a.74.74,0,0,1,.67-.57h4a6.93,6.93,0,0,1,5.46,2.42,7.19,7.19,0,0,1,1.39,5.9L209,128.65a8.68,8.68,0,0,0,1.77,7.22,8.43,8.43,0,0,0,6.6,2.93,12.48,12.48,0,0,0,10.42-6.36.79.79,0,0,1,.58-.37.32.32,0,0,1,.34.19,10.78,10.78,0,0,0,10.24,6.53c7.22,0,14.12-5.87,15.39-13.09h0A11.34,11.34,0,0,0,252.05,116.36Zm.59,9.18a14,14,0,0,1-4.84,8.18,13.6,13.6,0,0,1-8.77,3.4h0a9.5,9.5,0,0,1-7.31-3.12,9.68,9.68,0,0,1-2.15-7.79l.16-.93c1.36-6.25,7.29-11.15,13.51-11.15a9.45,9.45,0,0,1,7.48,3.34A9.76,9.76,0,0,1,252.64,125.54Z"/><path d="M282,116.27a11,11,0,0,0-8.62-3.81,15.45,15.45,0,0,0-9.93,3.83,15.85,15.85,0,0,0-5.46,9.25,11.36,11.36,0,0,0,2.24,9.35,11,11,0,0,0,8.68,3.89,15.94,15.94,0,0,0,11.49-5.37.65.65,0,0,1,.63-.22.33.33,0,0,1,.2.4l-.63,3.6a.46.46,0,0,0,.1.39.48.48,0,0,0,.36.16h.72a.47.47,0,0,0,.47-.39l2.05-11.66A11.32,11.32,0,0,0,282,116.27Zm.65,9.26a14.06,14.06,0,0,1-4.84,8.18,13.62,13.62,0,0,1-8.77,3.4v0a9.47,9.47,0,0,1-7.42-3.27,9.8,9.8,0,0,1-2-8.14,14,14,0,0,1,4.84-8.18,13.66,13.66,0,0,1,8.78-3.4,9.48,9.48,0,0,1,7.47,3.33A9.86,9.86,0,0,1,282.66,125.53Z"/><path d="M310.13,116.27a11,11,0,0,0-8.62-3.82h-8.68a.47.47,0,0,0-.47.39l-4.28,24.35a.43.43,0,0,0,.1.38.46.46,0,0,0,.36.17h.73a.46.46,0,0,0,.46-.39l4-22.66a.73.73,0,0,1,.67-.57h7a9.46,9.46,0,0,1,7.48,3.34,9.83,9.83,0,0,1,1.92,8.07l-2.07,11.74a.46.46,0,0,0,.1.38.48.48,0,0,0,.36.17h.73a.46.46,0,0,0,.46-.39l2.07-11.73A11.31,11.31,0,0,0,310.13,116.27Z"/><path d="M336.38,113.8l-12-23.75a.47.47,0,0,1,0-.46.48.48,0,0,1,.41-.22h.87a.48.48,0,0,1,.42.25s11.38,22.51,11.47,22.66a.31.31,0,0,0,.27.2.74.74,0,0,0,.55-.29l19.45-22.67a.44.44,0,0,1,.35-.16H359a.47.47,0,0,1,.43.27.5.5,0,0,1-.07.5l-20.54,23.93a.54.54,0,0,0-.13.57l11.4,22.5a.5.5,0,0,1,0,.46.49.49,0,0,1-.41.23h-.87a.47.47,0,0,1-.42-.26s-10.59-20.94-10.68-21.1a.41.41,0,0,0-.31-.25.66.66,0,0,0-.58.21l-18.23,21.24a.46.46,0,0,1-.35.17h-.88a.48.48,0,0,1-.43-.28.5.5,0,0,1,.07-.5l19-22.15a1.6,1.6,0,0,0,.41-.62A.76.76,0,0,0,336.38,113.8Z"/></g></g></svg>